<svg width="911" height="267" viewBox="0 0 911 267" fill="none" xmlns="http://www.w3.org/2000/svg">
<g clip-path="url(#clip0_47_60337)">
<path d="M43.07 174.81V89.7L117.16 58.96L84.21 26L13.28 55.44L0 75.32V207.05L29.79 226.94L150.52 176.87L117.57 143.91L43.07 174.81Z" fill="#06D6A0"/>
<path d="M186.93 91.44V176.54L112.84 207.29L145.79 240.24L216.72 210.81L230 190.92V59.19L200.21 39.3L79.48 89.38L112.43 122.33L186.93 91.44Z" fill="#06D6A0"/>
<path d="M420.2 114.8L447.85 142.8C447.85 142.8 424.05 174.3 379.25 174.3C329.55 174.3 290 135.8 290 87.15C290 38.15 329.55 0 379.25 0C423.7 0 447.15 30.8 447.15 30.8L418.1 56.7C418.1 56.7 404.45 39.2 379.25 39.2C350.9 39.2 332.7 61.25 332.7 87.15C332.7 113.05 350.9 135.1 379.25 135.1C407.6 135.1 420.2 114.8 420.2 114.8Z" fill="white"/>
<path d="M571.6 5.25L556.9 43.05C556.9 43.05 549.2 39.2 536.95 39.2C511.4 39.2 499.85 61.6 499.85 61.6V170.1H457.85V4.2H497.75V28.35C497.75 28.35 512.1 0 542.9 0C557.95 0 571.6 5.25 571.6 5.25Z" fill="white"/>
<path d="M723 86.45C723 89.6 723 95.9 722.65 102.2H598.75C601.9 116.9 619.05 135.8 645.3 135.8C674.35 135.8 690.8 119 690.8 119L711.8 150.5C711.8 150.5 685.55 174.3 645.3 174.3C594.9 174.3 556.05 135.8 556.05 87.15C556.05 38.5 591.4 0 639.35 0C684.85 0 723 35.35 723 86.45ZM681 71.75C680.3 57.4 667 38.15 639.35 38.15C612.4 38.15 600.15 57.05 598.75 71.75H681Z" fill="white"/>
<path d="M910.1 87.15C910.1 135.8 870.9 174.3 821.55 174.3C772.2 174.3 733 135.8 733 87.15C733 38.15 772.2 0 821.55 0C870.9 0 910.1 38.15 910.1 87.15ZM867.4 87.15C867.4 61.25 849.9 39.2 821.55 39.2C793.2 39.2 775.7 61.25 775.7 87.15C775.7 113.05 793.2 135.1 821.55 135.1C849.9 135.1 867.4 113.05 867.4 87.15Z" fill="white"/>
<path d="M387.39 223.25L372.6 265.75H365.8L353.81 231.92L342.5 265.75H335.7L320.91 223.25H328.48L339.19 257.85L350.75 223.25H357.55L369.11 257.85L379.82 223.25H387.39Z" fill="white"/>
<path d="M434.05 247.06H402C402.85 255.65 408.04 260.66 415.86 260.66C422.07 260.66 426.32 258.45 427.85 254.37L433.55 257.35C430.32 263.13 425.05 266.62 415.87 266.62C403.03 266.62 395.3 258.29 395.3 244.52C395.3 230.75 402.53 222.42 415.36 222.42C427.69 222.42 434.4 231.35 434.4 242.31C434.39 244.25 434.22 245.87 434.05 247.06ZM402.09 241.02H427.85C426.91 233.2 422.58 228.35 415.35 228.35C407.79 228.35 403.11 233.03 402.09 241.02Z" fill="white"/>
<path d="M488.45 244.51C488.45 258.37 480.88 266.61 469.07 266.61C462.35 266.61 457 263.21 454.53 258.36L454.1 265.76H448.15V203.7H454.95V229.88C457.59 225.46 462.69 222.4 469.06 222.4C480.89 222.4 488.45 230.65 488.45 244.51ZM481.65 244.51C481.65 234.65 476.63 228.36 468.3 228.36C460.22 228.36 454.95 234.4 454.95 244V245.02C454.95 254.63 460.22 260.66 468.3 260.66C476.64 260.66 481.65 254.37 481.65 244.51Z" fill="white"/>
<path d="M498.73 257L504.26 253.17C506.3 258.36 511.57 260.65 517.69 260.65C524.66 260.65 527.98 257.84 527.98 254.36C527.98 251.21 525.34 249.34 516.84 247.81C504.77 245.6 500.35 242.28 500.35 235.14C500.35 228.25 506.73 222.39 517.1 222.39C526.2 222.39 531.55 225.62 533.93 232.59L528.15 235.99C526.28 230.38 522.45 228.34 517.1 228.34C511.4 228.34 507.15 231.4 507.15 234.55C507.15 238.21 509.96 240.08 518.63 241.52C530.53 243.48 534.78 247.05 534.78 254.02C534.78 261.42 527.89 266.6 517.01 266.6C509.19 266.61 501.96 263.55 498.73 257Z" fill="white"/>
<path d="M586.71 244.51C586.71 258.28 578.97 266.61 566.14 266.61C553.3 266.61 545.57 258.28 545.57 244.51C545.57 230.74 553.31 222.41 566.14 222.41C578.97 222.4 586.71 230.73 586.71 244.51ZM552.37 244.51C552.37 254.63 557.56 260.75 566.14 260.75C574.73 260.75 579.91 254.63 579.91 244.51C579.91 234.39 574.72 228.27 566.14 228.27C557.55 228.27 552.37 234.39 552.37 244.51Z" fill="white"/>
<path d="M607.19 254.37C607.19 258.71 608.29 260.07 611.78 260.07C614.07 260.07 615.52 259.81 617.99 258.88L616.89 265.43C615.1 266.19 612.81 266.62 610.6 266.62C603.71 266.62 600.4 262.96 600.4 255.23V203.7H607.2V254.37H607.19Z" fill="white"/>
<path d="M664.4 223.25V265.75H658.45L658.02 259.29C655.04 264.39 649.6 266.6 642.8 266.6C634.38 266.6 627.16 262.26 627.16 251.04V223.24H633.96V249.25C633.96 258.01 637.87 260.64 643.99 260.64C651.22 260.64 657.59 256.39 657.59 246.36V223.24H664.4V223.25Z" fill="white"/>
<path d="M707.07 262.78C704.44 265.16 700.78 266.61 696.1 266.61C689.81 266.61 684.37 263.46 684.28 255.22V229.12H675.78V223.25H684.28V213.05L691.08 211.18V223.25H706.81V229.12H691.08V254.03C691.08 258.2 693.72 260.24 697.46 260.24C700.52 260.24 702.73 259.05 704.69 257.09L707.07 262.78Z" fill="white"/>
<path d="M715.82 209.99C715.82 206.93 717.86 204.89 720.92 204.89C723.98 204.89 726.02 206.93 726.02 209.99C726.02 213.05 723.98 215.09 720.92 215.09C717.86 215.09 715.82 213.05 715.82 209.99ZM724.32 265.76H717.52V223.26H724.32V265.76Z" fill="white"/>
<path d="M779.49 244.51C779.49 258.28 771.75 266.61 758.92 266.61C746.08 266.61 738.35 258.28 738.35 244.51C738.35 230.74 746.09 222.41 758.92 222.41C771.75 222.4 779.49 230.73 779.49 244.51ZM745.14 244.51C745.14 254.63 750.33 260.75 758.91 260.75C767.5 260.75 772.68 254.63 772.68 244.51C772.68 234.39 767.49 228.27 758.91 228.27C750.33 228.27 745.14 234.39 745.14 244.51Z" fill="white"/>
<path d="M830.74 238.56V265.76H823.94V240.94C823.94 231.5 819.35 228.36 813.48 228.36C807.27 228.36 800.3 232.27 800.3 243.15V265.76H793.5V223.26H799.45L799.88 229.89C802.86 224.54 808.3 222.41 814.16 222.41C823.26 222.4 830.74 227.59 830.74 238.56Z" fill="white"/>
<path d="M843.15 257L848.68 253.17C850.72 258.36 855.99 260.65 862.11 260.65C869.08 260.65 872.4 257.84 872.4 254.36C872.4 251.21 869.76 249.34 861.26 247.81C849.19 245.6 844.77 242.28 844.77 235.14C844.77 228.25 851.15 222.39 861.52 222.39C870.62 222.39 875.97 225.62 878.35 232.59L872.57 235.99C870.7 230.38 866.87 228.34 861.52 228.34C855.82 228.34 851.57 231.4 851.57 234.55C851.57 238.21 854.38 240.08 863.05 241.52C874.95 243.48 879.2 247.05 879.2 254.02C879.2 261.42 872.31 266.6 861.43 266.6C853.6 266.61 846.38 263.55 843.15 257Z" fill="white"/>
</g>
<defs>
<clipPath id="clip0_47_60337">
<rect width="910.1" height="266.61" fill="white"/>
</clipPath>
</defs>
</svg>
