<?xml version="1.0" encoding="UTF-8"?>
<svg id="Layer_1" xmlns="http://www.w3.org/2000/svg" version="1.1" viewBox="0 0 400 120">
  <!-- Generator: Adobe Illustrator 30.0.0, SVG Export Plug-In . SVG Version: 2.1.1 Build 123)  -->
  <defs>
    <style>
      .st0 {
        fill: #314548;
        stroke: #314548;
        stroke-width: 1px;
      }

      .st1 {
        fill: #06d6a0;
      }

      .st2 {
        fill: #006c7a;
      }

      .st3 {
        fill: #06efb1;
      }

      .st4 {
        fill: #f2f4f4;
      }

      .st5 {
        fill: #05b384;
      }

      .st6 {
        fill: #004852;
      }
    </style>
  </defs>
  <rect class="st0" x="14.9" y="15.9" width="89.2" height="89.2" />
  <g id="squares">
    <rect class="st1" x="8.4" y="35.1" width="22.7" height="22.8" transform="translate(-18.1 13.1) rotate(-25.6)" />
    <rect class="st2" x="35.3" y="22.3" width="22.8" height="22.8" transform="translate(-10 23.5) rotate(-25.6)" />
    <rect class="st3" x="21.3" y="62" width="22.7" height="22.8" transform="translate(-28.5 21.3) rotate(-25.6)" />
    <rect class="st4" x="48.1" y="49.2" width="22.8" height="22.8" transform="translate(-20.3 31.7) rotate(-25.6)" />
    <rect class="st5" x="75" y="36.3" width="22.8" height="22.8" transform="translate(-12.1 42) rotate(-25.6)" />
    <rect class="st5" x="34.2" y="88.8" width="22.8" height="22.8" transform="translate(-38.8 29.5) rotate(-25.6)" />
    <rect class="st1" x="61" y="75.9" width="22.8" height="22.8" transform="translate(-30.6 39.9) rotate(-25.6)" />
    <rect class="st6" x="87.9" y="63.1" width="22.8" height="22.8" transform="translate(-22.5 50.2) rotate(-25.6)" />
  </g>
  <path
    class="st0"
    d="M335.1,82.8c-1.7,2.1-6.3,6.5-14.3,6.5-13.1,0-24.7-11-24.7-26.6s11.5-26.6,24.7-26.6,15.3,7.9,15.3,7.9v-6.6h11.9v51.1c0,17.6-13,25.4-27.3,25.4s-24-9.6-24-9.6l7.3-9.8s7.1,7.5,16.8,7.5,14.4-5.5,14.4-13v-6.1h0ZM335.1,70.3v-15.2s-3.6-7.1-12.1-7.1-13.9,6.3-13.9,14.6,5.2,14.6,13.9,14.6,12.1-7.1,12.1-7.1v.2Z" />
  <path class="st0" d="M285.1,88h-12.8v-42.7l12.8-6.1v48.8Z" />
  <path class="st0" d="M248.8,85c0-2.4,1.9-4.3,4.3-4.3s4.3,1.9,4.3,4.3-1.9,4.3-4.3,4.3-4.3-1.9-4.3-4.3h0Z" />
  <path
    class="st0"
    d="M196.1,88h-5V7.2h5.5v39.8c1.3-1.9,6.5-9,17.6-9s24.3,10.5,24.3,25.6-10.7,25.6-24.3,25.6-18.1-9.5-18.1-9.5v8.2h0ZM196.6,53.8v19.7s4.9,10.4,17.5,10.4,18.5-8.9,18.5-20.2-7.6-20.2-18.5-20.2-17.5,10.4-17.5,10.4h0Z" />
  <path class="st0" d="M132.6,39.3h6l18.5,39.2,18.5-39.2h5.8l-24.4,50.9-24.4-50.9h0Z" />
  <rect class="st0" x="266.3" y="9.5" width="22.8" height="22.8" transform="translate(18.2 122) rotate(-25.6)" />
</svg>
