<?xml version="1.0" encoding="UTF-8"?>
<svg id="Layer_1" xmlns="http://www.w3.org/2000/svg" version="1.1" viewBox="0 0 120 120">
  <!-- Generator: Adobe Illustrator 30.0.0, SVG Export Plug-In . SVG Version: 2.1.1 Build 123)  -->
  <defs>
    <style>
      .st0 {
        fill: #f2f4f4;
        stroke: #f2f4f4;
        stroke-width: 1px;
      }
      .st1 {
        fill: #ffffff;
      }
    </style>
  </defs>
  <rect class="st0" x="14.9" y="15.9" width="89.2" height="89.2" />
  <g id="squares">
    <rect class="st1" x="8.4" y="35.1" width="22.7" height="22.8" transform="translate(-18.1 13.1) rotate(-25.6)" />
    <rect class="st1" x="35.3" y="22.3" width="22.8" height="22.8" transform="translate(-10 23.5) rotate(-25.6)" />
    <rect class="st1" x="21.3" y="62" width="22.7" height="22.8" transform="translate(-28.5 21.3) rotate(-25.6)" />
    <rect class="st1" x="48.1" y="49.2" width="22.8" height="22.8" transform="translate(-20.3 31.7) rotate(-25.6)" />
    <rect class="st1" x="75" y="36.3" width="22.8" height="22.8" transform="translate(-12.1 42) rotate(-25.6)" />
    <rect class="st1" x="34.2" y="88.8" width="22.8" height="22.8" transform="translate(-38.8 29.5) rotate(-25.6)" />
    <rect class="st1" x="61" y="75.9" width="22.8" height="22.8" transform="translate(-30.6 39.9) rotate(-25.6)" />
    <rect class="st1" x="87.9" y="63.1" width="22.8" height="22.8" transform="translate(-22.5 50.2) rotate(-25.6)" />
  </g>
</svg>
