<?xml version="1.0" encoding="UTF-8"?>
<svg xmlns="http://www.w3.org/2000/svg" viewBox="0 0 408.55 275.1">
  <path
    fill="#ffffff"
    d="M101.04,200.01c2.62,1.03,5.46-.88,5.46-3.69v-36s3.24-96.23,118.22-53.35c1.85.69,3.82-.72,3.75-2.69l-.93-27.3c-.53-15.54,3.11-31.02,10.96-44.44,12.63-21.59,38.78-43.18,92.06-26.72,11.1,3.43,22.86,3.86,34.19,1.29,12.05-2.73,29.14-.83,41.15,24.48,12.54,27.63-18.93,77.18-104.02,43.16-1.34-.53-2.76.55-2.6,1.99,2.42,21.5,10.51,142.06-120.46,91.75-.93-.36-1.91.38-1.81,1.37,1.91,18.1,10.47,141.95-119,94.49-2.27-.83-4.79-.66-6.93.47-7.52,3.94-26.81,11.37-41.67-6.17C-8.32,237.72.11,205.43,25.5,195.07c17.44-7.12,42.8-7.89,75.54,4.94Z" />
</svg>
