<?xml version="1.0" encoding="UTF-8"?><svg id="k" xmlns="http://www.w3.org/2000/svg" xmlns:xlink="http://www.w3.org/1999/xlink" viewBox="0 0 128 128"><defs><style>.n{fill:none;}.o{fill:#ae6fc3;}.p{fill:#1fa14c;}.q{clip-path:url(#l);}.r{fill:#9d51b2;}.s{fill:#32b85f;}</style><clipPath id="l"><rect class="n" x="148" width="128" height="128"/></clipPath></defs><path d="M64.37,39.96c13.05,0,23.66,10.62,23.66,23.66,0,6.32-2.46,12.26-6.93,16.73-4.47,4.47-10.41,6.93-16.73,6.93h-23.66v-23.66c0-8.18,4.13-15.66,11.06-20.03,3.76-2.38,8.12-3.63,12.61-3.63M64.37,19.26c-8.7,0-16.81,2.5-23.66,6.83-12.44,7.85-20.71,21.72-20.71,37.54v44.37h44.37c12.25,0,23.35-4.97,31.38-13,8.03-8.03,13-19.13,13-31.38,0-24.51-19.87-44.37-44.37-44.37h0Z"/><g class="q"><path class="o" d="M122.83,100.56s.03.04.05.06c.35.43.71.84,1.07,1.25.1.11.19.22.29.32.31.35.63.69.94,1.02.08.08.15.16.23.24,2.54,2.66,5.22,4.93,7.59,6.8,9.96,7.88,22.91,11.52,31.49,8.86,6.79-2.11,11.78-6.95,13.34-12.96,1.22-4.68.95-12.07-7.27-20.72-5.92-6.23-14.68-11.13-23.46-13.11-4.99-1.13-9.84-1.28-14.38-.51-1.87,4.55-2.65,8.47-2.26,11.04.11.77.31,1.52.58,2.27h0s0,0,0,0c11.22-4.46,24.77,2.89,30.48,8.9,3.28,3.46,4.83,6.74,4.24,8.99-.46,1.78-2.37,3.39-4.98,4.2-3.99,1.24-12.79-.98-20.05-6.73-3.69-2.92-8.33-6.99-10.96-11.76,0,0,0,0,0,0-.02-.04-.04-.08-.06-.12-.06-.11-.12-.22-.18-.33-.14-.27-.28-.55-.41-.82-.03-.07-.06-.14-.09-.21-.14-.3-.27-.61-.38-.92,0-.01-.01-.02-.01-.04,0,0,0,0,0,0-.37-.99-.65-2-.8-3.04-.42-2.77.21-6.52,1.75-10.73,0,0,0,0,0,0,0,0,0,0,0,0,.16-.45.34-.91.53-1.37.03-.08.06-.15.09-.23.17-.41.34-.82.53-1.24.03-.07.06-.14.09-.21,0,0,0,0,0,0,3.82-8.61,10.97-18.6,20.42-26.33,6.24-5.11,11.22-8.91,15.31-11.6,0,0,0,0,0,0,3.38-6.51,8.34-13.15,15.94-16.95.24-.12.48-.24.73-.35,0,0,0,0,0,0-11.77-2.42-23.97,6.28-39.02,18.55.84.92,1.56,1.97,2.11,3.16,2.92,6.24.22,13.66-6.01,16.57-4.48,2.09-9.57,1.3-13.16-1.63-1.93,2.72-3.68,5.51-5.21,8.34-3.47,6.41-5.64,12.62-6.4,18.13-.02.11-.03.22-.04.34-.04.29-.07.57-.1.86-.01.12-.02.24-.04.36-.03.29-.05.57-.06.86,0,.1-.01.2-.02.3-.02.38-.03.76-.04,1.13,0,0,0,0,0,0h0c-.02,1.36.06,2.66.25,3.89.9,6,3.8,11.15,7.33,15.46Z"/><path class="s" d="M163.65,171.37c4.41,0,8.65-1.04,12.54-2.56h0c.54-.21,1.07-.43,1.59-.66.13-.06.26-.12.4-.17.42-.19.83-.38,1.24-.57.11-.05.22-.1.33-.15,3.31-1.6,6.29-3.44,8.81-5.12,10.57-7.03,18.04-18.22,18.16-27.21.09-7.11-2.97-13.35-8.2-16.7-4.07-2.61-11.19-4.63-21.95.51-7.75,3.7-15.12,10.53-19.72,18.26-2.61,4.39-4.26,8.96-4.92,13.52,3.76,3.18,7.24,5.13,9.8,5.56.62.1,1.26.16,1.93.16.14,0,.27,0,.4,0,0,0,0,0,0,0-.77-12.05,10.41-22.67,17.88-26.23,2.71-1.29,5.13-1.95,7.05-1.95,1.13,0,2.09.23,2.81.7,1.55.99,2.49,3.3,2.46,6.03-.05,4.18-4.89,11.86-12.59,16.99-4.06,2.7-9.61,6-15.17,6.9-.05,0-.09.02-.14.02-.15.02-.3.04-.44.06-.08.01-.15.02-.23.03-.15.02-.29.03-.44.05-.06,0-.12.01-.19.02-.21.02-.42.03-.64.04,0,0,0,0,0,0-1.06.05-2.11,0-3.14-.17-2.77-.46-6.13-2.22-9.67-4.99h0c-.05-.04-.1-.08-.15-.12-.17-.13-.34-.27-.51-.41-.12-.1-.23-.19-.35-.29-.1-.09-.21-.17-.31-.26-.13-.11-.26-.22-.4-.34-.1-.08-.19-.17-.29-.25-.11-.1-.23-.2-.34-.3-.06-.05-.11-.1-.17-.15,0,0,0,0,0,0-7.01-6.29-14.3-16.17-18.73-27.56-2.93-7.52-5.01-13.43-6.3-18.15h0c-5.15-5.23-9.93-12-11.19-20.4-.04-.27-.07-.54-.11-.81-5.94,10.45-1.44,24.74,5.58,42.84,1.13-.52,2.36-.87,3.66-1.04,6.83-.85,13.06,4.01,13.9,10.84.61,4.91-1.72,9.5-5.62,12.01,1.99,2.67,4.1,5.2,6.32,7.53,5.01,5.27,10.24,9.25,15.24,11.67.14.07.27.13.41.19.21.1.42.2.63.29.16.07.32.14.48.21.19.08.38.16.57.23.17.07.34.14.5.2.16.06.32.12.49.18.17.06.34.13.52.18,1.29.44,2.55.76,3.78.97,1.49.25,2.97.36,4.43.36Z"/><path class="s" d="M118.33,127.54c-4.81,2.2-7.87,7.34-7.18,12.87.85,6.83,7.07,11.68,13.9,10.84,1.93-.24,3.69-.9,5.22-1.89-4.71-6.32-8.69-13.46-11.54-20.78-.14-.35-.27-.69-.4-1.04Z"/><path class="p" d="M135.9,137.34c-.85-6.83-7.07-11.68-13.9-10.84-1.3.16-2.53.52-3.66,1.04.13.34.27.69.4,1.04,2.85,7.32,6.83,14.46,11.54,20.78,3.89-2.51,6.23-7.11,5.62-12.01Z"/><path class="o" d="M143.35,33.49c.29-.24.57-.47.86-.7-3.58-3.9-9.41-5.21-14.46-2.85-6.24,2.92-8.93,10.34-6.01,16.57.82,1.76,2,3.23,3.41,4.38,4.56-6.43,10.12-12.43,16.2-17.4Z"/><path class="r" d="M140.32,52.52c6.24-2.92,8.93-10.34,6.01-16.57-.55-1.19-1.27-2.24-2.11-3.16-.29.23-.57.47-.86.7-6.08,4.97-11.64,10.97-16.2,17.4,3.59,2.93,8.68,3.73,13.16,1.63Z"/></g></svg>