<?xml version="1.0" encoding="UTF-8"?><svg id="l" xmlns="http://www.w3.org/2000/svg" xmlns:xlink="http://www.w3.org/1999/xlink" viewBox="0 0 128 128"><defs><style>.r{fill:#5a84c3;}.s{mask:url(#m);}.t{fill:#fff;}.u{fill:#3d5fa7;}.v{filter:url(#n);}</style><filter id="n" x="2.68" y="29.18" width="121.59" height="67.39" color-interpolation-filters="sRGB" filterUnits="userSpaceOnUse"><feColorMatrix result="cm" values="-1 0 0 0 1 0 -1 0 0 1 0 0 -1 0 1 0 0 0 1 0"/><feFlood flood-color="#fff" result="bg"/><feBlend in="cm" in2="bg"/></filter><mask id="m" x="2.68" y="29.18" width="121.59" height="67.39" maskUnits="userSpaceOnUse"><g class="v"><path class="t" d="M79.41,29.18h-32.35c-2.65,0-4.8,2.15-4.8,4.8v53.17c0,2.65,2.15,4.8,4.8,4.8h32.35c2.65,0,4.8-2.15,4.8-4.8v-53.17c0-2.65-2.15-4.8-4.8-4.8ZM82.41,87.16c0,1.66-1.34,3-3,3h-32.35c-1.66,0-3-1.34-3-3v-53.17c0-1.66,1.34-3,3-3h32.35c1.66,0,3,1.34,3,3v53.17Z"/></g></mask></defs><g class="s"><path class="r" d="M49.56,87.56l-9.04-52.4c-.28-1.63-1.83-2.73-3.47-2.45l-31.88,5.5c-1.63.28-2.73,1.83-2.45,3.47l9.04,52.4c.28,1.63,1.83,2.73,3.47,2.45l31.88-5.5c1.63-.28,2.73-1.83,2.45-3.47ZM29,84.39c-.74.14-1.45.21-2.12.21-4.65,0-7.48-3.24-8.6-9.15l-3.79-20.03c-1.28-6.78.9-11.29,6.69-12.39,2.95-.56,5.43-.02,7.37,1.6,1.86,1.55,3.12,4.02,3.75,7.35l.71,4.36-7.12,1.35-.78-4.75c-.2-1.07-.54-1.84-.98-2.21-.21-.18-.6-.41-1.39-.26-.8.15-1.07.5-1.2.75-.27.51-.31,1.34-.1,2.42l3.94,20.8c.52,2.76,1.67,2.54,2.36,2.41.81-.15,1.08-.49,1.21-.73.27-.49.31-1.31.1-2.38l-.82-4.32,7.12-1.35.74,3.94c1.28,6.78-1.3,11.29-7.08,12.39Z"/><path class="r" d="M121.66,35.09l-32.08-4.16c-1.64-.21-3.15.95-3.36,2.59l-6.84,52.73c-.21,1.64.95,3.15,2.59,3.36l32.08,4.16c1.64.21,3.15-.95,3.36-2.59l6.84-52.73c.21-1.64-.95-3.15-2.59-3.36ZM111.88,51.65l-.43,3.9-7.21-.61.47-4.29c.09-1.11-.01-1.94-.31-2.41-.16-.24-.43-.53-1.21-.6-.66-.06-1.76-.15-2.01,2.7-.28,3.28,1.61,5.55,3.79,8.18,2.72,3.28,5.8,6.99,5.25,13.44-.55,6.46-3.85,10.08-9.11,10.08-.34,0-.69-.02-1.04-.05-5.87-.5-8.9-4.73-8.31-11.6l.44-3.83,7.22.61-.47,4.22c-.09,1.08.03,1.89.35,2.35.16.23.46.53,1.28.6.7.06,1.87.16,2.1-2.64.28-3.28.07-5.71-2.39-8.08-3.17-3.06-6.7-7.09-6.15-13.54.29-3.37.78-5.96,2.45-7.69,1.75-1.81,4.15-2.6,7.11-2.35,5.8.49,8.79,4.72,8.21,11.6Z"/><path class="u" d="M79.41,30.98h-32.35c-1.66,0-3,1.34-3,3v53.17c0,1.66,1.34,3,3,3h32.35c1.66,0,3-1.34,3-3v-53.17c0-1.66-1.34-3-3-3ZM72.42,53.14h-7.24v-4.23c0-2.86-1.22-2.86-1.87-2.86s-1.87,0-1.87,2.86v21.17c0,2.81,1.17,2.81,1.87,2.81s1.87,0,1.87-2.81v-6.22h-1.59v-7.6h8.83v13.43c0,6.9-3.38,10.86-9.27,10.86s-9.27-3.96-9.27-10.86v-20.38c0-6.9,3.38-10.86,9.27-10.86s9.27,3.96,9.27,10.86v3.83Z"/></g></svg>