<svg id="groomer" viewbox="0 0 128 128" xmlns="http://www.w3.org/2000/svg">
	<defs>
		<style>

        .c,
        .d,
        .e {
            stroke-width: 8px;
            fill: none;
            stroke: #385f3b;
        }

        .c,
        .e {
            stroke-linecap: round;
            stroke-linejoin: round;
        }
        
        .f {
            fill: #385f3b;
        }

		</style>
	</defs>
	<path class="c" d="M95.1,19.05c-8.08-7.73-19.04-12.48-31.1-12.48s-23.02,4.75-31.1,12.48"></path>
	<circle class="d" cx="47.93" cy="50.49" r="10.16"></circle>
	<path class="e" d="M34,76.78c-10.73,2.69-18.43,13.02-16.99,24.87,1.26,10.31,9.62,18.57,19.94,19.71,13.11,1.45,24.29-8.28,25.22-20.85.07-.96.86-1.17,1.82-1.17h0c.96,0,1.75.21,1.82,1.17.93,12.58,12.11,22.3,25.22,20.85,10.42-1.15,18.82-9.54,19.97-19.97,1.34-12.1-6.83-22.55-17.98-24.83"></path>
	<circle class="d" cx="80.05" cy="50.49" r="10.16"></circle>
	<g id="b">
		<path class="f" d="M68.75,89.48l15.55-10.14c5.01-3.27,2.69-11.04-3.28-11.04h-34.07c-5.97,0-8.28,7.77-3.28,11.03l15.58,10.16c2.89,1.88,6.62,1.88,9.51,0Z"></path>
	</g>
</svg>