<?xml version="1.0" encoding="UTF-8"?><svg id="k" xmlns="http://www.w3.org/2000/svg" viewBox="0 0 128 128"><defs><style>.m{fill:#1d1d1b;}</style></defs><path class="m" d="M37.11,82.09c2.18-4.98,2.65-10.75,3.18-16.16.59-8.47.5-17.07-.97-25.43-1.28-6.58-3.41-16.26-11.57-16.46-3.42-.03-6.85.87-9.69,2.81-6.89,4.84-10.29,13.7-11.05,21.85,0,4.2-.39,8.6,1.61,12.38,1.91,3.44,6.2,6.04,10.15,5.27,2.66-.49,4.84-2.5,6.36-4.83.17-.26.53-.34.79-.17.26.17.34.52.17.79-.8,1.26-1.77,2.44-2.94,3.43-4.95,4.46-12.87,1.64-15.87-3.77-1.48-2.66-1.89-5.8-1.95-8.76-.29-4.43.24-8.97,1.68-13.16,3.09-10.29,11.57-19.47,23.13-17.99,17.53,3.66,15.92,39.69,13.24,53.24-.67,3.07-1.32,5.97-2.91,8.84-.52.93-1.69,1.26-2.62.74-.93-.52-1.25-1.69-.75-2.6h0Z"/><path class="m" d="M70.89,16.25c.36.89.34,1.74.22,2.57-.32,2.52-.84,5.01-1.48,7.47-2.5,9.87-6.18,19.89-13.56,27.24-4.83,4.53-12.63,8.58-19,4.8-4.76-3.04-5.07-11.15-.29-14.32,3.67-2.51,7.1-2.35,10.48.33,4.02,3.26,6.86,7.64,9.92,11.64,7.75,10.73,16.96,20.17,28.42,26.87,5.59,3.57,12.02,5.22,18.59,5.79,3.3.31,6.6.33,9.93.22,1.57-.06,3.16-.54,4.54-1.33,3.07-1.76,4.17-5.15.22-6.75-7.85-3.13-16.47-.51-23.73,3.06-9.69,4.15-31.99,21.2-41.66,13.07-.63-.77-.84-1.75-.89-2.63-.35-3.03,2.84-4.77,5.4-5.21,5.09-1.09,10.1,1.34,14.85,2.76,3.16,1.09,6.3,2.25,9.38,3.58,9.02,4.28,18.72,6.67,28.75,6.41.38,0,.68.3.68.68,0,.38-.31.69-.68.68-10.1.22-20.15-2.27-29.23-6.65-6.45-2.64-13.12-5.32-19.97-6.59-2.93-.14-8.25.47-8.1,4.28-.01,3.64,4.45,3.71,7.25,3.76,2.46.01,4.82-.65,7.15-1.44,12.6-4.38,23.15-13.39,36.13-16.99,4.93-1.31,13.25-1.68,17.2,1.96,2.14,2.28-.01,5.59-2.3,6.78-1.51.88-3.2,1.4-4.96,1.49-3.33.17-6.7.19-10.05-.02-5.03-.32-10.15-1.07-14.89-2.94-7.79-3.37-14.96-8-21.24-13.74-5.03-4.6-9.25-9.95-13.13-15.4-2.99-3.77-8.57-14.13-13.84-13.23-4.53.72-6.88,4.66-5.6,9.05,1.31,4.9,7.33,5.77,11.52,4.18,3.05-1.01,5.7-3.05,7.84-5.43,6.42-7.42,9.07-17.31,10.65-26.82.21-1.42.82-5.89,1.08-7.3.13-.82.35-1.62.94-2.38.91-1.22,2.94-.92,3.46.49h0Z"/></svg>