<?xml version="1.0" encoding="UTF-8"?><svg id="g" xmlns="http://www.w3.org/2000/svg" viewBox="0 0 128 128"><defs><style>.m{fill:#1b362c;}</style></defs><path class="m" d="M12.29,80.9c-3.14-1.7-5.61-4.06-7.4-7.07-1.79-3.01-2.68-6.38-2.68-10.11s.89-7.1,2.68-10.11c1.79-3.01,4.26-5.37,7.4-7.07,3.14-1.7,6.67-2.55,10.57-2.55s7.43.85,10.57,2.55c3.14,1.7,5.61,4.05,7.4,7.04,1.79,3,2.68,6.37,2.68,10.14s-.9,7.14-2.68,10.14c-1.79,3-4.26,5.34-7.4,7.04-3.14,1.7-6.67,2.55-10.57,2.55s-7.43-.85-10.57-2.55ZM29.77,75.48c2.04-1.15,3.65-2.76,4.82-4.82,1.17-2.06,1.75-4.37,1.75-6.93s-.58-4.87-1.75-6.93c-1.17-2.06-2.78-3.67-4.82-4.82-2.05-1.15-4.35-1.73-6.9-1.73s-4.86.58-6.9,1.73c-2.05,1.15-3.65,2.76-4.82,4.82-1.17,2.06-1.75,4.38-1.75,6.93s.58,4.87,1.75,6.93c1.17,2.06,2.78,3.67,4.82,4.82,2.04,1.15,4.35,1.73,6.9,1.73s4.86-.58,6.9-1.73Z"/><path class="m" d="M58.34,80.9c-3.12-1.7-5.57-4.04-7.34-7.04-1.77-3-2.66-6.37-2.66-10.14s.89-7.14,2.68-10.14c1.79-2.99,4.25-5.34,7.37-7.04,3.12-1.7,6.62-2.55,10.49-2.55,3.14,0,6.01.55,8.6,1.64,2.59,1.1,4.79,2.68,6.58,4.77l-4.6,4.33c-2.78-2.99-6.19-4.49-10.25-4.49-2.63,0-4.99.58-7.07,1.73-2.08,1.15-3.71,2.75-4.88,4.79-1.17,2.05-1.75,4.37-1.75,6.96s.58,4.91,1.75,6.96c1.17,2.05,2.79,3.64,4.88,4.79,2.08,1.15,4.44,1.73,7.07,1.73,4.06,0,7.47-1.51,10.25-4.55l4.6,4.38c-1.79,2.08-3.99,3.67-6.6,4.77-2.61,1.1-5.49,1.64-8.63,1.64-3.87,0-7.37-.85-10.49-2.55Z"/><path class="m" d="M114.75,82.9l-7.4-10.69h-8.16v10.69h-8.88v-38.36h16.6c3.4,0,6.35.57,8.85,1.7,2.5,1.13,4.43,2.74,5.78,4.82,1.35,2.08,2.03,4.55,2.03,7.4s-.68,5.31-2.05,7.37c-1.37,2.06-3.32,3.64-5.84,4.74l8.6,12.33h-9.53ZM112.5,53.51c-1.39-1.15-3.42-1.73-6.08-1.73h-7.23v13.37h7.23c2.67,0,4.69-.58,6.08-1.75,1.39-1.17,2.08-2.81,2.08-4.93s-.7-3.81-2.08-4.96Z"/></svg>