<?xml version="1.0" encoding="UTF-8"?><svg id="i" xmlns="http://www.w3.org/2000/svg" viewBox="0 0 128 128"><defs><style>.k{fill:#1c1464;}</style></defs><path class="k" d="M64.95,46.3c.32.44.21,1.32.1,1.85-1.02,4.82-3.8,8.22-5.1,9.15-1.39.99-3.7,1.87-5.58,2.36-2.74.71-4.9.6-6.45-.33-1.57-.94-2.94-2.68-3.33-5.85,0,0-.38-4.72-.51-9.18s-.59-7.27-1.36-9.2c-.78-1.94-2.9-2.67-4.44-2.4l-2.05.4-.31,21.14c.03,2.16.17,3.69.43,4.59.25.9.69,1.44,1.3,1.63.61.18,1.61.16,2.98-.07l.02,1.66c-2.5.47-6.15,1.31-11.04,2.56-5.58,1.42-9.79,2.58-12.54,3.46l-.06-1.77c1.55-.51,2.66-1.02,3.35-1.54.68-.52,1.13-1.31,1.34-2.36.21-1.05.29-2.69.23-4.93l-1.22-45.67c-.06-2.43-.25-4.18-.55-5.25-.31-1.07-.82-1.77-1.54-2.1-.72-.33-1.9-.49-3.55-.48l-.06-1.97c2.93-.03,7.27-.28,12.9-.73l8.14-.74c.92-.13,1.97-.25,3.15-.34,6.76-.53,11.63.37,14.75,2.64,3.05,2.23,5.06,6.56,5.03,11.6-.02,4.26-1.68,7.33-3.94,10.66-2.28,3.36-5.63,4.26-11.23,5.91,4.34-.35,8.45-.11,10.58,1.28,2.1,1.37,3.16,3.86,3.06,8.93-.1,5.07.52,8.07.52,8.07.26,1.92.58,3.2.96,3.85.38.65,1.17.75,1.73.32,2.84-2.22,2.87-7.3,3.51-7.52s.77.41.77.41ZM36.52,2.79c-.52.48-.87,1.29-1.04,2.42-.17,1.13.01,2.45.04,4.66l.73,20.96,1.82-.31c2.62-1.13,4.72-3.51,5.61-5.36,1.27-2.63,1.71-4.23,1.69-8.88s-.81-6.79-1.82-9.22-2.84-4.63-4.59-4.85c-1.05.09-1.93.09-2.45.57Z"/><path class="k" d="M114.07,15.35l-.17,1.3c-1.01.81-2.09,2.08-3.24,3.81-1.15,1.74-2.28,3.99-3.37,6.75l-15.1,39.17c-1.19.41-1.82.56-2.62.84s-1.63.55-2.94,1l-7.36-19.03-5.26-17.5c-.4-1.33-.89-2.28-1.48-2.82-.59-.55-1.21-.76-1.85-.64l.14-1.41c3.07-.66,5.12-1.78,9.69-2.97s8.08-2.08,10.23-2.77l-.15,1.35c-1.51.49-2.48,1.24-3.15,1.73-.68.49-1.07,1.21-1.17,2.16-.09.77.04,1.77.36,2.99l7.75,24.39,7.94-19.51c1.71-4.32,3.65-7.4,3.95-9.83.47-3.79-3.27-5.2-6.34-4.52l.16-1.33c2.81-.6,7.7-1.34,9.76-1.88,1.72-.45,3.13-.88,4.23-1.29Z"/><path class="k" d="M75.35,75.15c-.19,2.16-.28,3.84-.26,5.03l-1.5.45c-.54-5.18-2.2-9.42-4.12-11.16-1.92-1.74-4.2-2.24-6.88-1.5l-.86.24c-1.19.33-2.08.68-2.66,1.05-.58.37-1,.87-1.27,1.52-.27.65-.48,1.66-.63,3.04l-1.79,19.52.69-.21c2.38-.74,4.52-2.38,6.4-4.91,1.87-2.51,3.14-5.03,3.82-7.56l1.52-.45c-.33,2.05-.62,4.34-.87,6.86l-.35,3.52c-.25,2.51-.5,7.52-.67,11.99l-1.57.51c-.12-2.74-.9-6.29-2.41-7.62-1.51-1.33-3.52-1.61-6.05-.82l-.69.22-2.31,16.9c-.25,2.21-.23,3.75.07,4.61.29.87.95,1.29,1.98,1.27,1.03-.02,2.7-.43,4.99-1.23l-.19,1.82c-6.37,2.06-11.31,3.7-14.75,4.9-2.3.8-5.54,1.98-9.74,3.54l-3.64,1.34.23-1.66c1.63-.67,2.82-1.29,3.59-1.87.77-.58,1.33-1.37,1.7-2.39.37-1.01.68-2.54.95-4.59l4.94-38.22c.24-1.86.29-3.16.14-3.92-.15-.75-.53-1.18-1.14-1.29-.61-.11-1.66,0-3.15.32l.2-1.46c5.37-1.35,13.36-3.49,23.78-6.38,6.39-1.77,10.88-3.08,13.52-3.95-.68,4.38-.74,9.11-1.05,12.56Z"/></svg>