<?xml version="1.0" encoding="UTF-8"?><svg id="k" xmlns="http://www.w3.org/2000/svg" viewBox="0 0 128 128"><defs><style>.m{fill:#ef476f;}</style></defs><path class="m" d="M95.38,44.39c-.9-.1-1.63-.78-1.8-1.67-2.52-13.65-14.51-24.03-28.88-24.03s-25.18,9.38-28.44,22.04c-.24.92-1.06,1.55-2,1.6,0,0-.01,0-.02,0-7.83.46-15.02,3.94-20.23,9.81-5.21,5.86-7.83,13.41-7.37,21.24.07,1.19.21,2.38.42,3.54.48,2.64,2.78,4.49,5.37,4.49.85,0,1.73-.2,2.59-.65,2.14-1.14,3.15-3.63,2.75-6.02-.11-.65-.19-1.32-.22-1.99-.6-10.15,7.18-18.9,17.33-19.49,6.73-.4,13.13,2.9,16.72,8.63,1.47,2.34,4.39,3.46,6.92,2.37,3.12-1.35,4.23-5.08,2.52-7.88-3.42-5.6-8.52-9.77-14.4-12.06,1.85-8.9,10.14-15.46,19.75-14.6,8.49.76,15.47,7.44,16.58,15.89,1.03,7.81-2.88,15.2-9.67,18.79-2.33,1.23-3.62,3.94-2.85,6.46.75,2.47,2.96,3.92,5.25,3.92.85,0,1.71-.2,2.52-.62,7.61-3.95,12.95-10.89,14.96-18.96,9.63.61,17.28,8.61,17.28,18.38,0,1.02-.08,2.04-.25,3.04-.48,2.89,1.47,5.74,4.35,6.29.35.07.7.1,1.04.1,2.62,0,4.94-1.89,5.38-4.57.27-1.6.4-3.23.4-4.86,0-15.06-11.4-27.51-26.02-29.18Z"/></svg>