<?xml version="1.0" encoding="UTF-8"?><svg id="k" xmlns="http://www.w3.org/2000/svg" viewBox="0 0 128 128"><defs><style>.m{fill:#f5a925;}.n{fill:#ff392e;}.o{fill:#f5b733;}.p{fill:#2388d6;}.q{fill:#ae6fc3;}.r{fill:#32b85f;}.s{fill:#32a4e6;}</style></defs><path class="o" d="M23.25,28.74c-.04.06-.07.12-.11.17-.27.43-.54.86-.79,1.29-.07.12-.15.25-.22.37-.23.4-.45.79-.67,1.19-.06.11-.12.22-.18.32-1.74,3.24-3.07,6.48-4.12,9.31-4.42,11.91-3.88,25.35,1.31,32.68,4.1,5.81,10.26,9.05,16.45,8.69,4.83-.29,11.77-2.83,17.46-13.31,4.1-7.55,6.05-17.41,5.22-26.36-.47-5.1-1.82-9.76-3.97-13.85,0,0,0,0,0,0-1.06-.08-2.1-.12-3.11-.12-4.37,0-6.81.76-8.08,1.39-.69.35-1.35.77-1.98,1.25,0,0,0,0,0,0,7.71,9.29,4.91,24.45.96,31.73-2.27,4.19-4.91,6.68-7.24,6.81-1.84.11-3.96-1.21-5.53-3.44-2.41-3.41-3.02-12.47.2-21.15,1.64-4.41,4.07-10.07,7.8-14.06,0,0,0,0,0,0,.06-.06.11-.12.17-.18.04-.04.08-.08.12-.12.25-.26.51-.51.77-.75.02-.02.03-.03.05-.05.28-.25.56-.5.85-.73.83-.66,1.71-1.24,2.64-1.71,2.51-1.25,6.26-1.81,10.75-1.65,0,0,0,0,0,0,0,0,0,0,0,0,1.05.04,2.15.12,3.27.23,0,0,.01,0,.02,0h0c9.37.97,21.07,4.68,31.35,11.29,6.79,4.36,11.94,7.92,15.76,10.97,7.23,1.2,15.09,3.86,21.04,9.92.19.19.37.39.56.59-1.34-11.94-13.38-20.85-29.7-31.37-.61,1.08-1.39,2.09-2.35,2.99-5.03,4.7-12.92,4.43-17.62-.6-3.38-3.61-4.19-8.7-2.52-13.02-3.18-.99-6.37-1.79-9.54-2.38-7.13-1.31-13.67-1.46-19.14-.49-.18.03-.35.07-.53.1-.23.04-.45.09-.67.14-.15.03-.3.06-.45.1-.26.06-.52.12-.77.19-.11.03-.23.06-.34.09-.3.08-.6.17-.89.26-.06.02-.13.04-.19.05h0c-1.3.4-2.51.88-3.63,1.44-5.43,2.71-9.43,7.07-12.44,11.76Z"/><path class="q" d="M-25.17,100.56s.03.04.05.06c.35.43.71.84,1.07,1.25.1.11.19.22.29.32.31.35.63.69.94,1.02.08.08.15.16.23.24,2.54,2.66,5.22,4.93,7.59,6.8,9.96,7.88,22.91,11.52,31.49,8.86,6.79-2.11,11.78-6.95,13.34-12.96,1.22-4.68.95-12.07-7.27-20.72-5.92-6.23-14.68-11.13-23.46-13.11-4.99-1.13-9.84-1.28-14.38-.51-1.87,4.55-2.65,8.47-2.26,11.04.11.77.31,1.52.58,2.27h0s0,0,0,0c11.22-4.46,24.77,2.89,30.48,8.9,3.28,3.46,4.83,6.74,4.24,8.99-.46,1.78-2.37,3.39-4.98,4.2-3.99,1.24-12.79-.98-20.05-6.73-3.69-2.92-8.33-6.99-10.96-11.76,0,0,0,0,0,0-.02-.04-.04-.08-.06-.12-.06-.11-.12-.22-.18-.33-.14-.27-.28-.55-.41-.82-.03-.07-.06-.14-.09-.21-.14-.3-.27-.61-.38-.92,0-.01-.01-.02-.01-.04,0,0,0,0,0,0-.37-.99-.65-2-.8-3.04-.42-2.77.21-6.52,1.75-10.73,0,0,0,0,0,0,0,0,0,0,0,0,.16-.45.34-.91.53-1.37.03-.08.06-.15.09-.23.17-.41.34-.82.53-1.24.03-.07.06-.14.09-.21,0,0,0,0,0,0,3.82-8.61,10.97-18.6,20.42-26.33,6.24-5.11,11.22-8.91,15.31-11.6,0,0,0,0,0,0,3.38-6.51,8.34-13.15,15.94-16.95.24-.12.48-.24.73-.35,0,0,0,0,0,0-11.77-2.42-23.97,6.28-39.02,18.55.84.92,1.56,1.97,2.11,3.16,2.92,6.24.22,13.66-6.01,16.57-4.48,2.09-9.57,1.3-13.16-1.63-1.93,2.72-3.68,5.51-5.21,8.34-3.47,6.41-5.64,12.62-6.4,18.13-.02.11-.03.22-.04.34-.04.29-.07.57-.1.86-.01.12-.02.24-.04.36-.03.29-.05.57-.06.86,0,.1-.01.2-.02.3-.02.38-.03.76-.04,1.13,0,0,0,0,0,0h0c-.02,1.36.06,2.66.25,3.89.9,6,3.8,11.15,7.33,15.46Z"/><path class="n" d="M109.58,139.17h0c-.11-1.83-.32-3.63-.6-5.36h0c-.5-3.08-1.22-5.96-1.92-8.47-3.42-12.23-11.76-22.79-20.27-25.67-3.66-1.24-7.43-1.53-10.91-.85-8.03,1.58-15.87,8.86-13.8,24.53,1.12,8.52,5.34,17.64,11.27,24.39,3.37,3.84,7.21,6.82,11.34,8.86,0,0,0,0,0,0,4.19-2.59,7.11-5.3,8.31-7.6.36-.69.64-1.41.86-2.17,0,0,0,0,0,0-11.69-2.99-18.34-16.9-19.42-25.11-.58-4.4-.38-9.83,3.85-10.66.43-.08.88-.13,1.35-.13,1,0,2.08.19,3.14.55,3.96,1.34,9.77,8.31,12.27,17.23,1.27,4.53,2.63,10.55,1.96,15.96,0,0,0,0,0,0,0,.06-.02.13-.03.19-.01.09-.02.17-.04.26-.05.33-.1.66-.17.99-.01.05-.02.1-.03.16-.07.33-.15.66-.23.98,0,.02,0,.04-.01.06,0,0,0,0,0,0,0,0,0,0,0,0-.28,1.02-.65,2-1.13,2.93-1.29,2.49-4,5.14-7.73,7.65,0,0,0,0,0,0,0,0,0,0,0,0-.38.26-.78.51-1.19.77-.09.06-.18.11-.26.17-.39.24-.79.48-1.19.72-.05.03-.09.05-.13.08,0,0,0,0,0,0-8.15,4.73-19.81,8.61-32.01,9.31-8.05.46-14.32.62-19.21.39,0,0,0,0,0,0-5.23,2.61-11.4,4.74-17.99,4.74-1.64,0-3.28-.14-4.87-.4-.26-.05-.53-.1-.8-.15,6.07,6.65,16.01,8.39,28.77,8.39,4.26,0,8.84-.2,13.69-.47-.14-1.24-.1-2.51.15-3.8,1.31-6.76,7.84-11.18,14.6-9.87,4.85.94,8.5,4.58,9.69,9.06,3.15-1.07,6.21-2.3,9.11-3.68,6.53-3.13,11.91-6.85,15.76-10.84.14-.14.27-.29.41-.43.14-.15.27-.29.4-.44.13-.14.25-.28.37-.42.13-.15.26-.31.39-.46.11-.14.23-.27.34-.41.13-.16.26-.33.38-.49.09-.12.18-.23.27-.35.82-1.09,1.51-2.19,2.09-3.3,2.8-5.39,3.47-11.26,3.15-16.81Z"/><path class="s" d="M120.62,101.73c2.39-4.33,6.98-6.67,11.61-6.42-.04-3.33-.26-6.62-.69-9.81-.96-7.24-2.87-13.56-5.51-18.48-.03-.06-.07-.12-.1-.18-.16-.29-.32-.57-.48-.85-.05-.09-.1-.17-.15-.26-.16-.27-.32-.53-.49-.79-.04-.07-.09-.14-.13-.21-.19-.29-.38-.58-.58-.85-.02-.03-.04-.06-.06-.1h0s0,0,0,0c0,0,0,0,0,0-.78-1.11-1.61-2.11-2.49-3-4.26-4.33-9.63-6.79-15.01-8.19h0s0,0,0,0c0,0,0,0,0,0-.03,0-.06-.02-.1-.02-.34-.09-.69-.17-1.03-.26-.15-.03-.3-.07-.44-.1-.28-.06-.56-.12-.84-.18-.11-.02-.21-.05-.32-.07-.38-.08-.76-.15-1.13-.21-.1-.02-.2-.03-.3-.05-.32-.06-.65-.11-.97-.16-3.14-.49-6.15-.71-8.8-.82-12.69-.53-25.3,4.14-30.68,11.34-4.25,5.7-5.44,12.55-3.18,18.33,1.76,4.5,6.33,10.32,18.06,12.49,8.45,1.56,18.42.37,26.68-3.18,4.69-2.02,8.71-4.74,11.93-8.04h0c-1.17-4.78-2.84-8.41-4.66-10.26-.54-.55-1.14-1.05-1.8-1.5,0,0,0,0,0,0-6.46,10.2-21.74,12.22-29.88,10.72-4.69-.87-7.87-2.61-8.72-4.78-.67-1.71-.07-4.14,1.56-6.32,2.37-3.17,10.06-6.37,18.74-6.37.48,0,.96,0,1.44.03,4.7.19,10.84.76,15.78,3.07,0,0,0,0,0,0,.03.02.07.03.1.05.12.06.25.12.37.18.27.13.53.27.79.41.09.05.17.1.26.15.2.12.4.24.6.36.08.05.16.09.24.15,0,0,0,0,0,0,.88.57,1.71,1.23,2.44,1.98,1.97,2,3.65,5.4,4.89,9.71.02.05.03.11.04.17.12.42.23.86.35,1.3.01.05.03.1.04.15.12.49.24.99.35,1.5,0,.03.01.06.02.09,0,0,0,0,0,0,1.97,9.21,2.06,21.49-1.05,33.3-2.05,7.8-3.84,13.81-5.56,18.38,0,0,0,0,0,0,1.09,7.25.98,15.54-2.94,23.08-.12.24-.25.47-.38.71,10.94-4.97,15.7-19.16,20.66-37.93-1.22-.25-2.42-.68-3.57-1.31-6.02-3.33-8.21-10.92-4.88-16.94Z"/><path class="r" d="M15.65,171.37c4.41,0,8.65-1.04,12.54-2.56h0c.54-.21,1.07-.43,1.59-.66.13-.06.26-.12.4-.17.42-.19.83-.38,1.24-.57.11-.05.22-.1.33-.15,3.31-1.6,6.29-3.44,8.81-5.12,10.57-7.03,18.04-18.22,18.16-27.21.09-7.11-2.97-13.35-8.2-16.7-4.07-2.61-11.19-4.63-21.95.51-7.75,3.7-15.12,10.53-19.72,18.26-2.61,4.39-4.26,8.96-4.92,13.52,3.76,3.18,7.24,5.13,9.8,5.56.62.1,1.26.16,1.93.16.14,0,.27,0,.4,0,0,0,0,0,0,0-.77-12.05,10.41-22.67,17.88-26.23,2.71-1.29,5.13-1.95,7.05-1.95,1.13,0,2.09.23,2.81.7,1.55.99,2.49,3.3,2.46,6.03-.05,4.18-4.89,11.86-12.59,16.99-4.06,2.7-9.61,6-15.17,6.9-.05,0-.09.02-.14.02-.15.02-.3.04-.44.06-.08.01-.15.02-.23.03-.15.02-.29.03-.44.05-.06,0-.12.01-.19.02-.21.02-.42.03-.64.04,0,0,0,0,0,0-1.06.05-2.11,0-3.14-.17-2.77-.46-6.13-2.22-9.67-4.99h0c-.05-.04-.1-.08-.15-.12-.17-.13-.34-.27-.51-.41-.12-.1-.23-.19-.35-.29-.1-.09-.21-.17-.31-.26-.13-.11-.26-.22-.4-.34-.1-.08-.19-.17-.29-.25-.11-.1-.23-.2-.34-.3-.06-.05-.11-.1-.17-.15,0,0,0,0,0,0-7.01-6.29-14.3-16.17-18.73-27.56-2.93-7.52-5.01-13.43-6.3-18.15h0c-5.15-5.23-9.93-12-11.19-20.4-.04-.27-.07-.54-.11-.81-5.94,10.45-1.44,24.74,5.58,42.84,1.13-.52,2.36-.87,3.66-1.04,6.83-.85,13.06,4.01,13.9,10.84.61,4.91-1.72,9.5-5.62,12.01,1.99,2.67,4.1,5.2,6.32,7.53,5.01,5.27,10.24,9.25,15.24,11.67.14.07.27.13.41.19.21.1.42.2.63.29.16.07.32.14.48.21.19.08.38.16.57.23.17.07.34.14.5.2.16.06.32.12.49.18.17.06.34.13.52.18,1.29.44,2.55.76,3.78.97,1.49.25,2.97.36,4.43.36Z"/><path class="o" d="M94.32,28.13c2.6-4.61,2.05-10.56-1.75-14.63-4.7-5.03-12.59-5.3-17.62-.6-1.42,1.32-2.46,2.9-3.11,4.6,7.53,2.35,14.95,5.78,21.55,10.03.31.2.62.4.93.6Z"/><path class="m" d="M74.35,30.52c4.7,5.03,12.59,5.3,17.62.6.96-.89,1.74-1.9,2.35-2.99-.31-.2-.62-.4-.93-.6-6.61-4.25-14.03-7.68-21.55-10.03-1.67,4.32-.86,9.41,2.52,13.02Z"/><path class="p" d="M132.23,95.32c-4.63-.26-9.21,2.09-11.61,6.42-3.33,6.02-1.15,13.61,4.88,16.94,1.15.63,2.35,1.07,3.57,1.31.09-.36.19-.71.28-1.07,2-7.59,2.97-15.71,2.88-23.6Z"/></svg>