<?xml version="1.0" encoding="UTF-8"?><svg id="d" xmlns="http://www.w3.org/2000/svg" viewBox="0 0 128 128"><defs><style>.f{fill:#f5a925;}.g{fill:#ff392e;}.h{fill:#f5b733;}.i{fill:#2388d6;}.j{fill:#ae6fc3;}.k{fill:#e6241e;}.l{fill:#1fa14c;}.m{fill:#9d51b2;}.n{fill:#32b85f;}.o{fill:#32a4e6;}</style></defs><path class="h" d="M43.83,15.01s-.05.08-.07.12c-.18.29-.36.58-.54.87-.05.08-.1.17-.15.25-.16.27-.31.54-.45.81-.04.07-.08.15-.12.22-1.18,2.19-2.08,4.39-2.79,6.31-3,8.07-2.63,17.18.88,22.16,2.78,3.94,6.95,6.14,11.15,5.89,3.27-.19,7.98-1.92,11.84-9.03,2.78-5.12,4.1-11.8,3.54-17.87-.32-3.45-1.24-6.62-2.69-9.39,0,0,0,0,0,0-.72-.05-1.42-.08-2.11-.08-2.96,0-4.61.51-5.48.94-.47.23-.92.52-1.34.85,0,0,0,0,0,0,5.23,6.3,3.33,16.58.65,21.51-1.54,2.84-3.33,4.53-4.91,4.62-1.25.07-2.68-.82-3.75-2.33-1.63-2.31-2.05-8.45.14-14.34,1.11-2.99,2.76-6.83,5.28-9.53,0,0,0,0,0,0,.04-.04.08-.08.11-.12.03-.03.05-.06.08-.08.17-.18.34-.35.52-.51.01-.01.02-.02.03-.03.19-.17.38-.34.58-.5.56-.45,1.16-.84,1.79-1.16,1.7-.85,4.25-1.23,7.29-1.12,0,0,0,0,0,0,0,0,0,0,0,0,.71.03,1.46.08,2.22.16,0,0,0,0,.01,0h0c6.35.66,14.29,3.17,21.25,7.65,4.6,2.96,8.1,5.37,10.69,7.44,4.9.81,10.23,2.62,14.27,6.73.13.13.25.26.38.4-.91-8.09-9.07-14.14-20.13-21.27-.41.73-.95,1.42-1.59,2.03-3.41,3.19-8.76,3.01-11.94-.4-2.29-2.45-2.84-5.9-1.71-8.83-2.15-.67-4.32-1.22-6.47-1.61-4.83-.89-9.27-.99-12.97-.33-.12.02-.24.04-.36.07-.15.03-.31.06-.46.09-.1.02-.2.04-.3.07-.18.04-.35.08-.52.13-.08.02-.15.04-.23.06-.2.05-.41.11-.6.17-.04.01-.09.02-.13.04h0c-.88.27-1.7.6-2.46.98-3.68,1.84-6.39,4.79-8.43,7.97Z"/><path class="j" d="M11.01,63.7s.02.03.03.04c.24.29.48.57.73.85.06.07.13.15.2.22.21.24.42.47.64.69.05.05.1.11.15.16,1.72,1.8,3.54,3.34,5.15,4.61,6.75,5.34,15.53,7.81,21.35,6.01,4.6-1.43,7.98-4.71,9.05-8.79.83-3.17.64-8.18-4.93-14.05-4.01-4.22-9.95-7.55-15.9-8.89-3.38-.76-6.67-.87-9.75-.34-1.26,3.09-1.79,5.74-1.53,7.48.08.52.21,1.03.39,1.54h0s0,0,0,0c7.6-3.02,16.79,1.96,20.66,6.03,2.23,2.34,3.27,4.57,2.88,6.1-.31,1.21-1.61,2.3-3.37,2.85-2.7.84-8.67-.66-13.59-4.56-2.5-1.98-5.64-4.74-7.43-7.97,0,0,0,0,0,0-.01-.03-.03-.05-.04-.08-.04-.07-.08-.15-.12-.23-.1-.18-.19-.37-.28-.56-.02-.05-.04-.09-.06-.14-.09-.21-.18-.41-.26-.62,0,0,0-.02-.01-.02,0,0,0,0,0,0-.25-.67-.44-1.36-.55-2.06-.28-1.88.14-4.42,1.19-7.28,0,0,0,0,0,0,0,0,0,0,0,0,.11-.31.23-.61.36-.93.02-.05.04-.1.06-.16.11-.28.23-.56.36-.84.02-.05.04-.09.06-.14,0,0,0,0,0,0,2.59-5.84,7.43-12.61,13.84-17.85,4.23-3.46,7.61-6.04,10.38-7.86,0,0,0,0,0,0,2.29-4.41,5.65-8.92,10.81-11.49.16-.08.33-.16.5-.24,0,0,0,0,0,0-7.98-1.64-16.25,4.26-26.45,12.57.57.62,1.06,1.34,1.43,2.14,1.98,4.23.15,9.26-4.08,11.23-3.04,1.42-6.49.88-8.92-1.11-1.31,1.84-2.49,3.73-3.53,5.65-2.35,4.34-3.82,8.55-4.34,12.29-.01.08-.02.15-.03.23-.02.2-.05.39-.07.58,0,.08-.02.16-.02.24-.02.2-.03.39-.04.58,0,.07,0,.14-.01.21-.01.26-.02.52-.03.77,0,0,0,0,0,0h0c-.01.92.04,1.8.17,2.64.61,4.07,2.58,7.56,4.97,10.48Z"/><path class="g" d="M102.35,89.87h0c-.07-1.24-.22-2.46-.41-3.63h0c-.34-2.09-.82-4.04-1.3-5.74-2.32-8.29-7.97-15.45-13.74-17.4-2.48-.84-5.04-1.04-7.4-.58-5.44,1.07-10.76,6-9.36,16.63.76,5.77,3.62,11.96,7.64,16.54,2.29,2.6,4.88,4.62,7.69,6.01,0,0,0,0,0,0,2.84-1.76,4.82-3.59,5.63-5.15.24-.47.43-.96.58-1.47,0,0,0,0,0,0-7.93-2.03-12.43-11.46-13.17-17.02-.39-2.99-.26-6.66,2.61-7.23.29-.06.6-.08.92-.08.68,0,1.41.13,2.13.37,2.68.91,6.62,5.63,8.32,11.68.86,3.07,1.78,7.15,1.33,10.82,0,0,0,0,0,0,0,.04-.01.09-.02.13,0,.06-.02.12-.02.18-.03.23-.07.45-.11.67,0,.04-.02.07-.02.11-.05.22-.1.45-.16.67,0,.01,0,.03,0,.04,0,0,0,0,0,0,0,0,0,0,0,0-.19.69-.44,1.36-.77,1.99-.88,1.69-2.71,3.49-5.24,5.19,0,0,0,0,0,0,0,0,0,0,0,0-.26.18-.53.35-.8.52-.06.04-.12.08-.18.11-.26.16-.53.33-.81.49-.03.02-.06.04-.09.05,0,0,0,0,0,0-5.53,3.2-13.43,5.84-21.7,6.31-5.46.31-9.71.42-13.02.26,0,0,0,0,0,0-3.54,1.77-7.72,3.21-12.19,3.21-1.11,0-2.22-.09-3.3-.27-.18-.03-.36-.06-.54-.1,4.12,4.51,10.85,5.69,19.5,5.69,2.89,0,5.99-.13,9.28-.32-.1-.84-.07-1.7.1-2.58.89-4.58,5.32-7.58,9.9-6.69,3.29.64,5.76,3.1,6.57,6.14,2.14-.72,4.21-1.56,6.18-2.5,4.43-2.12,8.08-4.64,10.69-7.35.09-.1.18-.19.28-.29.09-.1.18-.2.27-.3.09-.1.17-.19.25-.29.09-.1.18-.21.27-.31.08-.09.16-.18.23-.28.09-.11.17-.22.26-.33.06-.08.13-.16.18-.24.55-.74,1.03-1.49,1.42-2.24,1.9-3.65,2.35-7.63,2.14-11.4Z"/><path class="o" d="M109.84,64.5c1.62-2.93,4.73-4.52,7.87-4.35-.03-2.26-.18-4.49-.47-6.65-.65-4.91-1.94-9.2-3.74-12.53-.02-.04-.04-.08-.07-.12-.11-.2-.22-.39-.33-.58-.03-.06-.07-.12-.1-.18-.11-.18-.22-.36-.33-.54-.03-.05-.06-.09-.09-.14-.13-.2-.26-.39-.39-.58-.01-.02-.03-.04-.04-.06h0s0,0,0,0c0,0,0,0,0,0-.53-.75-1.09-1.43-1.69-2.04-2.89-2.93-6.53-4.6-10.18-5.55h0s0,0,0,0c0,0,0,0,0,0-.02,0-.04-.01-.07-.02-.23-.06-.47-.12-.7-.17-.1-.02-.2-.05-.3-.07-.19-.04-.38-.08-.57-.12-.07-.01-.14-.03-.21-.05-.26-.05-.51-.1-.77-.15-.07-.01-.14-.02-.2-.04-.22-.04-.44-.07-.66-.11-2.13-.33-4.17-.48-5.96-.55-8.6-.36-17.15,2.81-20.8,7.69-2.88,3.86-3.69,8.51-2.15,12.43,1.2,3.05,4.29,7,12.24,8.47,5.73,1.06,12.49.25,18.09-2.16,3.18-1.37,5.9-3.22,8.09-5.45h0c-.79-3.24-1.93-5.7-3.16-6.95-.37-.37-.78-.71-1.22-1.01,0,0,0,0,0,0-4.38,6.91-14.74,8.29-20.26,7.27-3.18-.59-5.33-1.77-5.91-3.24-.45-1.16-.05-2.8,1.06-4.29,1.61-2.15,6.82-4.32,12.7-4.32.32,0,.65,0,.98.02,3.19.13,7.35.52,10.7,2.08,0,0,0,0,0,0,.02.01.04.02.07.03.08.04.17.08.25.12.18.09.36.18.53.28.06.03.12.07.18.1.14.08.27.16.4.25.05.03.11.06.16.1,0,0,0,0,0,0,.6.39,1.16.84,1.65,1.34,1.33,1.35,2.48,3.66,3.32,6.58.01.04.02.08.03.11.08.29.16.58.23.88,0,.03.02.07.03.1.08.33.16.67.23,1.02,0,.02,0,.04.01.06,0,0,0,0,0,0,1.34,6.24,1.4,14.57-.71,22.57-1.39,5.29-2.6,9.36-3.77,12.46,0,0,0,0,0,0,.74,4.91.67,10.53-1.99,15.65-.08.16-.17.32-.26.48,7.41-3.37,10.64-12.99,14.01-25.71-.83-.17-1.64-.46-2.42-.89-4.08-2.26-5.56-7.4-3.31-11.48Z"/><path class="n" d="M38.68,111.71c2.99,0,5.86-.71,8.5-1.74h0c.36-.14.72-.29,1.08-.45.09-.04.18-.08.27-.12.28-.13.57-.25.84-.39.07-.03.15-.07.22-.1,2.24-1.08,4.27-2.33,5.97-3.47,7.17-4.77,12.23-12.35,12.31-18.45.06-4.82-2.02-9.05-5.56-11.32-2.76-1.77-7.58-3.14-14.88.34-5.26,2.51-10.25,7.14-13.37,12.38-1.77,2.98-2.89,6.07-3.34,9.17,2.55,2.16,4.91,3.48,6.64,3.77.42.07.86.11,1.31.11.09,0,.18,0,.27,0,0,0,0,0,0,0-.52-8.17,7.05-15.36,12.12-17.78,1.83-.88,3.48-1.32,4.78-1.32.77,0,1.41.16,1.91.47,1.05.67,1.69,2.24,1.66,4.09-.04,2.83-3.31,8.04-8.54,11.52-2.75,1.83-6.52,4.07-10.28,4.68-.03,0-.06.01-.09.02-.1.02-.2.03-.3.04-.05,0-.1.01-.16.02-.1.01-.2.02-.3.03-.04,0-.08,0-.13.01-.14.01-.29.02-.43.03,0,0,0,0,0,0-.72.04-1.43,0-2.13-.12-1.88-.31-4.16-1.5-6.55-3.38h0s-.07-.06-.1-.08c-.12-.09-.23-.18-.35-.28-.08-.06-.16-.13-.24-.2-.07-.06-.14-.12-.21-.18-.09-.08-.18-.15-.27-.23-.07-.06-.13-.11-.2-.17-.08-.07-.16-.14-.23-.21-.04-.03-.08-.07-.12-.1,0,0,0,0,0,0-4.75-4.27-9.69-10.96-12.69-18.68-1.99-5.1-3.4-9.1-4.27-12.3h0c-3.49-3.54-6.73-8.13-7.58-13.83-.03-.18-.05-.36-.07-.55-4.02,7.08-.97,16.77,3.78,29.04.77-.35,1.6-.59,2.48-.7,4.63-.57,8.85,2.72,9.42,7.35.41,3.33-1.17,6.44-3.81,8.14,1.35,1.81,2.78,3.52,4.28,5.1,3.4,3.57,6.94,6.27,10.33,7.91.09.04.19.09.28.13.14.07.29.13.43.2.11.05.22.1.33.14.13.05.26.11.39.16.11.05.23.09.34.14.11.04.22.08.33.12.12.04.23.09.35.13.87.3,1.73.52,2.56.66,1.01.17,2.01.25,3,.25Z"/><path class="g" d="M63.62,118.52c.41,3.56,3.08,6.61,6.79,7.33,4.58.89,9.01-2.11,9.9-6.69.25-1.29.19-2.57-.12-3.76-5.06,1.71-10.5,2.78-15.82,3.09-.25.01-.5.03-.75.04Z"/><path class="k" d="M73.62,109.25c-4.58-.89-9.01,2.11-9.9,6.69-.17.87-.2,1.74-.1,2.58.25-.01.5-.03.75-.04,5.31-.3,10.75-1.38,15.82-3.09-.8-3.04-3.28-5.5-6.57-6.14Z"/><path class="n" d="M7.96,81.99c-3.26,1.49-5.33,4.97-4.87,8.72.57,4.63,4.79,7.92,9.42,7.35,1.31-.16,2.5-.61,3.54-1.28-3.19-4.29-5.89-9.13-7.82-14.09-.09-.24-.18-.47-.27-.7Z"/><path class="l" d="M19.87,88.63c-.57-4.63-4.79-7.92-9.42-7.35-.88.11-1.71.35-2.48.7.09.23.18.47.27.7,1.93,4.96,4.63,9.8,7.82,14.09,2.64-1.7,4.22-4.82,3.81-8.14Z"/><path class="j" d="M24.92,18.24c.2-.16.39-.32.58-.48-2.43-2.64-6.38-3.53-9.8-1.93-4.23,1.98-6.05,7.01-4.08,11.23.56,1.19,1.36,2.19,2.31,2.97,3.09-4.36,6.86-8.42,10.98-11.79Z"/><path class="m" d="M22.86,31.14c4.23-1.98,6.05-7.01,4.08-11.23-.38-.8-.86-1.52-1.43-2.14-.19.16-.39.32-.58.48-4.12,3.37-7.89,7.43-10.98,11.79,2.44,1.98,5.89,2.53,8.92,1.11Z"/><path class="h" d="M92.01,14.6c1.76-3.13,1.39-7.16-1.19-9.92-3.19-3.41-8.53-3.59-11.94-.4-.96.9-1.66,1.97-2.11,3.12,5.1,1.59,10.13,3.92,14.61,6.8.21.14.42.27.63.41Z"/><path class="f" d="M78.47,16.22c3.19,3.41,8.53,3.59,11.94.4.65-.61,1.18-1.29,1.59-2.03-.21-.14-.42-.27-.63-.41-4.48-2.88-9.51-5.21-14.61-6.8-1.13,2.93-.58,6.38,1.71,8.83Z"/><path class="o" d="M121.33,61.19c-1.15-.64-2.39-.98-3.62-1.04.06,5.34-.6,10.85-1.95,16-.06.24-.13.49-.19.73,3.52.71,7.24-.89,9.07-4.2,2.26-4.08.78-9.23-3.31-11.48Z"/><path class="i" d="M117.71,60.15c-3.14-.17-6.25,1.42-7.87,4.35-2.26,4.08-.78,9.23,3.31,11.48.78.43,1.59.72,2.42.89.06-.24.13-.48.19-.73,1.35-5.15,2.01-10.65,1.95-16Z"/></svg>