<?xml version="1.0" encoding="UTF-8"?><svg id="n" xmlns="http://www.w3.org/2000/svg" viewBox="0 0 128 128"><defs><style>.t{fill:#12739b;}</style></defs><path id="o" class="t" d="M39.71,27.28c2.03,0,3.53.47,4.53,1.42.99.95,1.49,2.18,1.49,3.71s-.59,2.83-1.77,3.93c-1.18,1.1-2.12,1.65-2.83,1.65s-1.08-.35-1.13-1.05h0c-.09-1.2-.83-2.32-2.23-3.37-1.39-1.05-2.81-1.57-4.28-1.57h0c-3.72,0-7.52,1.87-11.38,5.62-3.86,3.75-6.95,8.04-9.26,12.88s-3.46,8.94-3.46,12.28.67,6.08,2.02,8.2c1.34,2.12,3.31,3.18,5.9,3.18h0c4.15,0,8.64-3.87,13.5-11.6h0c2.26-3.54,4.55-8.74,6.86-15.58h0c.85-2.44,1.3-3.7,1.34-3.75h0c.38-1.05.99-1.57,1.84-1.57h0c.42,0,.76.14,1.02.41s.39.6.39.98-.07.79-.21,1.24h0c-1.37,5.29-2.05,10.35-2.05,15.17s.78,8.82,2.33,12.02c1.56,3.19,3.63,4.79,6.22,4.79h0c1.32,0,2.5-.45,3.53-1.35h0c.33-.3.66-.45.99-.45h0c.56,0,.85.28.85.82h0c0,2.75-1.53,5.31-4.6,7.67s-6.1,3.56-9.12,3.56h0c-4.85,0-7.28-3.54-7.28-10.63h0c0-2.85.34-6.04,1.02-9.58.68-3.54,1.02-5.38,1.02-5.5s-.09-.19-.28-.19-.4.22-.63.67h0c-2.69,7.09-6.36,13.04-11.02,17.86-4.67,4.82-8.95,7.22-12.86,7.22s-6.72-1.6-8.41-4.79h0c-1.18-2.15-1.77-4.79-1.77-7.93h0c0-6.19,1.99-12.92,5.97-20.18,3.98-7.26,9.12-13.44,15.41-18.53,6.28-5.09,12.39-7.64,18.33-7.64h0Z"/><path id="p" class="t" d="M127.78,106.63l.22.7c-.79.58-1.65.98-2.56,1.19s-1.84.31-2.77.31h0c-3.19,0-6.02-.47-8.49-1.41-2.48-.94-4.65-2.24-6.52-3.89-1.87-1.65-3.46-3.59-4.78-5.82-1.31-2.23-2.41-4.64-3.28-7.22-.87-2.58-1.54-5.28-2.01-8.09-.47-2.81-.78-5.62-.94-8.42-.16-2.8-.2-5.54-.12-8.23.08-2.69.24-5.18.47-7.48h0c-.42.62-.93,1.62-1.53,2.99-.61,1.38-1.27,2.98-2.01,4.81-.73,1.84-1.5,3.84-2.29,6.02-.79,2.17-1.57,4.36-2.35,6.57-.78,2.21-1.54,4.38-2.27,6.51-.73,2.12-1.38,4.06-1.95,5.8-.57,1.75-1.06,3.22-1.46,4.44s-.67,2.04-.79,2.46h0c-.09.28-.21.63-.36,1.05-.15.42-.34.82-.56,1.22s-.48.73-.77,1.01c-.29.28-.62.42-.99.42h0c-.42,0-.76-.17-1.04-.51-.28-.34-.51-.74-.69-1.2-.17-.47-.31-.93-.41-1.4-.1-.46-.18-.83-.23-1.12h0c-.14-.98-.27-2.21-.38-3.69-.11-1.49-.21-3.14-.29-4.96s-.15-3.75-.2-5.8c-.05-2.06-.09-4.12-.12-6.21s-.06-4.12-.07-6.14c-.01-2.02-.02-3.9-.04-5.65-.01-1.76-.02-3.33-.02-4.73v-3.35h0c-.51,1.16-1.12,2.64-1.83,4.43-.71,1.79-1.48,3.8-2.31,6.04-.82,2.23-1.69,4.63-2.58,7.2-.89,2.57-1.78,5.21-2.65,7.93-.87,2.73-1.71,5.47-2.51,8.24-.8,2.76-1.51,5.45-2.14,8.06h0c-.07.23-.16.51-.27.85-.1.34-.24.66-.4.96-.16.3-.36.57-.61.79-.25.22-.55.34-.89.34h0c-.33,0-.61-.1-.87-.31s-.47-.46-.64-.75c-.18-.29-.31-.61-.42-.94-.1-.34-.17-.64-.2-.92h0c-.11-.58-.21-1.22-.29-1.92-.08-.69-.15-1.41-.21-2.14-.06-.73-.11-1.45-.16-2.16-.05-.71-.1-1.37-.14-1.97h0c-.25-3.19-.44-6.34-.54-9.45-.1-3.12-.16-6.25-.16-9.41h0c0-3.12.05-6.21.16-9.28.1-3.07.26-6.18.47-9.32h0c.07-.91.18-1.92.31-3.05.14-1.13.42-2.2.82-3.19.41-1,1-1.84,1.78-2.51.78-.67,1.84-1.01,3.19-1.01h0c.33,0,.6.08.83.23.23.15.35.41.35.78h0v.35c-.21,1.39-.42,2.79-.63,4.17-.21,1.38-.43,2.79-.67,4.24h0c-.56,4.65-1.03,9.3-1.41,13.93-.38,4.64-.57,9.31-.57,14h0c0,1.84.03,3.65.1,5.44.07,1.79.2,3.59.38,5.41h0c1.6-4.98,3.02-9.38,4.24-13.22,1.22-3.84,2.3-7.2,3.23-10.08.93-2.88,1.71-5.34,2.36-7.38.64-2.03,1.18-3.73,1.62-5.11.44-1.37.79-2.47,1.04-3.3.25-.82.47-1.46.63-1.91.16-.45.28-.79.35-.99.07-.21.14-.4.21-.56h0c.35-.79.83-1.5,1.43-2.13.61-.63,1.39-.94,2.34-.94h0c.64,0,1.18.16,1.59.49.41.33.73.74.96,1.22.23.49.39,1.02.47,1.61.08.58.12,1.12.12,1.6h0c-.05,3.6-.15,7.17-.31,10.69s-.3,7.02-.41,10.48c-.12,3.47-.17,6.91-.16,10.33.01,3.41.16,6.82.47,10.22h0c.93-2.74,1.79-5.33,2.59-7.76.79-2.43,1.54-4.75,2.25-6.96.71-2.21,1.39-4.34,2.06-6.38.66-2.05,1.35-4.07,2.06-6.07.71-2,1.45-4,2.22-6,.77-2,1.62-4.06,2.54-6.18h0c.21-.41.44-.84.7-1.27.25-.43.55-.82.87-1.17.33-.35.69-.64,1.12-.87.42-.23.88-.35,1.4-.35h0c.72,0,1.29.23,1.71.69.42.47.74,1.02.96,1.68.22.64.37,1.33.43,2.04.07.71.11,1.31.11,1.8h0c0,2.14-.07,4.5-.21,7.1-.14,2.59-.24,5.28-.3,8.07-.06,2.79-.03,5.62.09,8.47.12,2.86.43,5.63.94,8.31.51,2.67,1.27,5.17,2.27,7.49,1,2.33,2.35,4.36,4.04,6.09,1.7,1.73,3.79,3.1,6.29,4.1s5.51,1.5,9.02,1.5h0c.53,0,1.05-.04,1.55-.12s.98-.23,1.44-.43h0l-.02-.02Z"/></svg>