<?xml version="1.0" encoding="UTF-8"?><svg id="u" xmlns="http://www.w3.org/2000/svg" viewBox="0 0 128 128"><defs><style>.x{fill:#12739b;}</style></defs><path class="x" d="M85.53,126.32c.12.56.28,1.12.49,1.68h-20.38c.04-.09.07-.18.1-.27.14-.43.25-.79.34-1.08.79-3.3,1.69-6.7,2.71-10.2,1.02-3.51,2.08-6.98,3.18-10.43,1.1-3.44,2.22-6.79,3.36-10.05,1.13-3.24,2.22-6.28,3.26-9.11,1.05-2.82,2.03-5.38,2.92-7.64.9-2.27,1.66-4.14,2.32-5.61v4.24c0,1.77,0,3.76.02,5.99.02,2.21.03,4.59.05,7.15.01,2.54.04,5.13.08,7.76.05,2.64.09,5.25.16,7.86.06,2.6.14,5.05.24,7.35.11,2.3.23,4.39.37,6.28.15,1.88.32,3.43.49,4.67.06.36.16.83.29,1.41Z"/><path class="x" d="M117.62,125.36c.54.92,1.13,1.8,1.75,2.64h-28.67c.18-.36.34-.72.48-1.1.19-.54.34-.98.45-1.33.16-.53.49-1.57,1-3.11.51-1.54,1.13-3.42,1.85-5.63.73-2.21,1.55-4.66,2.47-7.35.93-2.69,1.89-5.44,2.88-8.24.99-2.79,1.97-5.56,2.98-8.31,1-2.76,1.96-5.3,2.89-7.62s1.77-4.36,2.54-6.1c.76-1.73,1.41-3,1.94-3.79-.29,2.92-.49,6.07-.6,9.47-.1,3.4-.05,6.87.16,10.42.2,3.55.6,7.11,1.19,10.66.59,3.56,1.43,6.98,2.54,10.25,1.1,3.26,2.49,6.31,4.15,9.14Z"/><path class="x" d="M128,0v128h-3.97c-1.25-1.63-2.29-3.44-3.14-5.41-1.26-2.94-2.22-6.1-2.87-9.48-.65-3.39-1.05-6.9-1.2-10.52-.14-3.62-.18-7.19-.11-10.73.07-3.53.2-6.93.38-10.21.17-3.29.26-6.29.26-8.99,0-.62-.05-1.38-.14-2.28-.08-.9-.26-1.76-.54-2.58-.29-.83-.69-1.54-1.22-2.13-.53-.58-1.25-.87-2.16-.87-.65,0-1.24.15-1.77.44-.54.29-1,.66-1.41,1.11-.42.44-.79.93-1.11,1.47-.32.55-.62,1.09-.88,1.61-1.18,2.69-2.25,5.29-3.22,7.83-.98,2.53-1.91,5.06-2.81,7.59-.9,2.53-1.77,5.09-2.61,7.68-.84,2.59-1.7,5.28-2.6,8.08-.9,2.8-1.85,5.74-2.85,8.81-1,3.08-2.09,6.35-3.27,9.82-.39-4.3-.58-8.61-.59-12.93-.02-4.33.04-8.69.2-13.08.14-4.38.31-8.8.52-13.26.2-4.46.33-8.98.39-13.54,0-.61-.04-1.29-.15-2.02-.1-.75-.3-1.43-.59-2.04-.3-.61-.7-1.13-1.22-1.55-.52-.41-1.19-.61-2.01-.61-1.21,0-2.19.39-2.96,1.19-.76.8-1.37,1.69-1.81,2.7-.09.2-.18.44-.26.7-.1.26-.24.69-.45,1.26s-.47,1.38-.8,2.42c-.31,1.05-.75,2.44-1.31,4.18-.57,1.74-1.25,3.89-2.06,6.46-.81,2.58-1.81,5.69-2.98,9.34-1.18,3.65-2.54,7.91-4.09,12.76-1.54,4.86-3.33,10.44-5.36,16.74-.24-2.3-.4-4.58-.49-6.85-.08-2.26-.13-4.56-.13-6.89,0-5.94.24-11.85.72-17.72.49-5.87,1.09-11.75,1.8-17.64.29-1.83.57-3.62.84-5.37s.53-3.52.8-5.28v-.45c0-.47-.16-.8-.45-.98-.3-.2-.65-.29-1.06-.29-1.71,0-3.05.42-4.04,1.27-.99.86-1.73,1.92-2.25,3.19-.51,1.26-.86,2.61-1.04,4.04-.17,1.43-.31,2.72-.4,3.86-.27,3.97-.47,7.91-.6,11.8-.13,3.88-.2,7.8-.2,11.74s.07,7.98.2,11.92c.13,3.95.37,7.93.69,11.97.05.77.12,1.6.18,2.5.05.89.12,1.81.2,2.73.07.93.15,1.83.26,2.71.1.9.22,1.7.37,2.44.03.35.11.74.24,1.17.02.06.04.11.06.17H0v-17.09c.38.03.77.04,1.17.04,4.94,0,10.36-3.04,16.26-9.13,2.95-3.05,5.59-6.46,7.91-10.22,2.32-3.76,4.33-7.88,6.03-12.36.3-.57.56-.85.8-.85s.36.08.36.24c0,.15-.43,2.47-1.3,6.95-.86,4.48-1.29,8.52-1.29,12.12,0,4.48.77,7.84,2.3,10.08,1.54,2.24,3.84,3.36,6.9,3.36,3.81,0,7.66-1.5,11.53-4.49,1.93-1.5,3.39-3.06,4.36-4.67.97-1.62,1.45-3.3,1.45-5.04,0-.69-.36-1.04-1.07-1.04-.42,0-.83.19-1.25.57-1.31,1.14-2.81,1.71-4.47,1.71-3.28,0-5.9-2.02-7.87-6.06-1.96-4.04-2.94-9.1-2.94-15.19,0-3.05.22-6.17.65-9.37s1.07-6.46,1.94-9.81c.17-.57.26-1.09.26-1.56s-.16-.88-.49-1.23c-.33-.35-.76-.52-1.3-.52-1.06,0-1.84.66-2.32,1.98-.03.03-.19.44-.47,1.23-.29.79-.69,1.97-1.23,3.51-1.46,4.32-2.91,8.13-4.36,11.41-1.44,3.28-2.88,6.04-4.31,8.28-3.07,4.89-6.03,8.56-8.87,11.01-2.85,2.44-5.58,3.67-8.2,3.67-3.27,0-5.76-1.35-7.46-4.03S.17,85.36.17,81.13s1.46-9.4,4.38-15.52c2.92-6.12,6.82-11.55,11.7-16.29,2.45-2.36,4.87-4.14,7.27-5.32,2.4-1.19,4.78-1.78,7.13-1.78,1.85,0,3.65.67,5.4,1.99,1.76,1.33,2.7,2.75,2.82,4.26.06.89.53,1.33,1.43,1.33s2.09-.7,3.58-2.09c1.49-1.38,2.23-3.04,2.23-4.97s-.62-3.48-1.88-4.68c-1.25-1.2-3.15-1.8-5.72-1.8-7.51,0-15.24,3.22-23.17,9.66-5.93,4.79-11.04,10.34-15.34,16.66V0h128Z"/></svg>