<?xml version="1.0" encoding="UTF-8"?><svg id="b" xmlns="http://www.w3.org/2000/svg" viewBox="0 0 128 128"><defs><style>.m{fill:#ff5a3c;}</style></defs><path d="M27.86,2.48v22.72c-8.14,3.64-15.31,9.07-21,15.79V2.48h21Z"/><path d="M51.86,55.1c13.23,0,24,10.77,24,24,0,6.41-2.5,12.44-7.03,16.97-4.53,4.53-10.56,7.03-16.97,7.03h-24v-24c0-8.29,4.19-15.88,11.21-20.32,3.82-2.41,8.24-3.68,12.79-3.68M51.86,34.1c-8.82,0-17.05,2.54-24,6.93-12.62,7.96-21,22.03-21,38.07v45h45c12.42,0,23.68-5.04,31.82-13.18,8.14-8.14,13.18-19.4,13.18-31.82,0-24.86-20.15-45-45-45h0Z"/><path class="m" d="M121.86,113.5c0,6.9-5.6,12.5-12.5,12.5-5.79,0-10.66-3.94-12.08-9.28-.27-1.03-.42-2.11-.42-3.22,0-5.92,4.12-10.88,9.65-12.17.91-.22,1.87-.33,2.85-.33,6.9,0,12.5,5.6,12.5,12.5Z"/></svg>