<?xml version="1.0" encoding="UTF-8"?><svg id="u" xmlns="http://www.w3.org/2000/svg" viewBox="0 0 128 128">
  <defs>
    <style>
      .x {
        fill: #ff5a3c;
      }
      .y {
        fill: #000000;
      }
    </style>
  </defs>
  <path class="y" d="M38.17,17.5v17.4c-6.23,2.79-11.72,6.95-16.08,12.09v-29.49h16.08Z" />
  <path
    d="M56.54,57.79c10.13,0,18.38,8.24,18.38,18.38,0,4.91-1.91,9.52-5.38,12.99-3.47,3.47-8.09,5.38-12.99,5.38h-18.38v-18.38c0-6.35,3.21-12.16,8.59-15.56,2.92-1.85,6.31-2.82,9.79-2.82M56.54,41.71c-6.75,0-13.06,1.94-18.38,5.31-9.66,6.1-16.08,16.87-16.08,29.15v34.46h34.46c9.51,0,18.13-3.86,24.37-10.09,6.23-6.23,10.09-14.85,10.09-24.37,0-19.04-15.43-34.46-34.46-34.46h0Z" />
  <path
    class="x"
    d="M110.14,102.51c0,5.28-4.29,9.57-9.57,9.57-4.43,0-8.16-3.02-9.25-7.11-.21-.79-.32-1.62-.32-2.47,0-4.53,3.15-8.33,7.39-9.32.7-.17,1.43-.25,2.18-.25,5.28,0,9.57,4.29,9.57,9.57Z" />
</svg>
