<?xml version="1.0" encoding="UTF-8"?><svg id="o" xmlns="http://www.w3.org/2000/svg" viewBox="0 0 128 128"><defs><style>.r{stroke:#d6ccad;stroke-width:4.59px;}.r,.s,.t,.u{fill:none;stroke-miterlimit:10;}.s{stroke:#4a4950;stroke-width:.92px;}.t{stroke:#b9c0d1;stroke-width:2.75px;}.u{stroke:#717888;stroke-width:1.83px;}</style></defs><path class="s" d="M48.82,13.41c-8.03,3.58-13.48,7.93-19.22,13.19-10.98,10.06-15.93,19.75-18.17,24.11-3.03,5.88-3.87,9.22-4.19,10.66-1.51,6.71-.63,13.16.14,18.45.8,5.51,1.36,9.37,4.23,15.1,1.21,2.42,4.82,9.42,12.41,14.68,7.48,5.18,14.7,6.34,23.94,6.64,8.21.27,20.97,0,30.32-3.41,10.42-3.8,16.18-8.49,22.72-14.85,4.43-4.32,9.89-10.78,14.59-20.01,2.15-4.21,5.57-11.12,6.29-20.79.29-3.86.74-11.1-2.62-19.4-1.26-3.1-3.49-8.45-8.74-12.93-3.42-2.93-7.41-4.34-15.38-7.16-6.73-2.39-12.36-3.74-16.25-4.54-6.18-1.27-10.33-2.13-16.08-2.1-3.19.02-8.16-.23-13.98,2.36Z"/><path class="t" d="M22.04,23.32c-3.07,2.38-4.77,4.88-5.24,5.59-.87,1.32-2.32,3.83-3.67,10.14-.63,2.92-1.68,8.76-1.57,17.3.06,4.56.34,8.9,1.12,12.86,1.17,5.97,4.1,12.08,8.14,18.59,10.26,16.54,17.5,24.25,27.61,25.19,1.8.17,7.32-.44,14.85-2.3,4.65-1.15,5.39-2.17,14.15-5.07,13.62-4.5,21.7-8.18,24.11-9.95,2.27-1.67,7.94-3.92,10.6-13.54,1.82-6.58.55-16.49-2.21-25.27-4.18-13.32-7.8-19.09-11.36-23.59-5.21-6.59-7.15-7.78-10.66-9.61-3-1.57-11.11-4.8-18.87-5.77-3.72-.46-5.75-.53-14.68-.58-11.65-.07-9.24-.35-14.68.16-4.93.46-11.65,1.18-17.65,5.84Z"/><path class="s" d="M34.48,35.44c-7.81,4.81-10.37,16.79-11.04,20.73-1.05,6.21-.77,12.52-.38,14.76,1.51,8.73,5.28,14.48,10.51,21.76,5.58,7.77,8.37,10.08,13.28,13.46,11.39,7.83,23.92,7.13,28.48,6.87,6.59-.37,15.45-.53,23.07-6.87,3.94-3.28,6.25-6.69,7.16-9.09,6.12-16.08,2.11-32.32,1.57-34.08-2.12-6.98-3.49-8.77-12.58-19.4-7.76-9.07-13.15-13.71-17.02-15.78-3.11-1.67-10.94-.82-21.4.42-7,.82-17.11,4.42-21.66,7.22Z"/><path class="u" d="M59.23,33.26c-3.58.41-9.43,1.17-16.05,5.96-4.44,3.21-6.7,6.76-9.09,10.48-6.17,9.65-7.6,18.86-8.39,24.29-1.15,7.95-1.73,11.93,0,16.43,1.16,3.03,3.81,7.58,17.13,14.85,16.73,9.14,26.97,10.22,35.43,7.56,8.76-2.76,12.07-6.59,18.74-18.57,2.41-4.32,4.27-9.93,6.12-18.52,1.67-7.77,2.93-21.9-2.26-31.52-.86-1.59-3.11-6.12-11.2-9.37-3.14-1.26-8.39-1.43-18.87-1.75-5.43-.17-9.4-.1-11.56.15Z"/><path class="r" d="M48.6,47.09c3.84-2.45,17.21-4.19,28.31-3.15,2.85.27,6.33,2.58,9.79,8.39,3.84,6.47,2.38,18.2.65,24.97-1.77,6.89-6.04,15.9-14.63,19.93-5.49,2.58-7.83,1.15-14.99-.33-6.75-1.39-15.9-6.43-20.15-10.43-5.28-4.96-3.73-12.61-3.43-14.77,1.09-8.03,3.86-14.06,6.43-17.28,1.6-2.01,4.26-4.94,8.04-7.34Z"/></svg>