<?xml version="1.0" encoding="UTF-8"?><svg id="w" xmlns="http://www.w3.org/2000/svg" viewBox="0 0 128 128">
  <defs>
    <style>
      .z {
        fill: #ee1940;
      }
    </style>
  </defs>
  <path
    class="z"
    d="M64,0C28.65,0,0,28.65,0,64s28.65,64,64,64,64-28.65,64-64S99.35,0,64,0ZM38.05,70.48c-.2.01-.52,0-.91-.01-.2.91-.63,3.03-.9,4.7-.69,4.18-5.07,4.18-6.51,4.18h-4.12l5.99-29.95.41-.02c3.04-.14,6.55-.22,9.91-.22,6.76,0,10.8,3.18,10.8,8.5,0,7.19-6.45,12.82-14.67,12.82ZM60.18,75.17c-.06.35-.68,4.18-5.1,4.18h-5.08l5.25-26.24c.23-1.29,1.48-3.73,4.46-3.73h5.61s-5.14,25.77-5.14,25.79ZM90.62,68.32c-1.55,7.62-6.87,11.64-15.39,11.64-4.21,0-7.27-1.05-9.07-3.11-1.86-2.11-2.38-5.32-1.57-9.46l3.61-18h9.33l-3.83,19.05c-.27,1.41-.17,2.42.36,3.02.44.51,1.24.77,2.35.76,3.06.01,4.45-1.26,5.13-4.7l2.8-13.94c.23-1.46,1.42-4.2,4.33-4.2h5.78s-3.83,18.94-3.83,18.94ZM103.33,55.89c-.06.34-.68,4.18-5.1,4.18h-3.16l1.52-7.18c.23-1.29,1.48-3.73,4.46-3.73h3.69s-1.41,6.71-1.41,6.73Z" />
  <path
    class="z"
    d="M42.99,58.61c0,2.02-1.6,4.12-4.26,4.18.18-.92,1.09-5.47,1.21-6.09.22-.01.44-.01.75-.01,1.9,0,2.3,1.04,2.3,1.93Z" />
</svg>
