<?xml version="1.0" encoding="UTF-8"?><svg id="u" xmlns="http://www.w3.org/2000/svg" viewBox="0 0 128 128">
  <defs>
    <style>
      .x {
        fill: #8e3146;
      }
      .y {
        fill: #a4d4e5;
      }
    </style>
  </defs>
  <circle class="y" cx="21.25" cy="88.83" r="8.57" />
  <circle class="y" cx="14.8" cy="64.19" r="8.57" />
  <circle class="y" cx="21.54" cy="39.63" r="8.57" />
  <circle class="y" cx="39.65" cy="21.73" r="8.57" />
  <circle class="y" cx="64.29" cy="15.29" r="8.57" />
  <circle class="y" cx="88.85" cy="22.02" r="8.57" />
  <circle class="y" cx="106.75" cy="40.14" r="8.57" />
  <circle class="y" cx="113.2" cy="64.77" r="8.57" />
  <circle class="y" cx="106.46" cy="89.33" r="8.57" />
  <circle class="y" cx="88.35" cy="107.23" r="8.57" />
  <circle class="y" cx="39.15" cy="106.94" r="8.57" />
  <circle class="y" cx="37.96" cy="90.2" r="6.14" />
  <circle class="y" cx="28.59" cy="73.74" r="6.14" />
  <circle class="y" cx="28.71" cy="54.79" r="6.14" />
  <circle class="y" cx="38.28" cy="38.45" r="6.14" />
  <circle class="y" cx="54.75" cy="29.07" r="6.14" />
  <circle class="y" cx="73.69" cy="29.19" r="6.14" />
  <circle class="y" cx="90.04" cy="38.76" r="6.14" />
  <circle class="y" cx="99.41" cy="55.23" r="6.14" />
  <circle class="y" cx="99.29" cy="74.17" r="6.14" />
  <circle class="y" cx="89.72" cy="90.52" r="6.14" />
  <circle class="y" cx="73.26" cy="99.89" r="6.14" />
  <circle class="y" cx="54.31" cy="99.77" r="6.14" />
  <circle class="y" cx="51.5" cy="86.84" r="4.42" />
  <circle class="y" cx="42" cy="77.6" r="4.42" />
  <circle class="y" cx="38.39" cy="64.84" r="4.42" />
  <circle class="y" cx="41.64" cy="51.98" r="4.42" />
  <circle class="y" cx="50.89" cy="42.48" r="4.42" />
  <circle class="y" cx="63.65" cy="38.87" r="4.42" />
  <circle class="y" cx="76.5" cy="42.12" r="4.42" />
  <circle class="y" cx="86" cy="51.37" r="4.42" />
  <circle class="y" cx="89.61" cy="64.13" r="4.42" />
  <circle class="y" cx="86.36" cy="76.98" r="4.42" />
  <circle class="y" cx="77.11" cy="86.49" r="4.42" />
  <path
    class="x"
    d="M64,45.44c-10.52,0-19.05,8.52-19.05,19.04s8.53,19.05,19.05,19.05,19.05-8.52,19.05-19.05-8.53-19.04-19.05-19.04ZM79.12,72.66s-.04.07-.05.12c-.88,1.6-5.63,9.42-14.76,9.42-.24,0-.47-.01-.71-.02-1.69-.07-10.4-.83-14.79-8.5-4.88-8.51.2-17.07.43-17.42,3.6-5.94,11.64-10.56,20.03-7.89,8.07,2.57,13.37,12.16,11.32,20.5-.33,1.36-.83,2.63-1.46,3.8Z" />
  <path
    class="x"
    d="M64.3,49.74c-5.67,0-10.7,3.44-13.24,7.63-.19.32-4.65,7.82-.39,15.25,2.88,5.03,7.93,6.66,10.91,7.18-3.33-1.06-6.36-3.33-8.43-6.39-2.1-3.11-2.72-7.07-1.69-10.86,1.08-3.99,3.77-7.27,7.38-9,4.3-2.06,9.81-1.35,13.72,1.75,3.16,2.51,4.85,6.46,4.42,10.32-.59,5.28-5.21,9.91-10.28,10.32-2.76.22-5.66-.81-7.95-2.82-1.66-1.46-2.81-3.25-3.31-5.17-.91-3.44.44-7.34,3.28-9.48,2.83-2.14,6.95-2.38,10.02-.58,2.96,1.74,4.37,5.06,3.51,8.25-.76,2.84-3.58,5.62-6.98,5.39-2.1-.15-4.01-1.45-4.86-3.32-.69-1.51-.61-3.38.2-4.89.7-1.3,1.84-2.13,3.22-2.34,1.33-.2,2.7.33,3.5,1.35.86,1.11.95,2.69.23,3.85-.51.81-1.39,1.39-2.45,1.63-.59.12-1.15-.24-1.28-.81-.13-.58.24-1.15.81-1.28.5-.11.9-.36,1.1-.68.24-.39.2-1-.11-1.39-.32-.41-.93-.63-1.48-.55-.89.14-1.39.75-1.66,1.24-.49.9-.54,2.1-.14,2.98.53,1.15,1.76,1.98,3.07,2.07,2.24.15,4.24-1.85,4.76-3.8.61-2.25-.41-4.6-2.53-5.85-2.34-1.38-5.48-1.19-7.64.44-2.16,1.64-3.19,4.61-2.5,7.23.4,1.5,1.31,2.92,2.66,4.1,1.86,1.63,4.18,2.47,6.37,2.29,4.11-.33,7.84-4.1,8.32-8.42.35-3.13-1.04-6.35-3.62-8.4-3.28-2.61-7.89-3.21-11.46-1.5-3.05,1.46-5.32,4.24-6.24,7.63-.86,3.19-.36,6.51,1.4,9.1,2.31,3.43,5.99,5.7,9.82,6.07,7.26.7,12.42-4.46,13.75-9.92,1.79-7.31-2.83-15.69-9.89-17.94-1.46-.46-2.9-.67-4.3-.67Z" />
  <path
    class="x"
    d="M64,117.44c-.59,0-1.07-.46-1.07-1.03v-32.97c0-.57.48-1.03,1.07-1.03s1.07.46,1.07,1.03v32.97c0,.57-.48,1.03-1.07,1.03Z" />
</svg>
