<?xml version="1.0" encoding="UTF-8"?><svg id="m" xmlns="http://www.w3.org/2000/svg" viewBox="0 0 128 128">
  <defs>
    <style>
      .p {
        fill: #5a84c3;
      }
      .q {
        fill: #3d5fa7;
      }
    </style>
  </defs>
  <path
    class="p"
    d="M43.49,90.78v-39.46l-1.64-9.54c-.26-1.54-1.73-2.56-3.27-2.3l-30.04,5.18c-1.54.26-2.56,1.72-2.3,3.26l8.52,49.37c.26,1.55,1.72,2.57,3.26,2.31l27.94-4.81c-1.45-.75-2.47-2.26-2.47-4.01ZM30.99,88.17c-.7.13-1.37.2-2.01.2-4.38,0-7.05-3.04-8.1-8.62l-3.57-18.87c-1.21-6.39.85-10.64,6.3-11.67,2.78-.53,5.11-.02,6.94,1.51,1.75,1.46,2.94,3.79,3.53,6.93l.67,4.11-6.71,1.27-.73-4.48c-.19-1.02-.51-1.73-.92-2.08-.21-.17-.57-.39-1.31-.24-.75.14-1.01.47-1.14.71-.25.48-.28,1.26-.09,2.27l3.71,19.6c.49,2.6,1.57,2.39,2.22,2.27.76-.14,1.02-.46,1.14-.69.25-.46.29-1.23.1-2.23l-.77-4.07,6.71-1.27.7,3.7c1.21,6.39-1.22,10.65-6.67,11.67Z" />
  <path
    class="p"
    d="M118.3,41.72l-30.23-3.92c-1.55-.2-2.97.9-3.17,2.44l-1.89,14.57v35.97c0,.92-.27,1.78-.74,2.49l28.86,3.75c1.55.2,2.97-.9,3.17-2.44l6.44-49.69c.2-1.55-.9-2.96-2.44-3.17ZM109.08,57.33l-.41,3.67-6.79-.57.43-4.04c.09-1.05,0-1.83-.29-2.27-.15-.23-.41-.5-1.14-.56-.62-.06-1.66-.14-1.89,2.54-.26,3.09,1.52,5.23,3.57,7.71,2.56,3.09,5.46,6.6,4.95,12.66-.52,6.09-3.63,9.5-8.59,9.5-.32,0-.64-.02-.98-.05-5.52-.47-8.38-4.46-7.83-10.93l.41-3.61,6.8.57-.45,3.98c-.08,1.02.03,1.79.33,2.22.15.21.43.5,1.21.57.66.06,1.76.15,1.99-2.49.26-3.09.07-5.38-2.25-7.61-2.99-2.88-6.31-6.68-5.79-12.76.27-3.18.73-5.62,2.31-7.25,1.65-1.71,3.91-2.45,6.7-2.21,5.46.47,8.28,4.45,7.73,10.93Z" />
  <path
    class="q"
    d="M78.49,37.86h-30.48c-1.55,0-2.83,1.26-2.83,2.83v50.1c0,1.56,1.27,2.83,2.83,2.83h30.48c1.26.02,2.43-.91,2.73-2.12.33-.9-.04-49.91.09-50.8,0-1.56-1.26-2.83-2.83-2.83ZM71.9,58.74h-6.82v-3.99c0-2.69-1.15-2.69-1.76-2.69s-1.77,0-1.77,2.69v19.95c0,2.65,1.11,2.65,1.77,2.65s1.76,0,1.76-2.65v-5.86h-1.5v-7.16h8.32v12.65c0,6.5-3.18,10.22-8.73,10.22s-8.72-3.72-8.72-10.22v-19.21c0-6.5,3.18-10.22,8.72-10.22s8.73,3.72,8.73,10.22v3.62Z" />
</svg>
