<?xml version="1.0" encoding="UTF-8"?><svg id="w" xmlns="http://www.w3.org/2000/svg" viewBox="0 0 128 128">
  <defs>
    <style>
      .z {
        fill: #af9a5e;
      }
    </style>
  </defs>
  <path
    class="z"
    d="M24.71,36.81H8.38v.13c.43.57.75,2.07.95,4.51.2,2.44.29,5.25.29,8.43v23.51c0,3.18-.1,5.99-.29,8.43-.2,2.44-.51,3.94-.95,4.51v.13h15.61c4.14,0,7.62-1.14,10.45-3.43,2.83-2.29,4.93-5.39,6.3-9.31s2.06-8.34,2.06-13.26c0-7.53-1.49-13.36-4.47-17.47-2.98-4.12-7.52-6.17-13.62-6.17ZM32.97,79.01c-2.11,4.31-5.52,6.47-10.22,6.47h-6.47v-47.62h6.47c8.93,0,13.39,7.53,13.39,22.6,0,8.06-1.06,14.24-3.17,18.55Z" />
  <path
    class="z"
    d="M55.02,73.39v-22.4h-7.9v.13c.43.57.75,2.07.95,4.51.2,2.44.29,5.25.29,8.43v9.34c0,3.18-.1,5.99-.29,8.43-.2,2.44-.51,3.94-.95,4.51v.13h9.14v-.13c-.44-.57-.75-2.07-.95-4.51-.2-2.44-.29-5.25-.29-8.43Z" />
  <path
    class="z"
    d="M51.69,41.71c1.22,0,2.18-.32,2.87-.95.7-.63,1.05-1.38,1.05-2.25,0-.83-.35-1.56-1.05-2.19-.7-.63-1.66-.95-2.87-.95s-2.24.32-2.94.95c-.7.63-1.05,1.36-1.05,2.19,0,.87.35,1.62,1.05,2.25.7.63,1.68.95,2.94.95Z" />
  <path
    class="z"
    d="M83.1,68.56l-4.38,13.26-6.66-18.55-.72-2.02c-.92-2.7-1.58-4.71-1.99-6.04-.41-1.33-.62-2.38-.62-3.17,0-.43.07-.74.2-.91v-.13h-8.16l8.3,23.19.72,2.02c.91,2.7,1.58,4.71,1.99,6.04.41,1.33.62,2.38.62,3.17,0,.39-.07.7-.2.92v.13h6.14l11.82-35.47h-5.23c0,8.06-.61,13.91-1.83,17.57Z" />
  <path
    class="z"
    d="M120.96,81.82c-.2-2.44-.29-5.25-.29-8.43v-6.2c0-5.05-1.08-9.12-3.23-12.21-2.16-3.09-5.65-4.64-10.48-4.64-2.79,0-6.01.57-9.67,1.7l1.18,3.27c3.66-2.74,6.66-4.12,9.01-4.12.97,0,1.86.54,2.56.96,2.07,1.25,2.95,3.59,3.89,10.06-1.63-.15-3.3-.12-4.94.14-5.73.8-10.12,3.9-12.67,6.72-.86.95-1.82,2.26-2.32,3.44-1.25,2.96-2.38,6.28-1.55,9.52.32,1.26,1.09,2.47,2.07,3.29,1.98,1.65,4.47,2.2,7.34,2.2,2.35,0,4.63-.58,6.83-1.73,2.2-1.15,3.95-2.82,5.26-5l.06-.1v5.78h7.9v-.13c-.44-.57-.75-2.07-.95-4.51ZM113.81,66.9v9.97c-.58,3.93-3.84,6.97-7.24,8-1.93.58-6.68,1.73-9.15-.21-.58-.46-1.01-1.08-1.29-1.84-.06-.29-.1-.6-.1-.92,0-2.38.57-4.83,1.55-7,.12-.26.25-.52.39-.77.4-.7.9-1.33,1.43-1.93.78-.89,1.57-1.73,2.52-2.43.84-.62,1.74-1.17,2.68-1.63,1.89-.92,3.95-1.45,6.05-1.55.55-.03,1.11-.02,1.66.01.15,0,1.13.19,1.5.31Z" />
</svg>
