<?xml version="1.0" encoding="UTF-8"?><svg id="m" xmlns="http://www.w3.org/2000/svg" viewBox="0 0 128 128">
  <defs>
    <style>
      .p {
        fill: #030304;
      }
    </style>
  </defs>
  <path
    class="p"
    d="M98.54,101.72v-37.88h-13.81v31.4c-6.58,4.67-14.45,7.13-22.69,7.02-10.22-.16-19.77-4.28-26.89-11.62-7.12-7.34-10.95-17.01-10.8-27.23.16-10.22,4.28-19.77,11.62-26.89,7.34-7.12,17.02-10.93,27.23-10.8,10.7.16,20.56,4.62,27.76,12.55l10.23-9.28c-9.65-10.63-23.42-16.86-37.78-17.08-.27,0-.54,0-.81,0-28.35,0-51.63,22.84-52.06,51.29-.21,13.91,5,27.07,14.69,37.06,9.69,9.99,22.68,15.6,36.59,15.82.27,0,.55,0,.82,0,13.45,0,26.14-5.08,35.88-14.35h0Z" />
</svg>
