<?xml version="1.0" encoding="UTF-8"?>
<svg xmlns="http://www.w3.org/2000/svg" viewBox="0 0 128 128">
<path d="M114.79,108.91v-45.09h-16.44v37.38c-7.84,5.56-17.2,8.49-27.01,8.36-12.17-.19-23.54-5.1-32.01-13.83-8.47-8.74-13.04-20.25-12.85-32.42.19-12.17,5.1-23.53,13.83-32.01,8.74-8.47,20.26-13.01,32.42-12.85,12.74.19,24.48,5.5,33.05,14.94l12.17-11.05c-11.49-12.66-27.88-20.07-44.97-20.33-.32,0-.64,0-.96,0C38.28,2,10.57,29.19,10.05,63.05c-.25,16.56,5.96,32.22,17.49,44.11,11.53,11.89,27,18.57,43.56,18.83.33,0,.65,0,.98,0,16.01,0,31.12-6.04,42.71-17.09h0Z"/></svg>