<?xml version="1.0" encoding="UTF-8"?><svg id="p" xmlns="http://www.w3.org/2000/svg" viewBox="0 0 128 128">
  <defs>
    <style>
      .x {
        fill: #dd1e21;
      }
    </style>
  </defs>
  <path
    class="x"
    d="M111.71,94.84H16.29c-3.96,0-7.18-3.22-7.18-7.17v-15.8c0-3.96,3.22-7.17,7.18-7.17h24.82v-10.76c0-3.96,3.22-7.18,7.18-7.18h31.42c3.96,0,7.18,3.22,7.18,7.18v10.76h24.82c3.96,0,7.18,3.22,7.18,7.17v15.8c0,3.96-3.22,7.17-7.18,7.17ZM20.05,83.91h87.9v-8.27h-24.82c-3.96,0-7.18-3.22-7.18-7.18v-10.76h-23.9v10.77c0,3.95-3.22,7.17-7.17,7.17h-24.83v8.27Z" />
  <path
    class="x"
    d="M56.09,31.92c-.55,0-1.1-.17-1.57-.51-.94-.68-1.34-1.89-.98-2.99l2.42-7.45-6.34-4.6c-.94-.69-1.33-1.89-.97-3,.36-1.11,1.38-1.85,2.55-1.85h7.83l2.42-7.45c.36-1.11,1.38-1.85,2.55-1.85s2.19.74,2.55,1.85l2.42,7.45h7.83c1.17,0,2.19.74,2.55,1.85.36,1.11-.03,2.31-.97,3l-6.34,4.6,2.42,7.44c.36,1.11-.03,2.32-.98,3-.94.69-2.21.68-3.15,0l-6.33-4.6-6.33,4.6c-.47.34-1.02.51-1.58.51ZM58.09,16.43l1.74,1.26c1.14.83,1.61,2.29,1.18,3.63l-.67,2.05,1.74-1.26c1.15-.83,2.68-.83,3.83,0l1.74,1.26-.66-2.04c-.44-1.34.04-2.8,1.18-3.64l1.74-1.26h-2.15c-1.41,0-2.65-.9-3.09-2.24l-.66-2.04-.66,2.04c-.44,1.35-1.68,2.25-3.1,2.25h-2.15ZM71.66,19.8h0s0,0,0,0ZM61.87,5.58s0,0,0,0h0Z" />
</svg>
