<?xml version="1.0" encoding="UTF-8"?><svg id="k" xmlns="http://www.w3.org/2000/svg" viewBox="0 0 128 128">
  <defs>
    <style>
      .m {
        fill: #385f3b;
      }
    </style>
  </defs>
  <path
    class="m"
    d="M46.2,40c-8.57,0-15.54-6.97-15.54-15.54s6.97-15.54,15.54-15.54,15.54,6.97,15.54,15.54-6.97,15.54-15.54,15.54ZM46.2,17.7c-3.73,0-6.76,3.03-6.76,6.76s3.03,6.76,6.76,6.76,6.76-3.03,6.76-6.76-3.03-6.76-6.76-6.76Z" />
  <path
    class="m"
    d="M90.67,106.79c-6.85,0-13.39-2.34-18.7-6.76-3.54-2.94-6.31-6.67-8.13-10.82-1.82,4.15-4.59,7.89-8.13,10.82-6.17,5.13-14,7.46-22.04,6.57-13.31-1.47-24.15-12.18-25.77-25.46-1.79-14.71,7.64-28.51,21.94-32.09,2.35-.59,4.74.84,5.33,3.19s-.84,4.74-3.19,5.33c-10.01,2.51-16.62,12.19-15.36,22.51,1.13,9.28,8.71,16.77,18.01,17.8,5.65.62,11.14-1.01,15.46-4.6,4.33-3.6,6.95-8.66,7.36-14.25.18-2.47,1.96-5.35,6.38-5.35s6.2,2.88,6.38,5.35c.41,5.59,3.03,10.65,7.36,14.25,4.32,3.59,9.82,5.22,15.47,4.6,9.41-1.04,17-8.62,18.04-18.03,1.18-10.67-5.81-20.34-16.26-22.47-2.38-.49-3.91-2.81-3.42-5.18.49-2.37,2.81-3.91,5.18-3.42,14.92,3.05,24.91,16.83,23.22,32.04-1.49,13.46-12.34,24.31-25.8,25.79-1.12.12-2.23.19-3.34.19Z" />
  <path
    class="m"
    d="M81.45,40c-8.57,0-15.54-6.97-15.54-15.54s6.97-15.54,15.54-15.54,15.54,6.97,15.54,15.54-6.97,15.54-15.54,15.54ZM81.45,17.7c-3.73,0-6.76,3.03-6.76,6.76s3.03,6.76,6.76,6.76,6.76-3.03,6.76-6.76-3.03-6.76-6.76-6.76Z" />
  <path
    class="m"
    d="M68.59,67.55l19.18-12.51c5.01-3.27,2.69-11.04-3.28-11.04h-41.34c-5.97,0-8.28,7.77-3.28,11.03l19.21,12.53c2.89,1.88,6.62,1.88,9.51,0Z" />
</svg>
