<?xml version="1.0" encoding="UTF-8"?><svg id="u" xmlns="http://www.w3.org/2000/svg" viewBox="0 0 128 128">
  <defs>
    <style>
      .x {
        fill: #385f3b;
      }
    </style>
  </defs>
  <path
    class="x"
    d="M35.8,24.3c-.95,0-1.91-.37-2.62-1.12-1.38-1.45-1.33-3.74.11-5.13,8.3-7.94,19.21-12.32,30.7-12.32s22.4,4.37,30.7,12.32c1.45,1.38,1.5,3.68.11,5.13-1.38,1.45-3.68,1.5-5.13.11-6.95-6.65-16.07-10.31-25.69-10.31s-18.74,3.66-25.69,10.31c-.7.67-1.6,1.01-2.51,1.01Z" />
  <path
    class="x"
    d="M49.43,62.01c-7.08,0-12.84-5.76-12.84-12.84s5.76-12.84,12.84-12.84,12.84,5.76,12.84,12.84-5.76,12.84-12.84,12.84ZM49.43,43.59c-3.08,0-5.58,2.5-5.58,5.58s2.5,5.58,5.58,5.58,5.58-2.5,5.58-5.58-2.5-5.58-5.58-5.58Z" />
  <path
    class="x"
    d="M86.16,117.18c-5.66,0-11.06-1.94-15.45-5.58-2.92-2.43-5.21-5.51-6.71-8.94-1.5,3.43-3.79,6.51-6.71,8.94-5.1,4.24-11.56,6.17-18.2,5.43-10.99-1.21-19.94-10.06-21.28-21.03-1.48-12.15,6.31-23.54,18.12-26.5,1.94-.49,3.91.69,4.4,2.64.49,1.94-.69,3.91-2.64,4.4-8.27,2.07-13.72,10.07-12.68,18.59.93,7.67,7.19,13.85,14.88,14.7,4.67.52,9.2-.83,12.77-3.8,3.58-2.97,5.74-7.15,6.08-11.77.15-2.04,1.62-4.42,5.27-4.42s5.12,2.38,5.27,4.42c.34,4.62,2.5,8.8,6.08,11.77,3.57,2.97,8.11,4.31,12.77,3.8,7.77-.86,14.04-7.12,14.9-14.89.98-8.82-4.8-16.8-13.43-18.56-1.96-.4-3.23-2.32-2.83-4.28.4-1.96,2.32-3.23,4.28-2.83,12.33,2.52,20.57,13.9,19.18,26.46-1.23,11.12-10.19,20.08-21.31,21.3-.92.1-1.84.15-2.76.15Z" />
  <path
    class="x"
    d="M78.54,62.01c-7.08,0-12.84-5.76-12.84-12.84s5.76-12.84,12.84-12.84,12.84,5.76,12.84,12.84-5.76,12.84-12.84,12.84ZM78.54,43.59c-3.08,0-5.58,2.5-5.58,5.58s2.5,5.58,5.58,5.58,5.58-2.5,5.58-5.58-2.5-5.58-5.58-5.58Z" />
  <path
    class="x"
    d="M68.75,84.23l12.07-7.87c5.01-3.27,2.69-11.04-3.28-11.04h-27.11c-5.97,0-8.28,7.77-3.28,11.03l12.1,7.89c2.89,1.88,6.62,1.88,9.51,0Z" />
</svg>
