<?xml version="1.0" encoding="UTF-8"?><svg id="x" xmlns="http://www.w3.org/2000/svg" viewBox="0 0 128 128">
  <defs>
    <style>
      .aa {
        fill: #76bf8f;
      }
      .ab {
        fill: #e74c27;
      }
    </style>
  </defs>
  <path
    class="aa"
    d="M44.15,12.06c.57-.83,1.55-1.14,2.89-.83,1.34.31,2.94.83,4.8,1.7,1.86.88,3.82,1.91,5.89,3.2,2.07,1.24,3.98,2.48,5.78,3.77,1.81,1.24,3.41,2.38,4.8,3.41,1.39,1.03,2.38,1.76,2.94,2.22.67.52,2.12,1.65,4.18,3.41,2.12,1.7,4.23,3.61,6.35,5.73,2.12,2.07,3.82,4.18,5.16,6.3,1.34,2.12,1.55,3.77.62,5.11-1.08,1.6-2.94,2.07-5.58,1.45-2.63-.62-5.37-1.7-8.26-3.3-2.89-1.6-5.63-3.36-8.21-5.21-2.58-1.86-4.44-3.25-5.63-4.18-.67-.52-1.65-1.34-2.84-2.43-1.24-1.08-2.48-2.32-3.82-3.72-1.34-1.39-2.63-2.89-3.98-4.49-1.34-1.6-2.48-3.15-3.46-4.6-.98-1.45-1.65-2.84-2.01-4.13-.36-1.29-.26-2.38.31-3.2l.05-.21Z" />
  <path
    class="ab"
    d="M31.81,62.86c0-1.03.67-1.86,1.91-2.48,1.24-.62,2.89-1.14,4.85-1.55,1.96-.41,4.13-.77,6.51-.98,2.38-.26,4.6-.41,6.76-.46s4.08-.1,5.78-.15h3.61c.88,0,2.63.05,5.27.21,2.63.1,5.42.36,8.31.77,2.89.41,5.42,1.03,7.64,1.96,2.22.93,3.3,2.17,3.3,3.77,0,1.96-1.29,3.46-3.72,4.6-2.43,1.14-5.32,1.91-8.52,2.32-3.2.46-6.4.72-9.55.77-3.15.05-5.42.05-6.87,0-.88,0-2.07-.1-3.67-.26-1.6-.15-3.3-.36-5.11-.72-1.86-.31-3.72-.72-5.73-1.24s-3.72-1.03-5.32-1.65c-1.6-.62-2.89-1.34-3.87-2.17-1.03-.83-1.5-1.76-1.5-2.79l-.1.05Z" />
  <path
    class="aa"
    d="M45.03,112.89c.36-1.29.98-2.63,1.91-4.13.93-1.45,2.01-2.99,3.3-4.6s2.53-3.1,3.82-4.49,2.48-2.63,3.67-3.72c1.19-1.08,2.12-1.91,2.74-2.48,1.14-.93,2.94-2.32,5.47-4.23,2.53-1.91,5.16-3.67,7.95-5.32,2.79-1.65,5.47-2.79,8.05-3.46s4.39-.21,5.47,1.29c.93,1.24.72,2.94-.52,5.01-1.24,2.07-2.89,4.18-4.96,6.3-2.07,2.12-4.08,4.03-6.14,5.73-2.07,1.76-3.41,2.89-4.08,3.41-.52.41-1.5,1.19-2.84,2.22-1.39,1.03-2.94,2.22-4.65,3.46-1.76,1.29-3.61,2.53-5.63,3.82-2.01,1.29-3.92,2.38-5.68,3.25-1.81.88-3.36,1.5-4.7,1.81s-2.27,0-2.89-.77c-.62-.77-.72-1.86-.36-3.15l.05.05Z" />
</svg>
