<?xml version="1.0" encoding="UTF-8"?><svg id="e" xmlns="http://www.w3.org/2000/svg" viewBox="0 0 128 128"><defs><style>.m{fill:#1d1d1b;}</style></defs><path class="m" d="M30.53,88.18c4.27-9.93,5.08-41.56-3.55-49.03-2.73-2.31-6.71-1.85-9.88-.79-5.86,2.04-9.46,7.79-11.34,13.46-.77,2.34-1.34,4.8-1.49,7.21,0,3.67-.34,7.5,1.4,10.81,1.67,3,5.41,5.27,8.86,4.6,2.32-.43,4.22-2.19,5.55-4.22.15-.23.46-.3.69-.14.23.15.29.46.15.69-.7,1.1-1.54,2.13-2.57,2.99-4.32,3.89-11.23,1.43-13.85-3.29-4.48-9.77-.45-25.7,8.43-31.94,3.3-2.32,7.5-3.43,11.52-2.9,4.26.67,7.42,4.38,9.12,8,2.38,4.89,3.07,10.15,3.55,15.28.44,5.16.43,10.33-.04,15.48-.22,2.5-1.91,18.39-5.9,16.07-.81-.45-1.09-1.47-.65-2.27h0Z"/><path class="m" d="M60.01,30.72c.57,1.28,0,3.13-.14,4.43-.83,4.37-2.03,8.68-3.56,12.87-3.09,8.17-8.1,16.95-16.85,19.97-2.88.98-6.28,1.2-8.97-.55-2.79-1.77-3.71-5.4-3-8.52.76-3.32,4.09-5.42,7.37-5.6,1.81.15,3.26.95,4.53,1.91,3.5,2.84,5.99,6.67,8.65,10.16,3.42,4.67,7.05,9.12,11.18,13.05,6.22,5.71,13.23,11.32,21.39,13.9,5.53,1.6,11.38,1.93,17.14,1.74,2.53-.13,5.86-1.49,6.36-4.21.26-3.87-7.86-4.15-10.62-4.01-7.23.69-13.7,4.46-19.99,7.91-5.04,2.89-10.13,5.8-15.66,7.8-3.47,1.3-7.34,1.85-10.98.83-2.51-.58-3.68-3.89-2.16-5.97,1.04-1.35,2.62-1.86,4.07-2.18,4.44-.95,8.82,1.17,12.96,2.41,2.76.96,5.5,1.97,8.19,3.13,7.87,3.74,16.34,5.82,25.09,5.6.74-.02.82,1.18,0,1.19-5.85,0-11.78-.66-17.37-2.54-2.8-.92-5.48-2.1-8.14-3.26-2.65-1.16-5.37-2.17-8.1-3.13-4.87-1.48-11.63-4.79-15.92-.64-.74.95-.6,2.6.09,3.53.77.97,2.25,1.26,3.63,1.41,2.88.35,5.67-.17,8.38-1.16,10.93-3.8,20.13-11.64,31.53-14.83,3.67-1.24,16.09-1.63,15.76,4.01-.61,3.25-4.13,4.7-7.07,4.92-7.29.32-14.87.06-21.77-2.59-6.8-2.92-13.06-6.98-18.54-11.98-4.41-4-8.03-8.72-11.45-13.45-2.57-3.43-4.72-7.21-7.93-10-1-.84-2.22-1.48-3.32-1.63-2.43.11-5.13,1.58-5.78,4.08-1.53,6.51,4.37,9.67,10.1,7.56,10.73-4.11,14.38-17.86,16.14-28.15.19-1.24.72-5.14.95-6.37.11-.71.31-1.42.82-2.08.79-1.06,2.56-.8,3.02.44h0Z"/><path class="m" d="M78.51,68.9c.83-3.96,1.7-7.93,2.85-11.83,1.54-5.42,2.97-11.76,7.55-15.64,2.58-2.53,6.15-.35,6.88,2.69.64,2.88-.31,5.91-.97,8.36-1.1,3.83-2.32,7.64-2.76,11.56-.18,2.71-.84,7.11,2.37,7.84,4.91.09,10.12-21.98,8.71-26.05,0,.07.21.2.37.23.29.03.24-.02.16.05l.25-.2c-.71,1-.34,3.01-.4,4.4.17,3.7-.08,7.71-.16,11.45.04,1.89-.08,10.54,3.4,7.73,1.3-1.14,2.18-2.85,2.91-4.53,1.22-2.95,2.15-6.08,2.58-9.23.04-.39.05-.88,0-1l.04.15c-.06-.17-.15-.32-.2-.41.02.1.51.33.75.27.21.01.52-.19.55-.24-.95,2.04-1.21,4.59-1.37,6.89-.07,2.31-.1,4.74.9,6.86.97,2.37,3.84,2.06,5.58.79,1.17-.88,1.87-2.19,2.31-3.57,1.55-5.66.83-11.53-3.51-16.02-3.47-3.64-6.74-9.6-3.69-14.47,1.17-1.57,3.06-2.27,4.95-2.3,2.26.23,3.81,2.25,4.18,4.32.47,1.89-.3,7.83-3.11,6.6-.89-.42-1.19-1.57-.63-2.37,1.47-2.01,2.13-5.81-.48-7.06-5.82-.2-5.17,6.66-2.19,9.8,3.39,3.72,8.11,6.77,9,12.19.92,5.23-1.31,11.48-6.23,13.91-2.39,1.05-5.51,1.11-6.91-1.43-2.19-3.63-2.87-8.16-1.87-12.28.39-1.23.64-2.82,1.84-3.66.26-.16.78-.19,1.05-.04.6.32.65.63.8.86.14.29.21.52.29.79-.01,3.9-2,7.68-3.61,11.14-1.17,2.04-3.66,7.1-6.57,4.91-.82-.87-1.1-1.86-1.46-2.81-.92-2.85-1.47-5.7-1.61-8.64,0,0-.11-2.7-.11-2.7.04-2.13-.35-6.58.1-8.65.24-1.06.64-2.35,1.61-3.17.74-.51,1.86-.31,2.2.57,1.8,4.06-5.07,28.85-10.54,28.03-6.75-.7-4.73-10.79-4.15-15.37.55-3.71,1.27-8.07,1.37-11.62-.1-1.12.04-1.71-.18-2.56-.53-1.58-2.16-.31-2.93.43-2.9,2.81-3.74,6.94-5.15,10.59-.98,2.75-2.06,5.8-2.61,8.67-.44,1.97-.85,3.94-1.16,5.94-.1.66-1.14.49-.98-.2h0Z"/><path class="m" d="M61.59,60.19c6.23,1.33,9.17-6.04,8.55-11.15-.09-1.24-.14-3.53-1.62-3.45-1.52.99-2.27,2.98-2.96,4.73-.53,1.5-1.01,3.02-1.34,4.56-.91,4.66-.43,9.71.28,14.29.55,2.14.45,4.68,2.27,6.14,4.13,2.34,7.26-2.88,8.7-6.11,1.4-3.06,2.19-6.4,2.53-9.76.06-.64,1.03-.56,1,.08-.2,3.49-1.06,6.94-2.5,10.16-1.47,3.17-4.03,6.23-7.52,7.18-3.89.55-7.44-3.21-8.3-6.73-1.82-7.05-1.44-14.79,2.11-21.17,1.33-2.04,2.77-4.54,5.28-5.43,4.15-.43,5.45,4.93,4.96,8.14-.59,5.56-5.6,12.04-11.66,9.23-.4-.16-.22-.8.2-.71h0Z"/><path class="m" d="M81.79,49.5c-.58,5.82-1.51,12.96-2.15,18.79-.23,2.08-.47,4.16-.64,6.22-.02.28-.27.48-.54.46-.25-.02-.44-.22-.46-.47-.13-2.11-.19-4.2-.27-6.29-.1-3.13-.27-9.42-.34-12.54-.05-1.76-.09-4.53-.18-6.21-.09-3.24,4.73-3.2,4.58.04h0Z"/><path class="m" d="M105.3,37.4c-1,1-2.37,1.2-3.3.6s-.78-2.67-.18-3.59,2.25-2.01,3.18-1.41,2.01,2.69.3,4.4Z"/></svg>