<?xml version="1.0" encoding="UTF-8"?>
<svg xmlns="http://www.w3.org/2000/svg" viewBox="0 0 128 128">
<path d="M89.08,85.97c-4.24,1.19-8.18,3.02-12.02,5.05-6.68-2.91-12.55-7.7-17.86-12.56-4.13-3.93-7.75-8.39-11.18-13.05-.45-.59-.9-1.19-1.34-1.8,4.49-4.12,7.51-9.99,9.62-15.58,1.53-4.19,2.73-8.5,3.56-12.87.15-1.3.71-3.15.14-4.43-.45-1.24-2.23-1.5-3.02-.44-.52.66-.71,1.37-.82,2.08-.22,1.23-.76,5.14-.95,6.37-1.33,7.77-3.75,17.52-9.48,23.59-1.89-2.55-3.87-5.07-6.37-7.09-.85-.65-1.8-1.21-2.88-1.57-.52-3.41-1.35-6.81-2.93-10.04-1.7-3.62-4.86-7.33-9.12-8-4.02-.53-8.22.58-11.52,2.9C4.05,44.77.02,60.7,4.5,70.47c2.62,4.72,9.53,7.19,13.85,3.29,1.03-.86,1.87-1.89,2.57-2.99.15-.23.08-.54-.15-.69-.23-.15-.54-.09-.69.14-1.33,2.03-3.23,3.79-5.55,4.22-3.45.67-7.19-1.6-8.86-4.6-1.74-3.31-1.4-7.14-1.4-10.81.15-2.41.72-4.87,1.49-7.21,1.88-5.67,5.49-11.42,11.34-13.46,3.17-1.05,7.15-1.51,9.88.79,2.99,2.59,4.84,8.07,5.82,14.54-2.51.76-4.71,2.62-5.31,5.23-.71,3.11.21,6.75,3,8.52.97.63,2.03,1,3.13,1.17-.21,8.05-1.36,15.57-3.09,19.57-.43.8-.16,1.82.65,2.27,3.99,2.32,5.68-13.56,5.9-16.07.18-1.95.27-3.91.32-5.87.7-.13,1.39-.31,2.06-.53,1.95-.67,3.71-1.65,5.31-2.82.41.58.81,1.15,1.24,1.71,3.42,4.73,7.04,9.45,11.45,13.45,5.29,4.82,11.3,8.76,17.82,11.65-3.54,1.93-7.03,3.97-10.62,5.76-.98-.36-1.95-.72-2.93-1.06-4.15-1.24-8.53-3.36-12.96-2.41-1.45.32-3.02.83-4.07,2.18-1.52,2.07-.36,5.39,2.16,5.97,3.63,1.02,7.5.46,10.98-.83,2.25-.81,4.42-1.78,6.55-2.83,1.72.64,3.43,1.3,5.11,2.04,2.66,1.16,5.35,2.34,8.14,3.26,5.59,1.88,11.53,2.54,17.37,2.54.82,0,.74-1.21,0-1.19-8.75.22-17.22-1.86-25.09-5.6-1.4-.6-2.82-1.17-4.24-1.7,2.65-1.36,5.24-2.84,7.82-4.32.87-.48,1.74-.96,2.62-1.44,6.87,2.61,14.41,2.87,21.66,2.55,2.94-.22,6.47-1.67,7.07-4.92.33-5.64-12.09-5.25-15.76-4.01ZM28.98,59.32c.5-1.92,2.2-3.22,4.07-3.78.46,3.78.64,7.81.59,11.77-3.36-.77-5.68-3.62-4.66-7.99ZM39.08,66.88c-.55.2-1.1.34-1.65.45.03-2.81-.07-5.61-.31-8.42-.09-.96-.19-1.93-.31-2.9.44.25.87.54,1.26.87,2.32,2.02,4.09,4.57,5.87,7.12-1.44,1.19-3.04,2.19-4.87,2.89ZM57.55,100.8c-2.71.99-5.49,1.51-8.38,1.16-1.38-.15-2.86-.44-3.63-1.41-.69-.92-.82-2.58-.09-3.53,4.3-4.15,11.05-.83,15.92.64.66.23,1.31.48,1.97.72-1.89.9-3.82,1.73-5.8,2.42ZM97.74,94.09c-5.75.19-11.6-.14-17.14-1.74-.91-.29-1.81-.62-2.69-.98,4.92-2.62,10.02-4.97,15.57-5.5,2.75-.14,10.88.14,10.62,4.01-.5,2.72-3.83,4.08-6.36,4.21Z"/>
<path d="M125.33,56.19c-.9-5.42-5.61-8.47-9-12.19-2.99-3.14-3.64-10.01,2.19-9.8,2.61,1.24,1.94,5.05.48,7.06-.56.81-.25,1.95.63,2.37,2.81,1.22,3.58-4.72,3.11-6.6-.37-2.08-1.92-4.1-4.18-4.32-1.89.03-3.78.74-4.95,2.3-3.05,4.87.22,10.83,3.69,14.47,4.35,4.49,5.06,10.36,3.51,16.02-.43,1.38-1.14,2.69-2.31,3.57-1.74,1.27-4.61,1.58-5.58-.79-.81-1.73-.94-3.68-.92-5.59,1.21-2.66,2.29-5.46,2.3-8.33-.07-.27-.15-.5-.29-.79-.14-.24-.2-.54-.8-.86-.27-.15-.79-.12-1.05.04-1.21.84-1.45,2.43-1.84,3.66-.57,2.33-.58,4.79-.1,7.14-.18.48-.35.97-.55,1.44-.72,1.68-1.61,3.39-2.91,4.53-3.48,2.81-3.35-5.84-3.4-7.73.03-1.63.1-3.32.15-5.01,1.39-5.26,2.05-10.15,1.33-11.77-.34-.88-1.46-1.09-2.2-.57-.98.82-1.38,2.11-1.61,3.17-.45,2.07-.06,6.52-.1,8.65,0,0,.11,2.7.11,2.7.02.48.07.96.12,1.44-1.74,6.03-4.28,11.55-6.74,11.51-3.2-.73-2.55-5.13-2.37-7.84.44-3.92,1.66-7.73,2.76-11.56.66-2.46,1.6-5.48.97-8.36-.72-3.05-4.3-5.22-6.88-2.69-4.59,3.87-6.01,10.22-7.55,15.64-.25.85-.48,1.71-.71,2.56.41-3.49.83-7.01,1.14-10.14.14-3.25-4.67-3.28-4.58-.04.09,1.68.14,4.45.18,6.21.04,1.68.11,4.29.18,6.82-.43,2.32-1.11,4.59-2.09,6.73-1.44,3.23-4.56,8.45-8.7,6.11-1.82-1.46-1.73-4-2.27-6.14-.38-2.45-.69-5.04-.76-7.64,4.95.44,8.79-5.06,9.3-9.87.5-3.2-.81-8.57-4.96-8.14-2.51.89-3.95,3.4-5.28,5.43-3.56,6.38-3.93,14.12-2.11,21.17.86,3.52,4.41,7.29,8.3,6.73,3.48-.95,6.05-4.02,7.52-7.18.45-1.02.85-2.07,1.18-3.13.02.61.04,1.17.05,1.65.07,2.09.13,4.18.27,6.29.01.24.21.45.46.47.28.02.52-.18.54-.46.17-2.06.41-4.15.64-6.22,0-.03,0-.07.01-.1.29-1.69.62-3.36,1-5.03.55-2.87,1.63-5.91,2.61-8.67,1.41-3.65,2.25-7.78,5.15-10.59.78-.73,2.41-2.01,2.93-.43.22.84.08,1.44.18,2.56-.09,3.55-.82,7.92-1.37,11.62-.58,4.58-2.6,14.67,4.15,15.37,2.42.37,5.12-4.29,7.21-9.95.27,1.51.65,3.01,1.13,4.51.36.94.64,1.94,1.46,2.81,2.9,2.2,5.4-2.87,6.57-4.91,0-.02.02-.04.03-.06.37,1.13.86,2.23,1.47,3.24,1.4,2.55,4.53,2.49,6.91,1.43,4.92-2.44,7.15-8.69,6.23-13.91ZM64.22,54.89c.32-1.55.8-3.06,1.34-4.56.69-1.74,1.44-3.73,2.96-4.73,1.49-.08,1.53,2.21,1.62,3.45.55,4.48-1.66,10.71-6.42,11.26,0-1.83.15-3.65.5-5.42Z"/>
<path d="M102,38c.93.6,2.3.4,3.3-.6,1.71-1.71.63-3.8-.3-4.4s-2.57.48-3.18,1.41c-.6.93-.75,2.99.18,3.59Z"/></svg>