<?xml version="1.0" encoding="UTF-8"?><svg xmlns="http://www.w3.org/2000/svg" viewBox="0 0 128 128">
  <defs>
    <style>
      .z {
        fill: #86af1d;
      }
    </style>
  </defs>
  <path
    class="z"
    d="M82.6,90.93c.1-2.55-1.91-4.15-4.34-4.28-10.66-.37-19.82,13.85-25.42,21.19h0c0-.07-.61.74-1.47,2.02.43-2.01.95-4.19,1.28-6.04.59-3.33,1.44-10.36,2.54-15.53.99-4.84,1.89-9.78,2.99-14.52.66-2.86,1.57-5.5,2.09-8.44.24-1.3.46-2.6.66-3.91.14-1.52.36-3.01-.61-4.39,0,0,0,0-.01,0l.14-.2c4.45-6.57,7.54-10.92,10.02-14.41,4.03-5.67,6.06-8.52,8.67-13.63,3.55-6.94,4.23-12.7,1.9-17.53-1.87-3.87-5.68-7.06-10.69-8.19-.17-.04-.35-.08-.53-.12-5.33-1.06-9.78.03-13.15,3.01-4.01,3.56-5.96,9.47-5.37,17.27.53,7.01,1.27,10.12,2.88,16.94.87,3.68,2.06,8.72,3.63,16.14l.05.23c-1.42.91-2.19,2.06-2.64,3.51-.32,1.28-.61,2.57-.9,3.87-.66,3.07-1.03,6.31-1.53,9.41-1.19,7.34-2.34,14.58-4.15,21.81-1.38,5.79-2.96,11.54-4.03,17.4-.44,2.39-1.06,6.44-.26,8.79.39,1.15,2.44,2.49,3.71,1.21,1.06-.8,1.94-2.43,2.27-3.41.68-1.93.99-4.04,2.03-5.93,3.14-5.46,15.66-26.39,23.2-20.99,3.4,5.3-7.45,12.12-11.04,14.89-1.88,1.38-4.79,2.42-5.6,4.15-1.22,3.41,3.58,6.33,6.74,8.41,2.27,1.25,4.04,2.46,6.36,2.47,1.23-.21,3.58-2.1,3.45-3.8-.08-.45-.7-.71-1.22-1-.53-.29-1.06-.57-1.59-.85-1.46-.89-10.21-4.75-9.16-6.54,6.57-4.47,19.06-9.34,19.11-18.99ZM76.9,9.83c.58.67,1.07,1.41,1.46,2.21,1.92,3.98,1.78,8.5-1.34,14.6-2.52,4.92-4.97,8.92-8.92,14.48-.91,1.28-1.92,2.26-3.02,3.83,1.75-3.86,3.12-6.77,4.31-9.31,2.07-4.4,3.43-7.31,5.11-11.58,2.33-5.91,3.12-10.68,2.4-14.22ZM70.65,6.2c1.25.49,2.15,1.27,2.75,2.37,1.54,2.83.99,7.81-1.61,14.42-1.64,4.18-2.99,7.05-5.04,11.4-.84,1.8-1.83,3.9-3.01,6.47l6.91-34.66ZM64.31,6.81c.97-.78,2.12-1.18,3.43-1.18.01,0,.03,0,.04,0l-6.95,34.84c-.09-2.32-.18-4.26-.25-6.02-.22-4.89-.36-8.12-.3-13.77.08-7.01,1.47-11.81,4.02-13.87ZM57.01,39.48c-1.62-6.87-2.39-9.99-2.91-16.77-.52-6.85,1.04-11.74,4.34-14.67.66-.59,1.39-1.07,2.18-1.46-2.08,3.01-3.18,7.72-3.25,14.07-.07,5.73.08,8.99.3,13.93.11,2.54.24,5.46.38,9.34-.39-1.68-.73-3.14-1.04-4.44Z" />
</svg>
