<?xml version="1.0" encoding="UTF-8"?><svg id="u" xmlns="http://www.w3.org/2000/svg" viewBox="0 0 128 128">
  <defs>
    <style>
      .x {
        fill-rule: evenodd;
      }
    </style>
  </defs>
  <path
    class="x"
    d="M23.52,86.03c-2.88-1.86-5.48-4.13-7.71-6.73-.82-.88-1.65-1.73-2.47-2.6-.32-.47-.97-.59-1.44-.27-.06.04-.13.1-.18.16-1.29,1.05-2.79,1.82-4.4,2.24-1.12.28-2.47.56-3.25-.63s-.26-2.31.45-3.36c1.65-2.25,4.57-3.16,7.2-2.24,1.65.5,1.7.54,2.67-.79,1.35-1.85,2.68-3.7,4-5.55,1.03-1.38,1.99-2.81,2.87-4.28-2.04,1.04-4.24,1.75-6.5,2.1-.46.04-.92.04-1.38,0-1.85-.35-2.73-1.26-2.55-3.12.36-3.14,2.13-5.96,4.82-7.64.79-.56,1.75-.22.94.63-1.45,1.4-2.64,3.06-3.48,4.9-.56,1.04-.18,2.33.86,2.88.36.19.76.28,1.16.25,1.61.04,3.2-.22,4.71-.79,1.82-.62,3.35-1.87,4.31-3.52,3.36-5.57,7.71-10.49,12.81-14.52,1.39-1.1,2.98-1.91,4.69-2.38,1.98-.2,2.8.85,1.85,2.62-.76,1.36-1.69,2.62-2.76,3.77-3.09,3.36-6.55,6.37-10.31,8.97-2.74,1.86-5.1,4.22-6.97,6.95-2.41,3.59-5.21,6.84-7.97,10.2-.71.9-.73.85.08,1.76,1.79,2.02,3.56,4.06,5.38,6.05,1.6,1.93,3.7,3.38,6.07,4.19,2.17.81,4.61-.04,5.79-2.03.41-.64.95-1.35.34-2.15-.67-.64-1.73-.62-2.38.04,0,0-.01.01-.02.03-.69.69-1.32,1.44-1.88,2.24-.17.2-.45.56-.67.48s-.28-.6-.22-.82c.19-.73.58-1.39,1.12-1.91.7-.72,1.61-1.21,2.6-1.39,2.11-.29,3.21.92,2.6,2.94-.98,2.48-3.25,4.21-5.9,4.49-1.71.06-3.4-.36-4.89-1.19h0ZM28.01,56.6c2.13-1.12,8.86-6.73,12.42-10.73.67-.79,1.26-1.63,1.79-2.52,1.04-1.61-1.28-1.64-3.68.25-3.87,3.02-8.48,10.16-10.56,13.01h.03ZM6.43,77.78c1.74-.49,3.35-1.37,4.71-2.55.17-.15.18-.41.03-.57,0,0-.01-.02-.03-.03-.95-.84-2.26-1.13-3.48-.76-1.33.3-2.39,1.33-2.74,2.66-.22,1.01.37,1.45,1.51,1.23v.03s0,0,0,0ZM39.39,71.75c-1.88,1.45-5.83,5.31-9.55,5.83-1.35.18-2.02-.34-1.99-1.68.04-1.19.27-2.36.67-3.48,1.12-3.12,3.14-6.82,5.11-8.44,1.12-.94,1.44.25,1.12.88-.81,1.38-3.5,5.94-4.43,9.55-.31,1.26.06,1.64,1.35,1.3.6-.15,1.18-.39,1.7-.72,2.8-1.72,5.32-3.83,7.51-6.28.34-.37.64-.79.9-1.23,3.06-5.72,6.54-11.21,10.43-16.41,1.92-2.43,6.11-7.59,8.37-8.71,1.28-.65,2.24-.11,2.17,1.31-.1,1.33-.48,2.63-1.12,3.81-1.97,3.5-4.38,6.73-7.17,9.61-2.73,2.92-5.6,5.72-8.52,8.43-1.4,1.39-2.5,3.06-3.21,4.9-.66,1.45-1.21,2.95-1.64,4.49-.34,1.31.18,1.79,1.5,1.41,1.12-.28,2.18-.74,3.14-1.38,2.57-1.74,5.04-3.62,7.42-5.6,1.11-1.2,2.12-2.48,3.02-3.83.6-.71,1.3-1.34,2.07-1.86,1.12-.76,1.45.19.92,1.04-1.2,1.91-2.53,3.7-3.63,5.6-.69,1.3-1.21,2.69-1.54,4.14-.45,1.75.45,2.47,2.17,1.91.39-.11.79-.3,1.12-.45,1.59-.64.97.5.34.83-.71.4-1.46.72-2.24.94-2.77.74-4.22-.63-3.74-3.48.09-.6.64-2.31.67-2.55-.22.16-.51.34-.72.48-2.39,2.08-5.03,3.87-7.85,5.31-.88.42-1.83.69-2.8.82-1.21.27-2.41-.48-2.69-1.68-.09-.39-.07-.8.05-1.18.27-1.21.73-2.39,1.12-3.59l.08-.04h-.12s.01.01.01.01ZM46.79,63.21l1.61-1.45c4.85-4.26,9.02-9.26,12.33-14.8.41-.7.73-1.45.93-2.24.17-.64-.11-2.13-1.45-.9-.62.55-1.18,1.16-1.68,1.82-2.17,2.85-4.26,5.66-6.2,8.61-1.94,2.95-3.7,5.98-5.6,8.97h.07ZM109.34,50.99c-1.32-.02-2.64-.15-3.95-.38-1.16-.17-2.33.29-3.07,1.2-1.53,1.77-2.83,3.71-3.89,5.79-1.49,2.86-2.88,6.5-4.34,9.38-2.17,4.29-6.82,13.56-14.19,14.68-2.64.41-4.77-.56-4.29-4.15.13-.94.39-1.86.79-2.73,1.37-3.25,3.67-6.02,6.61-7.96.98-.68,2.17-1.04,3.36-1.01,1.12.13,1.68,1.12.56,1.12-3.17.11-5.22,2.13-7.06,4.37-1.62,1.82-2.68,4.05-3.07,6.45-.28,2.02.82,3.2,2.83,2.92.79-.13,1.56-.41,2.24-.83,2.49-1.65,4.52-3.91,5.88-6.57,1.73-3.02,3.25-6.2,4.77-9.35s3.17-7.2,5.5-10.02c.92-1.12,2.02-2.13,3.07-3.2.34-.36.45-.64-.16-.74-2.97-.48-5.88-1.39-8.97-1.23-2.33.17-4.33,1.69-5.12,3.88-.43.98-.1,2.13.79,2.74.56.39.47,1.6-.82.9-1.04-.6-1.44-2.47-.83-3.93,1.19-2.85,3.7-4.94,6.73-5.6,1.62-.32,3.28-.26,4.88.18,3.17.65,6.31,1.48,9.5,1.95,2.1.27,4.23.31,6.35.11,2.24-.17,3.01-1.4,2.55-2.29-.25-.47-.56-1.01.13-1.37s1.65.47,1.68,1.12.62,4.71-8.48,4.54h.03,0ZM115.66,72.76c-3.25,3.74-5.5,4.17-6.48,3.48-1.54-1.12-.17-4.26,0-4.91-2.23,2.08-4.89,3.67-7.78,4.64-3.11.93-5.2-.97-4.31-4.07,1.33-4.44,4.09-8.32,7.85-11.04.62-.46,1.32-.79,2.05-1.01.51-.21,1.11.04,1.32.56.07.18.09.37.06.56-.11,1.04-.5,2.02-1.12,2.85-1.18,1.61-2.82,2.83-4.71,3.5-.37.15-.88.29-.88.29-1.01,1.56-1.59,3.35-1.68,5.2-.11,1.3.86,1.79,2.13,1.44.71-.17,1.39-.44,2.02-.79,3.09-1.72,5.86-3.98,8.15-6.67,1.26-1.52,2.69-2.89,4.26-4.08,1.28-.98,2.8-1.91,4.56-.73.11.09.43-.11.62-.22.54-.38,1.11-.72,1.7-1.01.74-.26,1.12.16.79.9-.34.64-.71,1.26-1.12,1.86-1.54,2.58-3.11,5.16-4.59,7.77-.37.7-.61,1.46-.71,2.24-.26,1.54.63,2.36,2.15,2.05.81-.19,1.61-.43,2.39-.72,1.12-.43.97.45.5.72-1.43.97-3.12,1.47-4.84,1.45-1.57-.06-2.24-.95-2.32-2.53v-1.72h.01s-.01,0-.01,0ZM112.53,73.96c2.92-2.24,4.66-5.25,7.42-9.64.36-.5-.15-2.24-2.02-1.12-2.56,1.7-4.56,4.12-5.75,6.95-1.57,3.51-.53,4.49.34,3.81h.01ZM104.68,63.02c-.71.79-1.35,1.57-2.06,2.36s-.11.79.45.47c.87-.48,1.68-1.06,2.4-1.75,1.7-1.68,1.91-4.15-.82-1.07h.03,0ZM68.28,67.42c-.29-2.64,1.01-4.73,3.36-5.24.56-.08,1.13,0,1.66.19,1.44.82.86,2.45-.93,1.54-.76-.39-1.86.17-1.84,1.54,0,1.79.27,3.62.3,5.43.11,2.33-1.26,7.54-7.17,5.98-1.35-.36-1.98-2.47.08-2.64.53-.05,1.05.2,1.35.64,1.12,1.3,2.24,1.2,2.92-.41.36-1.24.54-2.52.54-3.81,0-1.07-.09-2.15-.25-3.21h-.02ZM72.23,52.22c.11.27-.09.79-.19,1.12-.67,2.18-1.75,4.22-3.17,6-1.12,1.38-1.45.19-1.39,0,.57-1.99,1.15-3.97,1.73-5.94.2-1.01,1.1-1.72,2.13-1.7.36.03.69.22.9.53h-.01,0ZM38.06,57.96c0,.9-.74,1.91-1.45,1.91-.54,0-1.01-.62-1.04-1.35-.08-.86.48-1.65,1.31-1.88.67-.08,1.18.48,1.2,1.32,0,0-.01,0-.01,0ZM63.16,58.23c0,.9-.9,1.85-1.61,1.79-.63-.18-1.03-.81-.93-1.45.01-.86.62-1.59,1.45-1.76.67-.03,1.12.56,1.07,1.41h.01Z" />
</svg>
