<?xml version="1.0" encoding="UTF-8"?><svg id="k" xmlns="http://www.w3.org/2000/svg" viewBox="0 0 128 128"><defs><style>.m{fill:#1b362c;}</style></defs><path class="m" d="M14.92,80.55c-3.03-1.64-5.4-3.91-7.13-6.81-1.72-2.9-2.59-6.15-2.59-9.74s.86-6.83,2.59-9.74c1.72-2.9,4.1-5.17,7.13-6.81,3.03-1.64,6.42-2.45,10.19-2.45s7.16.82,10.19,2.45c3.03,1.64,5.4,3.9,7.12,6.78,1.72,2.89,2.59,6.14,2.59,9.76s-.86,6.88-2.59,9.76c-1.72,2.89-4.1,5.15-7.12,6.78-3.03,1.64-6.42,2.45-10.19,2.45s-7.16-.82-10.19-2.45ZM31.75,75.32c1.97-1.11,3.52-2.66,4.64-4.64,1.13-1.99,1.69-4.21,1.69-6.68s-.56-4.69-1.69-6.68c-1.13-1.99-2.67-3.54-4.64-4.64-1.97-1.11-4.19-1.66-6.65-1.66s-4.68.55-6.65,1.66c-1.97,1.11-3.52,2.66-4.64,4.64-1.13,1.99-1.69,4.21-1.69,6.68s.56,4.69,1.69,6.68c1.13,1.99,2.67,3.54,4.64,4.64,1.97,1.11,4.19,1.66,6.65,1.66s4.68-.55,6.65-1.66Z"/><path class="m" d="M59.28,80.55c-3.01-1.64-5.37-3.9-7.07-6.78-1.71-2.89-2.56-6.14-2.56-9.76s.86-6.88,2.59-9.76c1.72-2.88,4.09-5.15,7.1-6.78,3.01-1.64,6.38-2.45,10.11-2.45,3.03,0,5.79.53,8.29,1.58,2.5,1.06,4.61,2.59,6.33,4.59l-4.43,4.17c-2.67-2.88-5.96-4.33-9.87-4.33-2.53,0-4.8.55-6.81,1.66-2,1.11-3.57,2.65-4.7,4.62-1.13,1.97-1.69,4.2-1.69,6.7s.56,4.73,1.69,6.7c1.13,1.97,2.69,3.51,4.7,4.62,2.01,1.11,4.28,1.66,6.81,1.66,3.91,0,7.19-1.46,9.87-4.38l4.43,4.22c-1.72,2-3.84,3.54-6.36,4.59-2.52,1.06-5.29,1.58-8.31,1.58-3.73,0-7.1-.82-10.11-2.45Z"/><path class="m" d="M113.61,82.47l-7.12-10.29h-7.86v10.29h-8.55v-36.94h15.99c3.27,0,6.11.55,8.52,1.64,2.41,1.09,4.27,2.64,5.57,4.64,1.3,2.01,1.95,4.38,1.95,7.13s-.66,5.11-1.98,7.1c-1.32,1.99-3.19,3.51-5.62,4.57l8.29,11.87h-9.18ZM111.45,54.16c-1.34-1.11-3.29-1.66-5.86-1.66h-6.97v12.88h6.97c2.57,0,4.52-.56,5.86-1.69,1.34-1.13,2.01-2.71,2.01-4.75s-.67-3.67-2.01-4.78Z"/></svg>