<?xml version="1.0" encoding="UTF-8"?><svg id="k" xmlns="http://www.w3.org/2000/svg" viewBox="0 0 128 128">
  <defs>
    <style>
      .m {
        fill: #1c1464;
      }
    </style>
  </defs>
  <path
    class="m"
    d="M69.88,52.19c.27.36.18,1.11.08,1.55-.86,4.04-3.18,6.88-4.27,7.66-1.16.83-3.1,1.57-4.67,1.97-2.29.59-4.1.5-5.4-.28-1.32-.79-2.46-2.24-2.79-4.9,0,0-.32-3.95-.43-7.68s-.49-6.09-1.14-7.7c-.65-1.63-2.43-2.23-3.72-2.01l-1.72.34-.26,17.7c.03,1.81.15,3.09.36,3.84.21.75.58,1.21,1.09,1.36.51.15,1.35.13,2.5-.06v1.39c-2.08.39-5.14,1.1-9.22,2.14-4.67,1.19-8.2,2.16-10.5,2.89l-.05-1.48c1.3-.42,2.23-.85,2.8-1.29.57-.44.94-1.1,1.12-1.98.18-.88.24-2.26.19-4.13l-1.02-38.23c-.05-2.04-.21-3.5-.46-4.4-.26-.9-.68-1.49-1.29-1.76-.6-.28-1.59-.41-2.97-.41l-.05-1.65c2.46-.03,6.08-.23,10.8-.61l6.81-.62c.77-.11,1.65-.21,2.64-.29,5.66-.45,9.74.31,12.35,2.21,2.56,1.86,4.24,5.5,4.21,9.71-.02,3.57-1.41,6.13-3.3,8.93-1.91,2.81-4.71,3.57-9.4,4.95,3.64-.29,7.08-.1,8.86,1.07,1.75,1.14,2.64,3.23,2.56,7.47-.08,4.24.44,6.76.44,6.76.22,1.61.49,2.68.81,3.22.32.54.98.63,1.45.27,2.38-1.86,2.4-6.11,2.94-6.3s.64.35.64.35ZM46.09,15.76c-.44.4-.73,1.08-.87,2.02-.14.95,0,2.05.04,3.9l.61,17.55,1.52-.26c2.19-.95,3.95-2.94,4.7-4.48,1.06-2.2,1.44-3.54,1.41-7.43s-.68-5.69-1.52-7.72c-.85-2.06-2.38-3.87-3.84-4.06-.88.07-1.61.08-2.05.48Z" />
  <path
    class="m"
    d="M111,26.28l-.14,1.09c-.85.68-1.75,1.74-2.72,3.19-.97,1.45-1.91,3.34-2.82,5.65l-12.64,32.79c-1,.35-1.52.47-2.2.71s-1.36.46-2.46.84l-6.16-15.93-4.4-14.65c-.34-1.12-.75-1.91-1.24-2.36-.5-.46-1.01-.64-1.55-.54l.12-1.18c2.57-.55,4.29-1.49,8.11-2.49s6.76-1.74,8.57-2.32l-.13,1.13c-1.27.41-2.07,1.04-2.64,1.45-.57.41-.89,1.01-.98,1.81-.07.64.03,1.48.31,2.5l6.48,20.41,6.64-16.33c1.43-3.62,3.05-6.19,3.3-8.23.39-3.18-2.74-4.35-5.31-3.78l.13-1.11c2.35-.5,6.44-1.12,8.17-1.57,1.44-.38,2.62-.73,3.54-1.08Z" />
  <path
    class="m"
    d="M78.59,76.33c-.16,1.81-.24,3.22-.22,4.21l-1.25.38c-.45-4.33-1.84-7.88-3.45-9.34-1.6-1.46-3.52-1.88-5.76-1.25l-.72.2c-1,.28-1.74.57-2.22.88-.49.31-.84.73-1.06,1.27-.22.54-.4,1.39-.53,2.55l-1.49,16.34.58-.18c2-.62,3.78-1.99,5.36-4.11,1.56-2.1,2.63-4.21,3.2-6.33l1.27-.38c-.28,1.72-.52,3.63-.73,5.74l-.29,2.94c-.21,2.1-.42,6.29-.56,10.03l-1.31.43c-.1-2.29-.75-5.27-2.02-6.38-1.26-1.12-2.95-1.34-5.06-.68l-.58.18-1.93,14.15c-.21,1.85-.19,3.14.05,3.86.24.73.8,1.08,1.66,1.06.86-.02,2.26-.36,4.18-1.03l-.16,1.52c-5.33,1.72-9.46,3.09-12.35,4.1-1.93.67-4.64,1.65-8.15,2.96l-3.04,1.12.19-1.39c1.36-.56,2.36-1.08,3.01-1.57.64-.48,1.12-1.15,1.43-2,.31-.84.57-2.13.8-3.85l4.14-32c.2-1.56.24-2.65.11-3.28-.12-.63-.44-.99-.96-1.08-.51-.09-1.39,0-2.63.27l.17-1.22c4.5-1.13,11.18-2.92,19.9-5.34,5.35-1.48,9.1-2.58,11.32-3.3-.57,3.67-.62,7.62-.88,10.51Z" />
</svg>
