<?xml version="1.0" encoding="UTF-8"?><svg id="m" xmlns="http://www.w3.org/2000/svg" viewBox="0 0 128 128"><defs><style>.p{fill:#95c11e;stroke:#95c11e;stroke-linecap:round;stroke-linejoin:round;stroke-width:.26px;}</style></defs><path class="p" d="M60.92,76.4c-.08.08-.27-.14-.1-1.02,5.39-27.41-15.99-32.81-6.5-59.3,21.13,16.1,16.06,40.29,6.6,60.32Z"/><path class="p" d="M58.8,74.29c-3.01-20.35-30.01-24.18-31.75-44.85,21.68,6.53,31.75,24.31,31.84,44.84,0,.06-.08.06-.09,0Z"/><path class="p" d="M85.3,27.65c4.31,19.28-6.29,38.15-21.83,49.09-.02.02-.06-.01-.04-.04,3.77-6.33,7.91-14.38,9.48-21.83,2.39-10.85,2.89-19.61,12.39-27.22Z"/><path class="p" d="M25.78,53.65c11.48,1.38,26.23,11.36,30.55,20.56.02.05-.05.09-.09.05-10.37-12.02-32.89-7.61-41.63-20.95,3.59.26,7.65-.08,11.17.34Z"/><path class="p" d="M101.96,50.4c-4.58,15.86-20.27,24.53-35.57,27.59-.04,0-.06-.05-.03-.07l7.52-5c9.96-6.82,14.84-21.2,28.07-22.51Z"/><path class="p" d="M56.05,77.23c.71.47-.2.49-.75.57-13.22,1.53-27.87.85-40.55-5.19-.16-.07-.1-.32.07-.34,13.74-1.88,28.9-2.07,41.23,4.96Z"/><path class="p" d="M114.85,87.9c1.06.55,2.1,1.17,2.44,1.4.39.27-.13.1-1.96-.4-23.81-6.53-45.17,11.78-72.88,9.26,28.88-2.25,52.52-20.5,72.4-10.27Z"/><path class="p" d="M3.43,69.6s.03-.03.04-.01c30.18,49.84,93.83-20,117.15,18.93.07.12-.07.25-.18.16-25.01-22.48-61.49,13.75-92.74,5.1-11.98-3.33-21.98-11.42-24.26-24.18Z"/></svg>