<?xml version="1.0" encoding="UTF-8"?><svg id="k" xmlns="http://www.w3.org/2000/svg" viewBox="0 0 128 128"><defs><style>.m{fill:#95c11e;stroke:#95c11e;stroke-linecap:round;stroke-linejoin:round;stroke-width:.35px;}</style></defs><path class="m" d="M67.52,84.5c-.11.1-.36-.18-.13-1.35,7.17-36.49-21.28-43.68-8.65-78.93,28.13,21.43,21.38,53.62,8.78,80.29Z"/><path class="m" d="M64.7,81.69c-4.01-27.09-39.95-32.19-42.26-59.69,28.85,8.69,42.25,32.36,42.38,59.68,0,.07-.11.08-.12,0Z"/><path class="m" d="M99.97,19.61c5.73,25.67-8.37,50.78-29.06,65.33-.03.02-.08-.01-.05-.05,5.01-8.42,10.52-19.13,12.62-29.05,3.19-14.44,3.85-26.1,16.49-36.24Z"/><path class="m" d="M20.75,54.22c15.28,1.84,34.91,15.12,40.66,27.37.03.07-.07.13-.12.07-13.81-16-43.78-10.12-55.41-27.89,4.78.35,10.18-.11,14.87.46Z"/><path class="m" d="M122.15,49.89c-6.09,21.11-26.98,32.65-47.34,36.72-.05.01-.08-.06-.04-.09l10.02-6.66c13.26-9.07,19.75-28.22,37.36-29.97Z"/><path class="m" d="M61.04,85.59c.95.63-.27.65-1,.76-17.6,2.04-37.09,1.12-53.97-6.91-.21-.1-.13-.43.1-.46,18.28-2.5,38.47-2.75,54.88,6.61Z"/><path class="m" d="M139.3,99.8c1.41.73,2.8,1.55,3.25,1.87.52.37-.18.14-2.61-.53-31.69-8.69-60.12,15.68-97.01,12.33,38.45-3,69.91-27.28,96.37-13.67Z"/><path class="m" d="M-9,75.45s.03-.04.05-.02c40.17,66.34,124.89-26.62,155.93,25.2.1.16-.1.33-.24.21-33.28-29.92-81.84,18.3-123.44,6.78-15.95-4.43-29.25-15.19-32.29-32.18Z"/></svg>