<?xml version="1.0" encoding="UTF-8"?><svg id="m" xmlns="http://www.w3.org/2000/svg" viewBox="0 0 128 128"><defs><style>.p{fill:#f5a925;}.q{fill:#ff392e;}.r{fill:#f5b733;}.s{fill:#2388d6;}.t{fill:#ae6fc3;}.u{fill:#e6241e;}.v{fill:#1fa14c;}.w{fill:#9d51b2;}.x{fill:#32b85f;}.y{fill:#32a4e6;}</style></defs><path class="r" d="M49.15,22.58s-.04.07-.06.1c-.16.26-.32.51-.47.77-.04.07-.09.15-.13.22-.14.24-.27.48-.4.71-.04.06-.07.13-.11.19-1.04,1.94-1.84,3.88-2.47,5.58-2.65,7.14-2.33,15.2.78,19.6,2.46,3.48,6.15,5.43,9.86,5.21,2.89-.17,7.06-1.7,10.47-7.98,2.46-4.53,3.63-10.44,3.13-15.81-.28-3.06-1.09-5.85-2.38-8.3,0,0,0,0,0,0-.64-.05-1.26-.07-1.86-.07-2.62,0-4.08.45-4.85.84-.42.21-.81.46-1.19.75,0,0,0,0,0,0,4.62,5.57,2.94,14.66.58,19.03-1.36,2.51-2.95,4-4.34,4.09-1.11.07-2.37-.72-3.32-2.06-1.45-2.05-1.81-7.48.12-12.68.98-2.64,2.44-6.04,4.67-8.43,0,0,0,0,0,0,.03-.04.07-.07.1-.11.02-.03.05-.05.07-.07.15-.16.3-.31.46-.45.01,0,.02-.02.03-.03.17-.15.34-.3.51-.44.5-.4,1.02-.74,1.59-1.02,1.51-.75,3.76-1.09,6.45-.99,0,0,0,0,0,0,0,0,0,0,0,0,.63.02,1.29.07,1.96.14,0,0,0,0,0,0h0c5.62.58,12.64,2.81,18.8,6.77,4.07,2.61,7.16,4.75,9.45,6.58,4.34.72,9.05,2.32,12.62,5.95.11.12.22.23.34.35-.8-7.16-8.02-12.51-17.81-18.82-.37.65-.84,1.26-1.41,1.79-3.02,2.82-7.75,2.66-10.57-.36-2.02-2.17-2.51-5.22-1.51-7.81-1.91-.59-3.82-1.08-5.72-1.43-4.27-.79-8.2-.88-11.48-.3-.11.02-.21.04-.32.06-.14.03-.27.05-.4.08-.09.02-.18.04-.27.06-.16.04-.31.07-.46.11-.07.02-.14.03-.2.05-.18.05-.36.1-.53.15-.04.01-.08.02-.11.03h0c-.78.24-1.5.53-2.17.86-3.26,1.63-5.66,4.24-7.46,7.05Z"/><path class="t" d="M20.12,65.65s.02.02.03.04c.21.26.42.51.64.75.06.07.12.13.17.19.19.21.37.41.56.61.05.05.09.1.14.14,1.52,1.59,3.13,2.95,4.55,4.08,5.97,4.73,13.74,6.91,18.88,5.31,4.07-1.26,7.06-4.17,8-7.77.73-2.81.57-7.24-4.36-12.43-3.55-3.74-8.81-6.67-14.07-7.86-2.99-.68-5.9-.77-8.62-.3-1.12,2.73-1.59,5.08-1.36,6.62.07.46.19.91.35,1.36h0s0,0,0,0c6.73-2.67,14.86,1.73,18.28,5.34,1.97,2.07,2.9,4.04,2.54,5.39-.28,1.07-1.42,2.03-2.99,2.52-2.39.74-7.67-.59-12.03-4.03-2.21-1.75-4.99-4.19-6.57-7.05,0,0,0,0,0,0-.01-.02-.02-.05-.04-.07-.04-.07-.07-.13-.11-.2-.09-.16-.17-.33-.24-.49-.02-.04-.04-.08-.06-.13-.08-.18-.16-.36-.23-.55,0,0,0-.01,0-.02,0,0,0,0,0,0-.22-.59-.39-1.2-.48-1.82-.25-1.66.13-3.91,1.05-6.44,0,0,0,0,0,0,0,0,0,0,0,0,.1-.27.2-.54.32-.82.02-.05.04-.09.06-.14.1-.25.21-.49.31-.74.02-.04.03-.08.05-.13,0,0,0,0,0,0,2.29-5.16,6.58-11.15,12.25-15.79,3.74-3.06,6.73-5.34,9.18-6.96,0,0,0,0,0,0,2.03-3.9,5-7.89,9.56-10.16.14-.07.29-.14.44-.21,0,0,0,0,0,0-7.06-1.45-14.37,3.77-23.4,11.12.5.55.94,1.18,1.27,1.89,1.75,3.74.13,8.19-3.61,9.94-2.69,1.26-5.74.78-7.89-.98-1.15,1.63-2.2,3.3-3.12,5-2.08,3.84-3.38,7.57-3.84,10.88,0,.07-.02.13-.03.2-.02.17-.04.34-.06.51,0,.07-.01.14-.02.22-.02.17-.03.34-.04.51,0,.06,0,.12-.01.18-.01.23-.02.46-.02.68,0,0,0,0,0,0h0c-.01.81.04,1.59.15,2.34.54,3.6,2.28,6.69,4.4,9.27Z"/><path class="q" d="M100.92,88.8h0c-.06-1.1-.19-2.18-.36-3.21h0c-.3-1.85-.73-3.57-1.15-5.08-2.05-7.33-7.05-13.66-12.15-15.4-2.19-.74-4.46-.92-6.54-.51-4.82.95-9.52,5.31-8.28,14.71.67,5.11,3.2,10.58,6.76,14.63,2.02,2.3,4.32,4.09,6.8,5.31,0,0,0,0,0,0,2.51-1.55,4.27-3.18,4.98-4.56.21-.41.38-.85.52-1.3,0,0,0,0,0,0-7.01-1.79-11-10.14-11.65-15.06-.35-2.64-.23-5.89,2.31-6.39.26-.05.53-.08.81-.08.6,0,1.25.11,1.89.33,2.37.81,5.86,4.98,7.36,10.33.76,2.72,1.58,6.33,1.17,9.57,0,0,0,0,0,0,0,.04-.01.08-.02.11,0,.05-.01.1-.02.16-.03.2-.06.4-.1.59,0,.03-.01.06-.02.09-.04.2-.09.39-.14.59,0,.01,0,.02,0,.04,0,0,0,0,0,0,0,0,0,0,0,0-.17.61-.39,1.2-.68,1.76-.78,1.49-2.4,3.08-4.63,4.59,0,0,0,0,0,0,0,0,0,0,0,0-.23.16-.47.31-.71.46-.05.03-.11.07-.16.1-.23.14-.47.29-.71.43-.03.02-.05.03-.08.05,0,0,0,0,0,0-4.89,2.83-11.88,5.16-19.2,5.58-4.83.28-8.59.37-11.52.23,0,0,0,0,0,0-3.13,1.56-6.83,2.84-10.79,2.84-.98,0-1.97-.08-2.92-.24-.16-.03-.32-.06-.48-.09,3.64,3.99,9.6,5.03,17.25,5.03,2.55,0,5.3-.12,8.21-.28-.09-.74-.06-1.51.09-2.28.78-4.05,4.7-6.7,8.76-5.92,2.91.56,5.1,2.74,5.81,5.43,1.89-.64,3.73-1.38,5.46-2.21,3.92-1.87,7.14-4.11,9.45-6.5.08-.09.16-.17.24-.26.08-.09.16-.17.24-.26.08-.08.15-.17.22-.25.08-.09.16-.19.24-.28.07-.08.14-.16.2-.24.08-.1.15-.2.23-.3.05-.07.11-.14.16-.21.49-.65.91-1.31,1.25-1.98,1.68-3.23,2.08-6.75,1.89-10.08Z"/><path class="y" d="M107.55,66.35c1.43-2.59,4.19-4,6.96-3.85-.02-2-.16-3.97-.41-5.88-.58-4.34-1.72-8.13-3.3-11.08-.02-.04-.04-.07-.06-.11-.09-.17-.19-.34-.29-.51-.03-.05-.06-.1-.09-.15-.1-.16-.19-.32-.29-.48-.03-.04-.05-.08-.08-.12-.11-.17-.23-.35-.35-.51-.01-.02-.03-.04-.04-.06h0s0,0,0,0c0,0,0,0,0,0-.47-.66-.97-1.27-1.49-1.8-2.55-2.6-5.78-4.07-9-4.91h0s0,0,0,0c0,0,0,0,0,0-.02,0-.04,0-.06-.01-.21-.05-.41-.1-.62-.15-.09-.02-.18-.04-.27-.06-.17-.04-.34-.07-.5-.11-.06-.01-.13-.03-.19-.04-.23-.05-.45-.09-.68-.13-.06-.01-.12-.02-.18-.03-.19-.03-.39-.07-.58-.1-1.88-.29-3.69-.42-5.28-.49-7.61-.32-15.17,2.48-18.4,6.8-2.55,3.42-3.26,7.53-1.91,10.99,1.06,2.7,3.79,6.19,10.83,7.49,5.07.94,11.05.22,16-1.91,2.82-1.21,5.22-2.84,7.15-4.82h0c-.7-2.87-1.7-5.04-2.79-6.15-.32-.33-.69-.63-1.08-.9,0,0,0,0,0,0-3.87,6.12-13.04,7.33-17.92,6.43-2.81-.52-4.72-1.57-5.23-2.87-.4-1.03-.04-2.48.93-3.79,1.42-1.9,6.03-3.82,11.24-3.82.29,0,.57,0,.86.02,2.82.12,6.5.46,9.47,1.84,0,0,0,0,0,0,.02,0,.04.02.06.03.07.03.15.07.22.11.16.08.32.16.47.25.05.03.1.06.16.09.12.07.24.14.36.22.05.03.1.06.14.09,0,0,0,0,0,0,.53.34,1.02.74,1.46,1.19,1.18,1.2,2.19,3.24,2.93,5.82,0,.03.02.07.03.1.07.25.14.52.21.78,0,.03.02.06.02.09.07.29.14.59.21.9,0,.02,0,.03.01.05,0,0,0,0,0,0,1.18,5.52,1.23,12.89-.63,19.97-1.23,4.68-2.3,8.28-3.34,11.02,0,0,0,0,0,0,.65,4.35.59,9.32-1.76,13.84-.07.14-.15.28-.23.42,6.56-2.98,9.41-11.49,12.39-22.75-.73-.15-1.45-.41-2.14-.79-3.61-2-4.92-6.55-2.92-10.16Z"/><path class="x" d="M44.59,108.12c2.64,0,5.19-.62,7.52-1.54h0c.32-.13.64-.26.95-.39.08-.03.16-.07.24-.1.25-.11.5-.23.75-.34.06-.03.13-.06.19-.09,1.99-.96,3.77-2.06,5.28-3.07,6.34-4.22,10.82-10.93,10.89-16.32.06-4.26-1.78-8.01-4.92-10.01-2.44-1.56-6.71-2.78-13.17.3-4.65,2.22-9.07,6.31-11.82,10.95-1.57,2.64-2.55,5.37-2.95,8.11,2.25,1.91,4.34,3.08,5.88,3.33.37.06.76.09,1.16.09.08,0,.16,0,.24,0,0,0,0,0,0,0-.46-7.22,6.24-13.59,10.72-15.73,1.62-.77,3.08-1.17,4.23-1.17.68,0,1.25.14,1.69.42.93.59,1.49,1.98,1.47,3.62-.03,2.51-2.93,7.11-7.55,10.19-2.44,1.62-5.77,3.6-9.1,4.14-.03,0-.06,0-.08.01-.09.01-.18.03-.27.04-.05,0-.09.01-.14.02-.09.01-.17.02-.26.03-.04,0-.07,0-.11.01-.13.01-.25.02-.38.03,0,0,0,0,0,0-.63.03-1.26,0-1.88-.1-1.66-.28-3.68-1.33-5.8-2.99h0s-.06-.05-.09-.07c-.1-.08-.2-.16-.31-.24-.07-.06-.14-.12-.21-.17-.06-.05-.12-.1-.19-.16-.08-.07-.16-.13-.24-.2-.06-.05-.12-.1-.17-.15-.07-.06-.14-.12-.21-.18-.03-.03-.07-.06-.1-.09,0,0,0,0,0,0-4.2-3.77-8.57-9.7-11.23-16.53-1.76-4.51-3-8.05-3.78-10.88h0c-3.09-3.13-5.96-7.19-6.71-12.23-.02-.16-.04-.32-.06-.49-3.56,6.26-.86,14.83,3.35,25.69.68-.31,1.41-.52,2.19-.62,4.1-.51,7.83,2.4,8.34,6.5.36,2.94-1.03,5.7-3.37,7.2,1.19,1.6,2.46,3.12,3.79,4.51,3.01,3.16,6.14,5.55,9.14,7,.08.04.16.08.25.12.13.06.25.12.38.17.1.04.19.09.29.13.11.05.23.09.34.14.1.04.2.08.3.12.1.04.19.07.29.11.1.04.21.08.31.11.77.26,1.53.46,2.27.58.89.15,1.78.22,2.66.22Z"/><path class="q" d="M66.66,114.14c.36,3.15,2.73,5.85,6.01,6.48,4.05.78,7.97-1.87,8.76-5.92.22-1.14.17-2.27-.11-3.33-4.48,1.51-9.29,2.46-13.99,2.73-.22.01-.44.02-.67.04Z"/><path class="u" d="M75.51,105.95c-4.05-.78-7.97,1.87-8.76,5.92-.15.77-.17,1.54-.09,2.28.22-.01.44-.02.67-.04,4.7-.27,9.51-1.22,13.99-2.73-.71-2.69-2.9-4.87-5.81-5.43Z"/><path class="x" d="M17.42,81.83c-2.89,1.32-4.72,4.4-4.31,7.72.51,4.1,4.24,7.01,8.34,6.5,1.15-.14,2.21-.54,3.13-1.13-2.82-3.79-5.21-8.07-6.92-12.46-.08-.21-.16-.41-.24-.62Z"/><path class="v" d="M27.95,87.71c-.51-4.1-4.24-7.01-8.34-6.5-.78.1-1.52.31-2.19.62.08.21.16.41.24.62,1.71,4.39,4.1,8.67,6.92,12.46,2.34-1.51,3.73-4.26,3.37-7.2Z"/><path class="t" d="M32.42,25.43c.17-.14.34-.28.52-.42-2.15-2.34-5.64-3.13-8.67-1.71-3.74,1.75-5.35,6.2-3.61,9.94.49,1.05,1.2,1.94,2.05,2.63,2.73-3.86,6.07-7.45,9.71-10.43Z"/><path class="w" d="M30.6,36.84c3.74-1.75,5.35-6.2,3.61-9.94-.33-.71-.76-1.35-1.27-1.89-.17.14-.34.28-.52.42-3.65,2.98-6.98,6.58-9.71,10.43,2.15,1.76,5.21,2.23,7.89.98Z"/><path class="r" d="M91.77,22.21c1.56-2.77,1.23-6.33-1.05-8.77-2.82-3.02-7.55-3.18-10.57-.36-.85.79-1.47,1.74-1.87,2.76,4.51,1.41,8.96,3.47,12.92,6.01.19.12.37.24.56.36Z"/><path class="p" d="M79.8,23.65c2.82,3.02,7.55,3.18,10.57.36.57-.54,1.04-1.14,1.41-1.79-.19-.12-.37-.24-.56-.36-3.96-2.55-8.41-4.61-12.92-6.01-1,2.59-.52,5.64,1.51,7.81Z"/><path class="y" d="M117.71,63.43c-1.02-.56-2.11-.86-3.2-.92.06,4.73-.53,9.6-1.73,14.15-.06.22-.11.43-.17.64,3.11.63,6.4-.79,8.02-3.71,2-3.61.69-8.16-2.92-10.16Z"/><path class="s" d="M114.51,62.51c-2.77-.15-5.53,1.25-6.96,3.85-2,3.61-.69,8.16,2.92,10.16.69.38,1.41.64,2.14.79.06-.21.11-.43.17-.64,1.2-4.55,1.78-9.42,1.73-14.15Z"/></svg>