<?xml version="1.0" encoding="UTF-8"?><svg id="m" xmlns="http://www.w3.org/2000/svg" viewBox="0 0 128 128"><defs><style>.p{fill:#2388d6;}</style></defs><path class="p" d="M28.65,53.27c-.63-6.8-2.43-13.03-5.3-18.49,0,0,0,0,0,0-1.42-.1-2.8-.16-4.15-.16-5.83,0-9.09,1.01-10.79,1.86-.93.46-1.81,1.03-2.64,1.67,0,0,0,0,0,0,10.29,12.41,6.55,32.65,1.28,42.37-2.87,5.28-6.17,8.53-9.14,9.03-.05,5.57-.43,11.13-.55,16.7.33,0,.67,0,1-.02,6.44-.38,15.72-3.78,23.32-17.78,5.47-10.08,8.07-23.24,6.97-35.19Z"/><path class="p" d="M77.66,33.27c3.47-6.16,2.74-14.1-2.34-19.53-6.28-6.72-16.81-7.07-23.52-.8-1.89,1.77-3.28,3.87-4.16,6.14-4.24-1.32-8.51-2.4-12.73-3.17-9.52-1.75-18.26-1.95-25.55-.66-.24.04-.47.09-.71.13-.3.06-.6.12-.9.18-.2.04-.4.09-.6.13-.35.08-.69.16-1.03.25-.15.04-.3.08-.45.12-.4.11-.8.22-1.19.34-.08.03-.17.05-.25.07h0c-1.73.54-3.35,1.18-4.84,1.92-.23.11-.44.24-.66.36,0,.41-.01.82-.06,1.24-.45,3.55.22,7.08.17,10.64-.04,3.35-.3,6.69-.35,10.05.69-.93,1.41-1.83,2.19-2.66,0,0,0,0,0,0,.07-.08.15-.16.23-.23.05-.06.11-.11.16-.17.34-.35.68-.68,1.03-1.01.02-.02.05-.04.07-.06.37-.34.75-.67,1.14-.98,1.1-.88,2.28-1.66,3.53-2.28,3.35-1.67,8.36-2.42,14.35-2.2,0,0,0,0,0,0,0,0,0,0,0,0,1.41.05,2.87.16,4.37.31,0,0,.01,0,.02,0h0c12.51,1.3,28.14,6.25,41.85,15.07,9.06,5.82,15.95,10.57,21.05,14.65,9.66,1.6,20.14,5.16,28.1,13.25.25.26.5.52.75.79-1.79-15.94-17.86-27.84-39.65-41.89Z"/><path class="p" d="M105.83,104.75c-1.56-6.39-3.8-11.23-6.22-13.7-.72-.74-1.53-1.4-2.4-2,0,0,0,0,0,0-8.62,13.62-29.03,16.32-39.9,14.31-6.26-1.16-10.5-3.48-11.64-6.38-.9-2.29-.1-5.52,2.08-8.44,3.16-4.24,13.43-8.51,25.02-8.51.64,0,1.28.01,1.92.04,6.27.26,14.48,1.01,21.07,4.1,0,0,0,0,0,0,.04.02.09.04.13.06.16.08.33.16.49.24.36.18.71.36,1.05.55.12.07.23.13.35.2.27.16.53.32.8.48.1.07.21.13.32.19,0,0,0,0,0,0,1.18.77,2.28,1.65,3.26,2.64,2.63,2.67,4.88,7.21,6.53,12.97.02.07.04.15.06.22.16.57.31,1.15.46,1.74.02.07.03.13.05.2.16.65.32,1.32.46,2,0,.04.02.08.03.11,0,0,0,0,0,0,1.44,6.75,2.13,14.73,1.77,23.17,5.57.01,11.1.63,16.63,1.19.12-2.4.17-4.8.15-7.18-.05-4.44-.35-8.83-.92-13.09-1.29-9.67-3.83-18.11-7.36-24.67-.04-.08-.09-.16-.13-.24-.21-.39-.42-.76-.64-1.13-.07-.12-.13-.23-.2-.34-.21-.36-.43-.71-.65-1.06-.06-.09-.12-.19-.18-.28-.25-.39-.51-.77-.77-1.14-.03-.04-.06-.09-.09-.13h0s0,0,0,0c0,0,0,0,0,0-1.05-1.48-2.15-2.82-3.32-4.01-5.68-5.78-12.86-9.06-20.05-10.94h0s0,0,0,0h0s-.09-.02-.13-.03c-.46-.12-.92-.23-1.38-.34-.2-.05-.4-.09-.59-.14-.37-.08-.75-.17-1.12-.24-.14-.03-.28-.06-.42-.09-.51-.1-1.01-.2-1.51-.29-.13-.02-.27-.05-.4-.07-.43-.08-.86-.15-1.29-.21-4.19-.66-8.21-.94-11.75-1.09-16.94-.7-33.78,5.53-40.96,15.14-5.68,7.61-7.26,16.75-4.24,24.47,2.35,6.01,8.45,13.79,24.11,16.68,11.28,2.09,24.6.5,35.63-4.25,6.27-2.7,11.63-6.33,15.93-10.74h0Z"/></svg>