<?xml version="1.0" encoding="UTF-8"?><svg xmlns="http://www.w3.org/2000/svg" viewBox="0 0 128 128">
  <path
    d="M38.32,36.26c2.56,0,4.47.6,5.72,1.8,1.25,1.2,1.88,2.76,1.88,4.69s-.75,3.58-2.23,4.97c-1.49,1.39-2.68,2.08-3.58,2.08s-1.37-.44-1.43-1.32h0c-.12-1.51-1.06-2.93-2.82-4.26-1.75-1.32-3.56-1.99-5.41-1.99h0c-4.71,0-9.51,2.36-14.39,7.1-4.89,4.74-8.79,10.16-11.7,16.28C1.44,71.73-.02,76.91-.02,81.13s.85,7.68,2.55,10.37c1.7,2.68,4.19,4.02,7.46,4.02h0c5.24,0,10.93-4.89,17.07-14.67h0c2.86-4.48,5.75-11.05,8.67-19.7h0c1.07-3.09,1.64-4.67,1.7-4.74h0c.48-1.32,1.25-1.99,2.32-1.99h0c.53,0,.97.17,1.3.52s.49.76.49,1.23-.09.99-.27,1.56h0c-1.73,6.69-2.59,13.08-2.59,19.17s.98,11.16,2.95,15.19c1.97,4.04,4.58,6.06,7.87,6.06h0c1.67,0,3.16-.57,4.47-1.71h0c.42-.38.84-.57,1.25-.57h0c.71,0,1.07.35,1.07,1.04h0c0,3.47-1.94,6.71-5.81,9.7s-7.72,4.5-11.53,4.5h0c-6.13,0-9.2-4.48-9.2-13.45h0c0-3.6.43-7.63,1.3-12.12.86-4.48,1.3-6.8,1.3-6.96s-.12-.24-.36-.24-.51.28-.8.85h0c-3.4,8.96-8.05,16.49-13.94,22.58-5.9,6.09-11.32,9.13-16.26,9.13s-8.49-2.02-10.64-6.06h0c-1.49-2.71-2.23-6.06-2.23-10.03h0c0-7.83,2.52-16.33,7.55-25.51C.7,60.16,7.19,52.35,15.15,45.92c7.94-6.43,15.67-9.66,23.18-9.66h0Z" />
  <path
    d="M148.96,136.66l.27.89c-1,.73-2.09,1.24-3.25,1.5s-2.33.4-3.51.4h0c-4.03,0-7.62-.6-10.75-1.79-3.14-1.19-5.89-2.83-8.25-4.93-2.37-2.09-4.38-4.54-6.05-7.37-1.66-2.83-3.05-5.87-4.15-9.14-1.1-3.27-1.95-6.68-2.54-10.24-.59-3.55-.99-7.11-1.19-10.66-.21-3.55-.25-7.02-.15-10.42.1-3.4.3-6.55.6-9.47h0c-.53.79-1.18,2.05-1.94,3.79-.77,1.74-1.61,3.77-2.54,6.09-.93,2.33-1.89,4.86-2.9,7.62-1,2.75-1.99,5.52-2.98,8.32-.99,2.8-1.95,5.54-2.87,8.24-.92,2.69-1.74,5.14-2.47,7.35-.72,2.21-1.34,4.08-1.85,5.63s-.84,2.58-.99,3.11h0c-.12.36-.27.8-.46,1.33-.19.53-.43,1.04-.71,1.54s-.61.93-.97,1.28c-.37.36-.79.54-1.26.54h0c-.53,0-.97-.21-1.32-.64-.36-.43-.64-.93-.87-1.52-.22-.59-.39-1.18-.52-1.77-.13-.58-.23-1.06-.29-1.41h0c-.17-1.24-.34-2.79-.49-4.67-.14-1.89-.27-3.98-.37-6.28s-.19-4.75-.25-7.35c-.06-2.61-.11-5.22-.15-7.86-.04-2.63-.08-5.22-.09-7.77-.01-2.55-.03-4.93-.05-7.15-.01-2.22-.02-4.22-.02-5.98v-4.24h0c-.65,1.47-1.42,3.34-2.31,5.61-.9,2.26-1.87,4.82-2.92,7.64-1.04,2.83-2.13,5.87-3.27,9.11-1.13,3.25-2.25,6.6-3.36,10.05-1.1,3.45-2.16,6.92-3.18,10.43-1.02,3.5-1.91,6.9-2.71,10.2h0c-.09.29-.2.64-.34,1.08-.13.43-.3.83-.51,1.21-.21.38-.46.72-.77.99-.32.28-.69.43-1.13.43h0c-.41,0-.78-.13-1.1-.4s-.6-.58-.82-.95c-.23-.37-.4-.77-.54-1.19-.13-.43-.21-.82-.25-1.17h0c-.14-.73-.27-1.54-.37-2.44-.1-.88-.19-1.78-.26-2.71-.08-.93-.14-1.84-.2-2.74-.06-.9-.12-1.73-.18-2.5h0c-.32-4.03-.56-8.02-.69-11.97-.13-3.95-.2-7.92-.2-11.92h0c0-3.95.07-7.86.2-11.75.13-3.89.33-7.82.6-11.79h0c.09-1.15.23-2.44.4-3.86.18-1.43.53-2.78,1.04-4.04.51-1.27,1.26-2.33,2.25-3.18.99-.85,2.33-1.28,4.04-1.28h0c.41,0,.76.1,1.06.29.3.19.45.51.45.99h0v.45c-.27,1.76-.53,3.53-.8,5.28-.27,1.75-.55,3.53-.84,5.37h0c-.71,5.89-1.3,11.77-1.79,17.64-.48,5.87-.72,11.78-.72,17.72h0c0,2.33.04,4.62.12,6.89.09,2.26.25,4.55.49,6.85h0c2.03-6.3,3.82-11.88,5.37-16.74,1.55-4.86,2.91-9.11,4.09-12.76,1.17-3.65,2.17-6.77,2.98-9.34.81-2.57,1.49-4.73,2.05-6.46.56-1.74,1-3.13,1.32-4.18.32-1.04.59-1.85.8-2.42.21-.57.35-.99.45-1.26.09-.27.18-.5.26-.71h0c.45-1,1.05-1.9,1.81-2.7.77-.8,1.76-1.19,2.96-1.19h0c.82,0,1.49.21,2.01.62.51.42.92.93,1.21,1.54.3.62.49,1.3.6,2.04.1.73.15,1.41.15,2.02h0c-.06,4.56-.19,9.08-.4,13.54-.21,4.46-.38,8.89-.52,13.26-.15,4.39-.22,8.75-.2,13.08.01,4.32.21,8.63.59,12.93h0c1.18-3.47,2.27-6.74,3.27-9.82,1-3.07,1.95-6.01,2.85-8.81.9-2.8,1.76-5.49,2.61-8.08.84-2.59,1.71-5.15,2.61-7.68.9-2.53,1.83-5.06,2.81-7.6.97-2.53,2.04-5.14,3.22-7.82h0c.27-.52.56-1.06.89-1.61.32-.54.69-1.04,1.1-1.48.41-.45.88-.82,1.41-1.1.53-.3,1.12-.45,1.77-.45h0c.91,0,1.63.3,2.16.88.53.59.93,1.3,1.21,2.13.28.82.47,1.68.55,2.58.09.9.14,1.66.14,2.28h0c0,2.7-.09,5.7-.26,8.99-.18,3.28-.31,6.68-.38,10.22-.08,3.53-.03,7.11.11,10.72.15,3.62.55,7.13,1.19,10.52.65,3.38,1.61,6.55,2.87,9.48,1.27,2.95,2.97,5.52,5.12,7.71,2.15,2.2,4.8,3.92,7.97,5.19s6.97,1.9,11.42,1.9h0c.67,0,1.33-.05,1.96-.15s1.24-.29,1.83-.55h0l-.03-.03Z" />
</svg>
