<?xml version="1.0" encoding="UTF-8"?><svg xmlns="http://www.w3.org/2000/svg" viewBox="0 0 128 128">
  <path
    d="M26.38,39.09c-5.43,0-11.11.13-16.03.36l-.66.03L0,87.92h6.66c2.33,0,9.41,0,10.53-6.76.44-2.7,1.13-6.13,1.46-7.6.63.02,1.15.03,1.47.02,13.3,0,23.73-9.11,23.73-20.74,0-8.61-6.53-13.75-17.47-13.75ZM21.24,61.14c.29-1.47,1.76-8.83,1.96-9.85.34-.02.7-.02,1.21-.02,3.06,0,3.7,1.68,3.7,3.11,0,3.28-2.57,6.68-6.87,6.76Z" />
  <path
    d="M55.91,81.17s8.33-41.71,8.33-41.71h-9.07c-4.82,0-6.84,3.94-7.21,6.03l-8.49,42.45h8.21c7.15,0,8.15-6.21,8.24-6.77h0Z" />
  <path
    d="M111.33,39.45h-9.34c-4.7,0-6.63,4.42-6.99,6.79l-4.53,22.54c-1.1,5.56-3.35,7.62-8.3,7.61-1.81,0-3.1-.41-3.81-1.24-.85-.97-1.02-2.6-.58-4.88l6.19-30.81h-15.09l-5.83,29.11c-1.32,6.71-.47,11.89,2.53,15.31,2.91,3.34,7.87,5.03,14.68,5.03,13.78,0,22.38-6.51,24.89-18.84l6.19-30.61h-.01Z" />
  <path
    d="M125.71,49.98s2.29-10.88,2.29-10.88h-5.98c-4.82,0-6.84,3.94-7.21,6.03l-2.45,11.61h5.11c7.15,0,8.15-6.21,8.24-6.77h0Z" />
</svg>
