<?xml version="1.0" encoding="UTF-8"?><svg xmlns="http://www.w3.org/2000/svg" viewBox="0 0 128 128">
  <circle cx="16.64" cy="92.81" r="9.5" />
  <circle cx="9.5" cy="65.51" r="9.5" />
  <circle cx="16.96" cy="38.3" r="9.5" />
  <circle cx="37.03" cy="18.47" r="9.5" />
  <circle cx="64.32" cy="11.33" r="9.5" />
  <circle cx="91.53" cy="18.79" r="9.5" />
  <circle cx="111.36" cy="38.86" r="9.5" />
  <circle cx="118.5" cy="66.15" r="9.5" />
  <circle cx="111.04" cy="93.36" r="9.5" />
  <circle cx="90.97" cy="113.19" r="9.5" />
  <circle cx="36.47" cy="112.87" r="9.5" />
  <circle cx="35.15" cy="94.33" r="6.8" />
  <circle cx="24.77" cy="76.09" r="6.8" />
  <circle cx="24.9" cy="55.1" r="6.8" />
  <circle cx="35.51" cy="36.99" r="6.8" />
  <circle cx="53.75" cy="26.61" r="6.8" />
  <circle cx="74.73" cy="26.73" r="6.8" />
  <circle cx="92.85" cy="37.34" r="6.8" />
  <circle cx="103.23" cy="55.58" r="6.8" />
  <circle cx="103.1" cy="76.57" r="6.8" />
  <circle cx="92.49" cy="94.68" r="6.8" />
  <circle cx="74.25" cy="105.06" r="6.8" />
  <circle cx="53.27" cy="104.93" r="6.8" />
  <circle cx="50.15" cy="90.6" r="4.9" />
  <circle cx="39.62" cy="80.36" r="4.9" />
  <circle cx="35.63" cy="66.23" r="4.9" />
  <circle cx="39.23" cy="51.99" r="4.9" />
  <circle cx="49.47" cy="41.46" r="4.9" />
  <circle cx="63.61" cy="37.46" r="4.9" />
  <circle cx="77.85" cy="41.06" r="4.9" />
  <circle cx="88.38" cy="51.31" r="4.9" />
  <circle cx="92.37" cy="65.44" r="4.9" />
  <circle cx="88.77" cy="79.68" r="4.9" />
  <circle cx="78.53" cy="90.21" r="4.9" />
  <path
    d="M64,44.74c-11.65,0-21.1,9.44-21.1,21.09s9.45,21.1,21.1,21.1,21.1-9.44,21.1-21.1-9.45-21.09-21.1-21.09ZM80.75,74.89s-.05.08-.06.13c-.97,1.77-6.24,10.44-16.35,10.44-.26,0-.52-.01-.78-.02-1.88-.08-11.52-.91-16.39-9.42-5.4-9.43.23-18.91.47-19.3,3.99-6.58,12.9-11.7,22.19-8.74,8.94,2.85,14.81,13.47,12.54,22.71-.37,1.51-.91,2.91-1.62,4.2Z" />
  <path
    d="M64.33,49.5c-6.28,0-11.85,3.81-14.67,8.45-.21.35-5.15,8.66-.44,16.89,3.19,5.57,8.79,7.37,12.09,7.96-3.69-1.18-7.04-3.68-9.34-7.08-2.33-3.45-3.01-7.84-1.87-12.04,1.2-4.42,4.18-8.06,8.18-9.98,4.76-2.28,10.87-1.5,15.2,1.94,3.5,2.78,5.37,7.16,4.9,11.43-.66,5.85-5.77,10.98-11.39,11.43-3.06.24-6.27-.9-8.81-3.13-1.84-1.62-3.11-3.6-3.67-5.73-1-3.81.49-8.13,3.63-10.51,3.14-2.38,7.7-2.64,11.1-.65,3.28,1.93,4.84,5.6,3.89,9.15-.85,3.14-3.96,6.22-7.74,5.97-2.33-.16-4.44-1.61-5.39-3.68-.77-1.67-.68-3.75.22-5.42.78-1.44,2.04-2.36,3.57-2.59,1.47-.22,2.99.36,3.87,1.5.95,1.23,1.06,2.98.25,4.27-.57.9-1.53,1.54-2.72,1.81-.65.14-1.28-.26-1.42-.9-.14-.64.26-1.27.9-1.42.55-.12,1-.4,1.22-.75.27-.43.22-1.11-.12-1.54-.35-.45-1.03-.7-1.64-.61-.99.15-1.54.83-1.84,1.37-.54,1-.6,2.33-.15,3.3.58,1.27,1.95,2.19,3.4,2.3,2.48.17,4.69-2.05,5.27-4.21.67-2.5-.45-5.1-2.8-6.48-2.59-1.52-6.07-1.32-8.46.49-2.39,1.81-3.53,5.11-2.77,8.01.44,1.67,1.46,3.24,2.94,4.55,2.06,1.81,4.64,2.74,7.05,2.54,4.55-.36,8.69-4.55,9.22-9.33.39-3.46-1.15-7.03-4.01-9.31-3.64-2.89-8.74-3.56-12.69-1.66-3.37,1.62-5.89,4.7-6.91,8.46-.96,3.53-.39,7.21,1.55,10.08,2.56,3.8,6.63,6.31,10.88,6.72,8.05.78,13.76-4.94,15.24-10.99,1.98-8.1-3.14-17.39-10.96-19.88-1.61-.51-3.21-.75-4.77-.75Z" />
  <path
    d="M64,124.5c-.66,0-1.19-.51-1.19-1.14v-36.52c0-.63.53-1.14,1.19-1.14s1.19.51,1.19,1.14v36.52c0,.63-.53,1.14-1.19,1.14Z" />
</svg>
