<?xml version="1.0" encoding="UTF-8"?><svg xmlns="http://www.w3.org/2000/svg" viewBox="0 0 128 128">
  <path
    d="M42.26,87.16v-41.91l-1.74-10.09c-.28-1.63-1.84-2.73-3.47-2.45l-31.88,5.5c-1.63.28-2.72,1.84-2.44,3.47l9.04,52.4c.28,1.63,1.83,2.73,3.46,2.45l29.63-5.11c-1.54-.8-2.6-2.41-2.6-4.26ZM29,84.39c-.74.14-1.45.21-2.13.21-4.65,0-7.48-3.24-8.6-9.15l-3.79-20.03c-1.28-6.78.9-11.3,6.69-12.39,2.95-.56,5.42-.02,7.37,1.59,1.86,1.55,3.12,4.02,3.75,7.35l.71,4.36-7.12,1.35-.78-4.75c-.2-1.07-.54-1.83-.98-2.21-.22-.18-.6-.41-1.39-.25-.8.15-1.07.5-1.21.74-.27.51-.3,1.35-.1,2.42l3.94,20.8c.52,2.75,1.67,2.54,2.36,2.41.81-.16,1.08-.49,1.21-.73.27-.49.31-1.31.11-2.38l-.82-4.32,7.12-1.35.74,3.94c1.28,6.78-1.3,11.29-7.08,12.39Z" />
  <path
    d="M121.66,35.09l-32.08-4.16c-1.64-.22-3.15.94-3.36,2.59l-2.01,15.5v38.14c0,.97-.29,1.88-.79,2.64l30.63,3.97c1.64.21,3.15-.94,3.36-2.59l6.84-52.73c.21-1.64-.95-3.15-2.59-3.36ZM111.88,51.65l-.43,3.9-7.21-.62.46-4.28c.1-1.11-.01-1.94-.31-2.41-.16-.25-.43-.53-1.21-.6-.66-.06-1.76-.15-2.01,2.7-.28,3.28,1.61,5.56,3.79,8.19,2.72,3.28,5.79,6.99,5.25,13.44-.55,6.45-3.85,10.07-9.12,10.07-.34,0-.68,0-1.04-.04-5.86-.5-8.89-4.73-8.31-11.61l.44-3.83,7.22.61-.48,4.23c-.09,1.08.03,1.89.35,2.35.16.23.46.54,1.28.61.7.05,1.87.15,2.11-2.64.28-3.28.07-5.71-2.39-8.09-3.17-3.06-6.7-7.09-6.15-13.53.29-3.38.78-5.97,2.45-7.69,1.75-1.82,4.15-2.61,7.11-2.35,5.8.49,8.79,4.72,8.2,11.59Z" />
  <path
    d="M79.41,30.98h-32.35c-1.65,0-3,1.35-3,3v53.18c0,1.66,1.35,3,3,3h32.35c.73,0,1.4-.26,1.92-.7.66-.54,1.08-1.37,1.08-2.3v-53.18c0-1.65-1.34-3-3-3ZM72.42,53.14h-7.24v-4.22c0-2.87-1.22-2.87-1.87-2.87s-1.88,0-1.88,2.87v21.16c0,2.81,1.18,2.81,1.88,2.81s1.87,0,1.87-2.81v-6.22h-1.59v-7.6h8.83v13.43c0,6.9-3.38,10.86-9.27,10.86s-9.26-3.96-9.26-10.86v-20.38c0-6.9,3.38-10.86,9.26-10.86s9.27,3.96,9.27,10.86v3.83Z" />
</svg>
