<?xml version="1.0" encoding="UTF-8"?><svg xmlns="http://www.w3.org/2000/svg" viewBox="0 0 128 128">
  <path
    d="M41.6,37.67c-2.94.51-5.84,1.02-8.65,1.5-6.1,1.07-11.79,2.07-16.67,2.92-2.55.45-4.87.86-6.92,1.22-.06.05-.12.1-.18.15-.1.08-.19.16-.28.23,2.17-.34,4.69-.74,7.46-1.17,4.89-.77,10.6-1.67,16.72-2.64,2.59-.41,5.25-.84,7.95-1.27.19-.32.38-.64.58-.95h0Z" />
  <path
    d="M52.06,35.85c-1.4.24-2.8.49-4.19.73-.24.36-.46.71-.67,1.06,1.67-.27,3.34-.53,5.02-.8.3-.05.59-.09.89-.14.09-.19.17-.39.26-.58l.12-.37.04-.16c-.49.09-.98.17-1.47.26h0Z" />
  <path
    d="M104.25,27.6s-.41.05-1.18.15c-.77.1-1.89.25-3.33.44-1.43.19-3.17.43-5.16.72-1.99.29-4.24.6-6.69.97-2.45.36-5.1.77-7.91,1.21-2.81.43-5.76.93-8.81,1.42-5.26.89-10.81,1.88-16.41,2.86-.14.25-.27.5-.41.74-.05.09-.11.18-.16.27-.03.05-.06.1-.09.16,5.89-.93,11.76-1.84,17.28-2.74,3.05-.52,6.01-1.01,8.8-1.51,2.79-.49,5.44-.97,7.87-1.42,2.44-.44,4.67-.88,6.64-1.25s3.7-.7,5.12-.99c1.42-.28,2.53-.51,3.29-.66.76-.16,1.16-.24,1.16-.24l-.02-.12h0Z" />
  <path d="M110.33,35.8c-1.24,1.83-1.28,3.41-.11,4.69,1.54-1.51,1.58-2.95.11-4.69Z" />
  <path
    d="M109.09,50.27c-.04-.06-.09-.13-.14-.19-2-.3-3.94.43-4.66,1.87.95-.02,1.9.16,2.68-.12.79-.28,1.42-1.02,2.12-1.55Z" />
  <path d="M112.44,43.32c-1.79.6-3.25,1.47-3.69,3.56.82-.35,1.72-.59,2.43-1.09.78-.55,1.03-1.51,1.26-2.47h0Z" />
  <path d="M110.11,43.55c2.24-.3,2.9-1.86,3.03-3.86-1.83.8-3.32,2.69-3.03,3.86Z" />
  <path d="M111.05,46.89c-1.99.1-3.98,1.25-4.28,2.5,2.16.48,3.47-.55,4.28-2.5Z" />
  <path d="M101.54,53.9c.99.12,1.9.43,2.72.27.81-.16,1.53-.79,2.29-1.22-2.04-.81-3.85-.44-5.01.95Z" />
  <path d="M102.89,48.88c-1.53.97-1.94,2.37-1.67,4.01,1.55-.46,2.28-2.16,1.67-4.01Z" />
  <path d="M104.75,46.74c-.35.54-.82,1.01-.95,1.56-.2.87-.16,1.79-.23,2.8,1.73-.79,2.21-2.7,1.18-4.36Z" />
  <path d="M107.32,41.9c-.84,1.59-.35,2.98.56,4.29,1.15-1.21.97-2.78-.56-4.29Z" />
  <path d="M109.12,43.23c1.09-.92.41-3.16-1.29-4.01-.5,1.63.14,2.91,1.29,4.01Z" />
  <path d="M106.19,44.48c-.22.59-.58,1.14-.6,1.71-.03.86.18,1.73.3,2.69,1.55-1.13,1.67-3.21.3-4.41h0Z" />
  <path
    d="M40.12,65.15c-1.81.32-3.53.62-5.16.93-2.21.4-4.24.8-6.04,1.15-1.8.36-3.36.67-4.65.95-1.28.27-2.3.48-2.99.64-.69.15-1.05.24-1.05.24l.05.33s.37-.04,1.07-.12c.7-.08,1.73-.21,3.03-.37,1.31-.16,2.89-.37,4.7-.62,1.81-.26,3.86-.54,6.09-.89,1.97-.29,4.08-.63,6.29-.98-.24-.18-.47-.37-.68-.57-.23-.21-.46-.44-.67-.69h0Z" />
  <path
    d="M115.01,53.16s-5.93.96-14.82,2.4c-1.44.23-2.95.47-4.53.73,2.59-.95,5.02-2.21,7.26-3.87,3.46-2.55,6.01-5.77,7.11-10,.13-.5.22-1,.32-1.5-.05-.01-.11-.03-.16-.04-.04.1-.09.19-.11.29-1.53,7.33-6.6,11.43-13.01,14.3-.88.39-1.79.71-2.71,1.02-2.94.47-6.09.98-9.37,1.51-2.78.45-5.65.91-8.57,1.38-2.92.46-5.89.92-8.85,1.39-2.61.4-5.22.8-7.8,1.19-.21.28-.42.56-.65.84-.17.22-.37.44-.58.66.13-.02.25-.04.38-.07,2.91-.53,5.86-1.07,8.82-1.61,2.96-.53,5.91-1.05,8.82-1.58,2.91-.51,5.78-1.01,8.55-1.49,5.55-.97,10.72-1.87,15.16-2.65,8.88-1.54,14.8-2.56,14.8-2.56l-.05-.33h0Z" />
  <path
    d="M65.69,67.62c-.28.11-.57.19-.86.28-.29.08-.59.16-.88.22-.3.06-.59.11-.89.15-.3.04-.6.07-.9.09-.6.05-1.21.06-1.82.04-.6-.02-1.21-.08-1.8-.17-.3-.04-.59-.1-.89-.16-.29-.06-.58-.13-.88-.21-1.14-.32-2.24-.83-3.2-1.54.64.41,1.32.74,2.03.99.98.35,2.01.55,3.04.65,1.03.1,2.07.09,3.1-.02.51-.06,1.03-.13,1.53-.24.5-.12,1-.27,1.49-.43v-.04c-.5.16-1,.3-1.5.4-.5.1-1.02.17-1.53.21-1.02.09-2.06.09-3.07-.03-1.02-.12-2.03-.33-2.99-.69-.96-.35-1.86-.86-2.65-1.49l-.31-.3h0c-.26-.22-.51-.44-.75-.68.66-.12,1.33-.24,2-.36.57-.3,1.11-.61,1.61-.95.45-.3.86-.6,1.23-.91-2.02.32-4.02.63-5.97.93,0,0,0,0,0,0-.6-.92-1.06-1.92-1.4-2.96-.35-1.08-.56-2.21-.62-3.34-.07-1.13.02-2.27.23-3.39.11-.56.24-1.1.41-1.65.17-.54.38-1.06.61-1.58.24-.52.5-1.01.8-1.51.28-.5.59-.97.93-1.42.68-.9,1.51-1.7,2.45-2.34.94-.64,1.99-1.14,3.11-1.38v-.04c-.58.07-1.15.22-1.69.42-.55.2-1.07.47-1.57.77-.5.3-.98.65-1.41,1.04-.44.39-.84.82-1.21,1.28-.37.46-.71.94-1.01,1.44-.3.49-.59,1.01-.84,1.53-.25.53-.46,1.08-.64,1.64-.18.56-.31,1.14-.41,1.71-.19,1.15-.27,2.33-.17,3.5.07.8.21,1.58.42,2.34-.05-.16-.11-.33-.15-.49-.34-1.24-.48-2.52-.43-3.8.05-1.28.27-2.55.66-3.77.19-.61.44-1.2.71-1.77.27-.58.6-1.13.94-1.67.68-1.08,1.5-2.07,2.5-2.86,1.01-.77,2.14-1.41,3.38-1.72.62-.15,1.26-.23,1.9-.21.64.02,1.28.16,1.85.45l.02-.04c-.56-.34-1.21-.52-1.87-.57-.66-.06-1.32,0-1.97.13-1.3.27-2.5.88-3.56,1.67-1.06.8-1.95,1.81-2.66,2.92-.35.56-.68,1.12-.97,1.71-.29.59-.53,1.21-.73,1.84-.39,1.26-.59,2.58-.62,3.89-.03,1.32.14,2.64.5,3.9.35,1.26.9,2.48,1.61,3.58.18.28.36.55.57.81-.12.02-.23.04-.34.05-1.77.28-3.5.58-5.19.86.48.3.98.55,1.5.76.34.13.63.23.87.3.05.01.1.03.16.04.96-.16,1.92-.33,2.91-.5.41-.07.83-.15,1.24-.22.05.04.09.1.14.14.41.46.86.89,1.33,1.28h0s.31.3.31.3h0c.95.81,2.07,1.4,3.25,1.79.59.19,1.2.33,1.82.42.61.1,1.23.14,1.85.16.62.01,1.24-.01,1.86-.08.31-.03.62-.07.92-.12.3-.05.61-.11.91-.19.3-.08.59-.17.89-.27.29-.1.59-.19.87-.33.56-.27,1.08-.62,1.54-1.02l-.03-.04c-.5.35-1.03.66-1.59.88h0Z" />
  <path
    d="M100.02,47.69c.03-.07.07-.14.1-.21.06-.2-.03-.36-.23-.43l-.08-.03-.07.05c-.13.09-.2.18-.23.27-.01.04-.04.08-.08.15-.58,1.18-1.12,2.12-1.59,2.79-.48.67-.9,1.18-1.25,1.52-.34.33-.64.54-.89.63-.19.07-.36.11-.48.11-.03,0-.05,0-.1,0-.19,0-.31-.08-.37-.24-.01-.03-.02-.07-.03-.1,0-.05,0-.1,0-.15,0-.31.04-.67.12-1.1.18-.8.42-1.68.72-2.63.3-.95.61-1.84.91-2.66.3-.82.69-1.82,1.17-2.98.07-.17.15-.41.23-.73.07-.32.11-.67.09-1.06,0-.12-.02-.24-.04-.35,0-.08,0-.15,0-.23-.01-.41-.11-.79-.27-1.13-.18-.35-.51-.63-1-.83-.77-.31-1.57-.24-2.35.22-.75.44-1.46,1.06-2.1,1.83-.64.76-1.2,1.58-1.66,2.42-.02.03-.03.06-.05.09.09-.35.19-.71.31-1.06.22-.68.43-1.35.63-2,.65-.42,1.21-.99,1.68-1.71.47-.72.9-1.48,1.28-2.26.53-1.12.87-2.05,1-2.79.13-.74.17-1.31.1-1.72,0-.06-.02-.11-.04-.15,0-.22,0-.42-.03-.59-.09-.54-.39-.62-.56-.62-.03,0-.07,0-.08,0-.38,0-.82.36-1.41,1.14-.54.72-1.13,1.71-1.76,2.94s-1.26,2.7-1.87,4.37c-.61,1.67-1.15,3.5-1.61,5.46-.16.6-.33,1.4-.51,2.37-.13.68-.26,1.39-.39,2.1-.25-.14-.53-.25-.85-.31-.57-.11-1.13-.18-1.65-.2-.29-1.05-.54-2.08-.75-3.08-.25-1.2-.26-2.32-.03-3.39.37-.89.98-1.66,1.85-2.32.13-.12.3-.28.5-.47.2-.19.26-.38.18-.57-.07-.1-.13-.18-.2-.24.06-.18.03-.34-.03-.47-.33-.5-.74-.63-1.15-.37-.35.22-.69.57-1.02,1.03-.32.45-.61.92-.88,1.42-.33.62-.41.87-.44,1-.4.74-.82,1.6-1.25,2.55l-2.65,5.77c-.43.95-.86,1.81-1.26,2.55h0s-.04.05-.05.09l-.02.04h0s0,.03,0,.04c-.04.15-.07.21-.1.26-.58,1.18-1.1,2.12-1.56,2.79-.45.66-.87,1.17-1.25,1.51-.37.34-.67.55-.89.63-.18.06-.33.1-.44.1-.03,0-.05,0-.1,0,0,0-.02,0-.03,0-.05-.17-.07-.35-.06-.54,0-.31.04-.68.12-1.1.18-.8.45-1.79.82-2.96.37-1.17.75-2.3,1.13-3.39.38-1.09.73-2.03,1.04-2.8.31-.77.46-1.18.45-1.23.07-.17.05-.52-.06-1.07-.1-.48-.28-.86-.53-1.16-.13-.32-.29-.59-.5-.8-.35-.4-.83-.61-1.43-.62h-.06c-.56,0-1,.19-1.33.55-.06.03-.14.1-.16.25-.03.14.03.27.14.35l.04.02c.16.05.35,0,.61-.19.32-.28.62-.39.89-.33.09.02.17.05.25.09-.47.02-.84.19-1.11.51-.05,0-.08.05-.09.13-.01.08,0,.14.07.18.11.04.26-.02.44-.15.36-.32.7-.44,1.02-.36.04,0,.07.02.1.03.01.13,0,.48-.27,1.35-.11.35-.21.68-.32,1-.1-.22-.23-.41-.38-.58-.27-.57-.69-1-1.28-1.26-.59-.23-1.25-.26-1.96-.09-.7.17-1.4.52-2.09,1.03-.68.51-1.34,1.2-1.94,2.04-.6.84-1.13,1.78-1.59,2.8-.91,2.1-1.27,4.09-1.04,5.9.23,1.84.94,3.07,2.14,3.64.31.13.63.21.93.24.97.34,1.89.14,2.75-.6.58-.5,1.13-1.16,1.67-1.99.02.13.04.25.07.35.17.5.38.87.65,1.11.2.18.47.27.79.28.23.15.54.2.93.14.55-.09,1.1-.43,1.65-1.01.55-.58,1.03-1.19,1.44-1.82.44-.74.89-1.62,1.34-2.62.02-.03.04-.06.05-.1h0c.7-1.35,1.46-2.95,2.29-4.82.6-1.37,1.19-2.63,1.74-3.78.05,1.59.24,3.15.59,4.66-1.13.23-2.05.81-2.75,1.72-.73.96-1,2.09-.79,3.35.16.97.6,1.62,1.3,1.93.12.05.23.09.35.13.05.03.1.06.16.08.64.28,1.3.31,1.98.09.68-.22,1.28-.64,1.8-1.27.51-.63.75-1.37.71-2.24-.03-.46-.16-.95-.4-1.48-.24-.52-.44-1.09-.59-1.68.57,0,1.14.08,1.74.21.16.04.31.09.45.14-.02.09-.03.18-.05.27-.19,1.02-.35,1.98-.47,2.87-.12.89-.17,1.52-.16,1.92.02.11,0,.15,0,.16-.06.2.15.35.21.4l.03.02s.1.03.15.03c.04,0,.08,0,.12-.02-.02.05.03.12.15.21.17.07.37-.09.61-.49l.2-.65c.32-1.5.61-2.82.88-3.97.27-1.15.59-2.33.96-3.52.22-.55.55-1.25,1-2.1.45-.85.97-1.66,1.57-2.42.59-.77,1.23-1.4,1.92-1.9s1.41-.66,2.16-.48c0,0,.01,0,.02,0,.04.29.03.41,0,.46-.15.71-.32,1.46-.52,2.23-.21.79-.43,1.55-.68,2.26-.27.81-.55,1.67-.83,2.57-.61,1.81-.89,3.11-.89,3.96,0,.88.15,1.49.44,1.83.12.17.27.29.46.38.27.31.68.42,1.24.32.55-.09,1.09-.43,1.61-1,.52-.58,1.01-1.19,1.47-1.83.44-.74.89-1.62,1.34-2.62.03-.11,0-.18-.11-.21h0ZM94.76,30.77c.01.06.02.13.03.19-.12.06-.26.16-.4.3.12-.25.24-.42.38-.5h0ZM93.05,35.33c.31-.77.59-1.46.85-2.07.18-.44.37-.87.56-1.29.11-.23.22-.4.35-.52-.02.38-.1.82-.26,1.32-.3.95-.59,1.72-.86,2.28-.3.67-.66,1.31-1.07,1.92-.1.15-.21.29-.32.43.26-.74.51-1.44.76-2.07h0ZM91.69,39.07c.5-.39.94-.88,1.31-1.46.44-.68.85-1.4,1.22-2.13-.04.1-.09.2-.13.29-.3.67-.66,1.31-1.07,1.92-.41.61-.87,1.11-1.37,1.5.01-.04.03-.08.04-.12h0ZM68.17,57.02c-.23,0-.48-.05-.74-.17-.09-.03-.18-.08-.26-.12-.11-.14-.21-.29-.3-.46-.27-.55-.44-1.2-.52-1.96s-.03-1.59.12-2.49c.16-.9.42-1.8.79-2.68.79-1.78,1.75-3.21,2.88-4.3,1.09-1.05,2.09-1.39,3-1.06.26.25.42.59.5,1.03.12.71.08,1.58-.1,2.57-.25.8-.45,1.52-.62,2.19-.16.64-.28,1.09-.35,1.32-.09.13-.15.29-.18.47-.02.14-.07.25-.14.35l-.02.03c-.79,1.78-1.58,3.21-2.37,4.24-.53.7-1.1,1.06-1.69,1.06h0ZM69.49,57.36c.75-.66,1.46-1.59,2.14-2.77-.01.1-.02.19-.02.28-.34.58-.67,1.09-1,1.53-.35.47-.73.78-1.11.95h0ZM82.14,43.56c-.43.95-.87,1.9-1.3,2.84s-.87,1.9-1.3,2.84-.85,1.79-1.24,2.52h0s-.05.07-.06.12c-.03.13-.06.23-.11.29-.58,1.18-1.09,2.1-1.55,2.77-.46.67-.87,1.18-1.25,1.52s-.69.57-.93.66c-.19.07-.36.11-.5.11.48-.16.95-.49,1.42-.98.56-.59,1.05-1.22,1.48-1.88.44-.74.89-1.6,1.33-2.59h0s.09-.17.09-.17c.71-1.37,1.49-3.02,2.32-4.9.7-1.58,1.38-3.05,2.03-4.37v.28c-.14.3-.29.6-.43.92h0ZM80.25,53.3c-.33-1.17-.16-2.22.49-3.14.64-.89,1.49-1.45,2.53-1.66.01.07.03.14.04.22-.93.25-1.7.77-2.3,1.55-.67.88-.92,1.89-.76,3.02h0ZM84.04,51.69c-.02.49-.19.98-.5,1.45-.32.47-.7.82-1.13,1.04-.42.21-.83.28-1.23.21-.18-.04-.35-.14-.5-.3-.05-.09-.09-.19-.14-.3-.36-1.23-.19-2.32.5-3.29.59-.83,1.36-1.37,2.29-1.63.11.51.25.98.42,1.41.21.54.31,1.01.27,1.41h0ZM84.93,48.5s-.02-.08-.04-.12c.46.03.92.09,1.39.19.13.03.26.07.37.12-.61-.12-1.19-.18-1.73-.19h0ZM94.64,39.31c-.73.43-1.4,1.02-2.02,1.77-.62.75-1.16,1.53-1.62,2.36-.46.82-.8,1.48-1.02,1.98.04-.23.07-.43.1-.61.17-.35.36-.72.58-1.13.45-.85.98-1.67,1.57-2.44.59-.76,1.23-1.4,1.92-1.9.66-.48,1.37-.62,2.04-.46.05.02.1.04.15.09-.56-.11-1.13,0-1.69.34h0Z" />
  <path
    d="M101.4,65.59c.12-.36.19-.74.19-1.15,0-1-.4-1.86-1.18-2.55l-.15-.13-.57.57.17.15c.61.53.9,1.15.9,1.92,0,.31-.04.6-.12.86-.04.12-.07.21-.1.28l-3.86-4.35c-.19-.2-.3-.42-.32-.62,0-.11.02-.37.62-.37h3.26v-.8h-3.39c-.51,0-1.16.21-1.34,1.24v.05c.01.16.07.33.18.52.08.14.19.31.36.53-.48.33-.84.72-1.07,1.14-.27.48-.41.99-.42,1.52.01.54.14,1.06.39,1.53.25.48.54.84.87,1.05.25.2.58.38.99.52.41.14.84.21,1.28.21.93,0,1.76-.29,2.46-.86l.55.73h1.08l-1.05-1.35c.1-.15.19-.36.28-.64h0ZM95.76,65.63c-.22-.39-.34-.81-.35-1.24.01-.43.13-.84.35-1.21.19-.33.48-.61.86-.84l3.38,3.88c-.43.41-1.07.63-1.9.66-.6-.02-1.1-.14-1.48-.35-.35-.2-.64-.5-.86-.89h0Z" />
  <path
    d="M107.94,59.72c-.59.22-1.13.64-1.6,1.23-.47.59-.74,1.39-.8,2.4,0,.67.12,1.29.35,1.83.23.54.55.99.94,1.35s.83.62,1.32.8c.49.18.99.27,1.51.27h1.14v-.83h-1.1c-1.13-.08-1.97-.43-2.49-1.05-.52-.62-.79-1.41-.79-2.33.02-.42.1-.82.25-1.2.14-.37.35-.72.61-1.01.27-.29.6-.53.99-.7.4-.17.87-.27,1.39-.27h1.16v-.8h-1.23c-.5,0-1.06.11-1.64.33h0Z" />
  <path
    d="M119.04,61.93c-.2-.5-.49-.96-.86-1.36-.37-.4-.82-.73-1.33-.96-.51-.24-1.08-.35-1.68-.35-.65,0-1.25.13-1.77.39-.52.26-.97.6-1.32,1.02-.35.42-.62.88-.8,1.37s-.27.99-.27,1.48.09.96.27,1.45c.18.49.45.95.81,1.36.36.42.8.75,1.32,1,.52.25,1.11.38,1.76.38.82,0,1.55-.2,2.18-.61.63-.4,1.12-.94,1.46-1.59.34-.65.52-1.33.53-2.03,0-.53-.1-1.05-.3-1.55h0ZM112.32,65.13c-.27-.52-.41-1.07-.42-1.63,0-.54.13-1.08.4-1.6.26-.53.64-.97,1.14-1.3.49-.33,1.07-.5,1.73-.5.68.02,1.27.19,1.75.53.49.34.87.77,1.12,1.28.25.52.38,1.05.38,1.57,0,.38-.08.78-.21,1.17-.13.39-.34.76-.61,1.1-.27.33-.61.6-1.02.81-.41.2-.88.31-1.41.32-.65,0-1.22-.16-1.71-.48-.49-.32-.88-.75-1.14-1.26h0Z" />
  <path
    d="M63.7,49.46c-.08-1.06-.33-2.11-.8-3.07-.24-.48-.54-.92-.91-1.3-.37-.38-.82-.69-1.29-.91l-.02.04c.47.24.89.55,1.24.94s.63.83.85,1.3c.42.95.63,1.99.69,3.03.06,1.04-.04,2.09-.2,3.12-.17,1.03-.46,2.03-.81,3.02-.17.5-.37.97-.57,1.47-.19.48-.42.95-.67,1.41-.5.91-1.09,1.78-1.71,2.62-.09.12-.18.23-.27.35.06-.12.12-.24.18-.37l-.02.03c.27-.5.53-1,.76-1.52.18-.39.36-.78.5-1.19.4-.71.76-1.44,1.04-2.2.35-.88.66-1.77.89-2.68.24-.91.39-1.84.46-2.78.07-.94.07-1.89-.09-2.82h-.04c.15.93.14,1.88.06,2.81-.08.94-.24,1.86-.48,2.77-.24.9-.56,1.79-.91,2.66-.34.88-.76,1.71-1.25,2.51-.04.06-.08.12-.12.19-.13.18-.26.36-.39.54-.34.44-.69.88-1.04,1.31l-.02.03c-.4.58-.88,1.1-1.4,1.57-.52.48-1.08.9-1.67,1.29-.58.39-1.2.75-1.82,1.06-.16.08-.31.16-.47.23-.16.08-.28.12-.45.19-.32.12-.64.23-.97.33-.65.19-1.3.32-1.96.38-.68.06-1.35.09-1.97.04-.3-.03-.61-.08-.85-.15-.28-.08-.6-.19-.89-.31-.6-.24-1.17-.53-1.71-.88-.13-.09-.27-.18-.39-.27l-.21-.16-.17-.13c-.24-.19-.46-.39-.66-.6-.41-.43-.73-.88-.97-1.39l-.26-.5c-.07-.14-.14-.29-.2-.43-.13-.29-.24-.58-.34-.88-.1-.29-.18-.59-.25-.89l-.04-.21-.04-.25-.08-.5c-.1-.67-.16-1.34-.19-2.01v-.5s-.01-.23-.01-.23v-.49l.02-.25v-.16c.83-.64,1.56-1.26,2.19-1.84,1.25-1.15,2.15-2.13,2.74-2.81.3-.34.52-.61.67-.79s.23-.27.23-.27l-.04-.03s-.08.09-.23.27c-.16.18-.38.44-.69.76-.61.66-1.54,1.61-2.82,2.71-.59.52-1.27,1.07-2.02,1.64.03-.33.06-.66.11-.98l.04-.25c1.88-1.49,3.46-3.05,4.76-4.53,1.38-1.59,2.45-3.09,3.25-4.37.8-1.28,1.34-2.34,1.7-3.06.34-.73.52-1.13.52-1.13l-.04-.02s-.19.39-.53,1.12c-.37.72-.91,1.77-1.72,3.05-.81,1.27-1.88,2.76-3.27,4.34-1.28,1.43-2.81,2.94-4.63,4.38h0s.1-.54.1-.54l.38-2.1c.27-1.04.59-2.08.96-3.12l.58-1.59.3-.8.31-.78c.43-1.03.89-2.05,1.38-3.05.25-.5.51-1,.78-1.49l.4-.73.42-.74c.56-.96,1.17-1.89,1.82-2.8.32-.45.66-.9,1-1.34l.52-.65c.18-.22.34-.42.54-.64.36-.42.72-.82,1.11-1.2.39-.38.78-.74,1.2-1.08.74-.59,1.53-1.11,2.38-1.54,0,.26,0,.56-.03.86-.04.41-.09.84-.16,1.26-.06.43-.14.84-.22,1.28l-.02.08v.04s0,0,0,0h0s0-.01,0,0v.02l-.04.16-.07.31c-.05.21-.11.42-.16.63-.11.42-.23.84-.35,1.26l-.37,1.26-.12.39c-.67,1.59-1.42,3.14-2.24,4.66l.04.02c.85-1.46,1.64-2.96,2.34-4.5.09-.15.18-.29.26-.44.22-.38.43-.77.64-1.16.2-.39.4-.79.59-1.19.1-.2.19-.4.28-.61l.14-.31.07-.15.07-.17c.16-.41.31-.84.44-1.27.14-.43.27-.86.38-1.31.05-.23.1-.46.14-.7.04-.24.07-.49.07-.78,0-.07,0-.14,0-.23v-.09s0-.02,0-.02v-.04s-.02-.04-.02-.04c0,0,0-.02-.01-.06-.01-.05-.03-.09-.04-.13,1.29.07,2.33.17,3.07.26.45.05.79.1,1.02.13.23.03.35.05.35.05v-.04s-.11-.02-.35-.05c-.23-.04-.58-.09-1.02-.15-.75-.1-1.82-.23-3.14-.33-.01-.03-.02-.06-.04-.09-.06-.12-.15-.25-.27-.36-.23-.23-.54-.35-.78-.39-.25-.04-.44-.03-.61,0h-.04l-.14.05c-.05-.02-.11-.04-.17-.04-.18-.04-.36-.04-.54-.03-.36.02-.7.1-1.04.2h-.02c-.33.17-.66.35-.97.53-2.87.03-6.3.27-10.12.9-2.86.48-5.94,1.16-9.12,2.12-3.18.96-6.48,2.18-9.79,3.67-3.3,1.5-6.62,3.29-9.79,5.4-3.16,2.11-6.23,4.55-8.74,7.52-1.24,1.49-2.36,3.12-3.01,4.96-.27.79-.45,1.63-.46,2.47-.31-1.21-.19-2.51.23-3.69.55-1.57,1.51-2.96,2.56-4.22.73-.86,1.51-1.65,2.32-2.41.26-.04.52-.08.79-.12.12-.11.24-.22.35-.33-.28.05-.55.1-.82.14.27-.24.54-.49.82-.72,2.45-2.08,5.06-3.81,7.58-5.34,2.53-1.52,5.01-2.83,7.34-3.93,2.33-1.11,4.51-2.04,6.47-2.78s3.7-1.32,5.14-1.75c1.44-.43,2.6-.7,3.39-.87.4-.08.7-.14.9-.18.2-.04.31-.06.31-.06v-.04s-.11.02-.32.05c-.21.03-.51.08-.91.16-.8.15-1.96.39-3.42.79-1.46.39-3.22.94-5.19,1.66s-4.18,1.61-6.53,2.7c-2.35,1.09-4.85,2.37-7.41,3.89-1.28.75-2.57,1.57-3.85,2.47-1.28.89-2.56,1.85-3.8,2.9-.45.39-.9.79-1.34,1.2-3.62.64-5.74,1.01-5.74,1.01l.02.12s1.99-.31,5.41-.85c-.65.63-1.28,1.29-1.88,1.99-1.08,1.28-2.05,2.73-2.62,4.37-.28.82-.44,1.7-.41,2.58.03.88.25,1.77.66,2.55.03.06.07.12.1.17.15.58.41,1.14.75,1.64.55.79,1.22,1.48,1.96,2.07.74.58,1.56,1.07,2.4,1.48,1.69.8,3.48,1.31,5.27,1.61,1.68.28,3.35.4,4.99.4,1.86,0,3.69-.16,5.44-.42,3.29-.51,6.34-1.4,9.03-2.49,2.03-.83,3.87-1.75,5.5-2.7.06.32.12.64.2.96.23.92.53,1.83.9,2.7.39.87.88,1.7,1.48,2.44.19.23.39.46.59.68.35.49.75.94,1.18,1.34.33.3.67.57,1.03.82l.28.19.25.15c.19.12.37.22.55.32.74.4,1.51.72,2.31.96.4.12.79.22,1.23.3.48.08.91.1,1.34.1.86-.01,1.66-.13,2.43-.3.8-.17,1.58-.42,2.31-.74.37-.16.73-.34,1.07-.53.16-.09.38-.21.53-.31.17-.11.33-.21.49-.33.64-.45,1.24-.93,1.81-1.45.19-.17.37-.35.55-.53.19-.16.39-.32.57-.49.39-.35.78-.76,1.11-1.16.34-.42.65-.84.96-1.27.62-.85,1.22-1.74,1.72-2.68.25-.47.48-.95.67-1.45.19-.49.39-.98.56-1.48.35-1,.62-2.03.78-3.09.15-1.05.22-2.11.14-3.18l.02.03ZM53.24,27.08c.32-.1.64-.19.97-.21.09,0,.19,0,.28,0-.43.15-.84.32-1.26.51-.17,0-.33,0-.5,0h-.01c.18-.1.35-.2.53-.29h0ZM31,59.83c-1.34.53-2.76,1.01-4.25,1.44-1.49.43-3.06.78-4.69,1.06-1.63.27-3.32.46-5.05.51-.33,0-.66.02-.99.02-1.42,0-2.86-.09-4.3-.33-1.78-.29-3.57-.76-5.24-1.57-.83-.41-1.63-.89-2.36-1.48-.72-.59-1.39-1.27-1.91-2.05-.17-.26-.31-.52-.43-.81.82,1.14,1.9,2.07,3.09,2.8,1.5.9,3.16,1.5,4.84,1.91,1.69.39,3.4.6,5.11.66,3.41.12,6.77-.31,9.92-1.06,3.15-.76,6.11-1.84,8.78-3.15,1.02-.5,2-1.03,2.93-1.58l.12.84s0,.05.01.08c-1.65.96-3.52,1.88-5.58,2.7h0ZM36.54,51.29c-.23,1.44-.28,2.91-.18,4.36h0s.05.36.05.36c-.95.56-1.95,1.09-2.99,1.59-2.66,1.28-5.61,2.35-8.75,3.09-3.14.73-6.47,1.14-9.85,1-1.69-.07-3.38-.28-5.04-.67-1.65-.41-3.28-1-4.73-1.89-1.44-.88-2.73-2.08-3.5-3.57-.07-.12-.12-.25-.18-.38-.01-.12-.02-.24-.03-.36-.04-.94.15-1.88.47-2.77.66-1.79,1.77-3.38,3.01-4.84,1.25-1.45,2.66-2.77,4.14-3.99,1.48-1.21,3.02-2.34,4.6-3.38,3.16-2.08,6.47-3.83,9.75-5.32,3.29-1.49,6.56-2.71,9.73-3.67,3.16-.97,6.21-1.7,9.05-2.2,2.84-.51,5.48-.8,7.82-.94.64-.04,1.25-.06,1.84-.08-.8.47-1.57.99-2.29,1.57-.57.45-1.11.93-1.64,1.43s-1.04,1.01-1.53,1.54c-.5.53-.96,1.08-1.43,1.63-.47.55-.92,1.12-1.36,1.7-.88,1.15-1.67,2.37-2.4,3.63-.73,1.26-1.37,2.56-1.96,3.88s-1.1,2.68-1.54,4.07c-.22.69-.42,1.39-.6,2.09-.19.7-.35,1.42-.45,2.14h0ZM36.79,56c.05-.03.1-.06.15-.09,0,.12,0,.25.02.37h0s.08.58.08.58c-.04.03-.09.05-.13.08l-.12-.93h0ZM38.06,61.02c-.36-.85-.65-1.74-.87-2.65-.08-.35-.15-.72-.21-1.08.04-.03.09-.05.13-.08l.09.64c.09.52.2,1.04.34,1.55.16.58.35,1.15.57,1.72-.02-.04-.03-.07-.05-.1h0ZM37.4,52.83c-.05.4-.1.81-.13,1.21-.01.2-.03.4-.04.6v.3s0,.2,0,.2v.37s-.03.02-.04.03c-.03-1.2.05-2.39.25-3.56.11-.68.26-1.35.45-2.01l-.3,1.69-.1.55c-.04.2-.06.41-.09.61h0ZM37.3,56.71s-.02.01-.03.02l-.06-.47c0-.17,0-.34-.02-.5.02,0,.03-.02.05-.03v.14l.04.61c0,.08.02.15.02.23h0ZM39.68,43.64c-.58,1.33-1.09,2.68-1.52,4.07-.21.69-.41,1.39-.59,2.09-.19.7-.34,1.42-.44,2.13-.19,1.24-.25,2.51-.19,3.76-.06.04-.12.07-.17.1l-.03-.18c-.09-1.43-.03-2.85.21-4.26.12-.71.27-1.4.46-2.09.19-.7.39-1.38.61-2.06.44-1.36.95-2.71,1.53-4.02s1.22-2.6,1.94-3.84c.72-1.24,1.51-2.44,2.36-3.59.43-.58.87-1.14,1.33-1.69.46-.55.92-1.11,1.4-1.63.96-1.06,2-2.06,3.1-2.97.82-.68,1.7-1.29,2.62-1.83.16,0,.31,0,.47,0-.43.22-.86.45-1.27.72-.53.34-1.04.7-1.52,1.09-.48.39-.95.81-1.39,1.23-.2.19-.44.43-.65.64-.21.21-.42.43-.63.66-.41.44-.81.9-1.2,1.36-.73.87-1.4,1.78-2.04,2.72-.02.03-.04.06-.07.09-.87,1.16-1.66,2.38-2.38,3.64-.72,1.26-1.36,2.56-1.94,3.89h0Z" />
  <path
    d="M49.51,26.47s.33-.05.92-.11c.29-.03.65-.05,1.06-.09.41-.02.87-.06,1.38-.07.5-.01,1.05-.03,1.64-.02.58,0,1.19.01,1.83.04.63.02,1.28.09,1.95.13.66.08,1.34.13,2,.23.66.12,1.34.19,1.99.35.65.14,1.29.26,1.9.44.61.16,1.2.32,1.75.52.27.1.54.19.8.27.13.04.26.09.38.13.12.05.24.1.36.15.47.2.89.38,1.27.55.37.18.68.36.95.49.52.28.82.44.82.44,0,0-.31-.14-.84-.39-.27-.12-.58-.29-.96-.45-.38-.15-.82-.31-1.28-.5-.12-.04-.24-.09-.36-.14-.12-.04-.25-.08-.38-.12-.26-.08-.53-.17-.8-.25-.55-.19-1.14-.32-1.75-.48-.61-.17-1.25-.28-1.9-.42-.65-.15-1.31-.22-1.98-.33-.66-.1-1.33-.17-1.99-.25-.66-.05-1.31-.12-1.94-.15s-1.24-.07-1.82-.08c-.58-.02-1.13-.02-1.63-.02-1.01,0-1.85.03-2.44.06-.59.03-.92.06-.92.06h0Z" />
  <path
    d="M40.38,70.69s21.81-.08,43.62-.17c2.73-.01,5.45-.02,8.14-.04,2.68,0,5.32,0,7.88-.01,2.56,0,5.03,0,7.37,0,2.34.01,4.56.03,6.6.04,2.05.02,3.92.04,5.58.05,1.66.02,3.11.04,4.3.05,2.38.04,3.75.06,3.75.06v.05s-1.36.02-3.75.06c-1.19.02-2.64.04-4.3.05-1.66.02-3.53.04-5.58.05-2.05.01-4.26.03-6.6.04-2.34.02-4.81,0-7.37,0-2.56,0-5.2,0-7.88-.01-2.68-.01-5.41-.02-8.14-.04-21.81-.08-43.62-.17-43.62-.17v-.05h0Z" />
  <path
    d="M40.75,78.26s21.81-.08,43.62-.17c2.73-.01,5.45-.02,8.14-.04,2.68,0,5.32,0,7.88-.01,2.56,0,5.03,0,7.37,0,2.34.01,4.56.03,6.6.04,2.05.02,3.92.04,5.58.05,1.66.02,3.11.04,4.3.05,2.38.04,3.75.06,3.75.06v.05s-1.36.02-3.75.06c-1.19.02-2.64.04-4.3.05-1.66.02-3.53.04-5.58.05-2.05.01-4.26.03-6.6.04-2.34.02-4.81,0-7.37,0-2.56,0-5.2,0-7.88-.01-2.68-.01-5.41-.02-8.14-.04-21.81-.08-43.62-.17-43.62-.17v-.05h0Z" />
  <path
    d="M42.38,71.87h2.89c.36,0,.62.01.77.03.15.02.29.07.42.15.11.06.2.14.28.23s.14.2.18.31.06.23.06.35c0,.17-.04.32-.12.45s-.19.24-.33.33-.3.14-.47.15c.19,0,.38.05.55.13s.32.18.44.31c.12.13.22.28.28.45s.1.36.1.57c0,.29-.07.55-.2.8h-1.49v-.2h.65c.03-.09.05-.14.05-.15h-.71v-.2h.74s0-.08.02-.16h-.76v-.2h.76s0-.08-.02-.13v-.03h-.74v-.2h.7v-.03s-.04-.09-.05-.13h-.64v-.2h.53c-.04-.06-.09-.11-.13-.15h-.4v-.23c-.17-.04-.38-.06-.64-.06h-.68v2.45h-1.53v-.2h.66v-.16h-.66v-.2h.66v-.15h-.66v-.2h.66v-.16h-.66v-.2h.66v-.15h-.66v-.2h.66v-.16h-.66v-.2h.66v-.15h-.66v-.2h.66v-.16h-.66v-.2h.66v-.15h-.66v-.2h.66v-.16h-.66v-.2h.66v-.15h-.66v-.2h.66v-.16h-.66v-.2h.66v-.15h-1.17s0-.11-.01-.21c0-.03,0-.06,0-.1h0ZM42.38,76.96v-.08c.04-.29.06-.66.08-1.12s.03-.92.03-1.41c0-.61-.02-1.24-.06-1.91v-.11s.34,0,.34,0v4.32h2.54v-2.45c.13,0,.24.02.31.04v2.05h1.53c-.19.25-.4.42-.63.52s-.53.15-.91.15h-3.22ZM46.09,72.54h-.34v-.25c-.11-.04-.23-.07-.36-.09-.13-.01-.35-.02-.67-.02h-.29v1.54h.86v-1.35h.03c.1,0,.19.02.28.04v1h.45c.04-.05.07-.11.1-.16h-.4v-.2h.45c0-.05,0-.08,0-.09v-.06h-.46v-.2h.42c-.02-.05-.05-.11-.08-.16h0Z" />
  <path
    d="M49.45,76.5v-.2h.66v-.16h-.66v-.2h.66v-.15h-.66v-.2h.66v-.16h-.66v-.2h.66v-.15h-.66v-.2h.66v-.16h-.66v-.2h.66v-.15h-.66v-.2h.66v-.16h-.66v-.2h.66v-.15h-.66v-.2h.66v-.16h-.66v-.2h.66v-.15h-.66v-.2h.66v-.16h-.66v-.2h.66v-.15h-1.17s0-.11-.01-.21c0-.03,0-.06,0-.1h2.64c.32,0,.53,0,.65.01.35.02.65.1.91.24s.46.33.6.56c.14.24.21.5.21.8,0,.22-.04.44-.13.64-.08.2-.2.38-.36.53s-.34.26-.54.34l.04.07c.22.4.5.84.82,1.33l.07.11h-1.62l-.12-.2h.7l-.09-.16h-.69l-.12-.2h.69l-.09-.15h-.69l-.12-.2h.69l-.09-.16h-.69l-.12-.2h.69l-.09-.15h-.7l-.16-.28c.11.01.23.02.37.02.11,0,.21,0,.31-.02v-2.4c.12,0,.22.03.31.06v2.06h.5c.05-.05.09-.1.12-.15h-.46v-.2h.57s.03-.08.05-.13v-.03s-.62,0-.62,0v-.2h.69c0-.06.01-.11.02-.15h-.71v-.2h.71s0-.05,0-.13v-.03h-.71v-.2h.66s-.03-.09-.05-.15h-.61v-.2h.49c-.04-.06-.08-.11-.13-.16h-.36v-.25c-.2-.07-.52-.11-.98-.11h-.37v2.53l1.15,1.94h1.83s.02.03.04.04.02.02.02.04l.13.17s.02.02.03.03c.01.01.02.03.03.04h-2.3l-.03-.07c-.21-.43-.35-.72-.44-.87-.18-.34-.33-.59-.45-.77v1.25h-1.54v-.02ZM48.92,76.96v-.08c.04-.29.06-.66.08-1.12s.03-.92.03-1.41c0-.61-.02-1.24-.06-1.91v-.11s.34,0,.34,0v4.32h1.7v.31h-2.07Z" />
  <path
    d="M59.02,76.29h1.12c-.18.17-.37.32-.58.43-.21.12-.43.2-.67.26s-.49.09-.75.09c-.37,0-.72-.06-1.05-.18-.33-.12-.62-.3-.88-.53-.27-.25-.49-.55-.64-.89s-.23-.69-.23-1.05c0-.31.05-.61.16-.9s.27-.57.48-.82h.49c-.25.22-.45.49-.58.79-.13.3-.2.62-.2.95,0,.21.03.42.09.62.06.21.15.41.27.59.12.18.26.35.42.5.44.4.99.6,1.63.6.19,0,.4-.02.61-.06v-4.34c.11.03.21.08.31.14v3.81h0ZM56.45,75.93h.26v-.15h-.39l-.02-.02c-.05-.06-.08-.12-.11-.16l-.02-.02h.54v-.16h-.62c-.04-.07-.06-.14-.09-.2h.71v-.15h-.76c-.02-.05-.04-.11-.05-.18v-.02h.82v-.16h-.85c0-.06-.02-.13-.02-.2h.87v-.15h-.87c0-.07,0-.13.02-.19v-.02h.85v-.16h-.82c.02-.07.03-.13.05-.18v-.03h.77v-.15h-.71s.04-.09.08-.18v-.02h.63v-.16h-.53c.04-.07.09-.13.14-.2h.38v-.15h-.25c.06-.06.14-.13.25-.21v-.15h-.57c.57-.51,1.23-.77,1.98-.77.4,0,.76.07,1.11.2.34.13.65.32.9.57s.46.53.6.85.21.67.21,1.04c0,.64-.21,1.21-.65,1.72h-1.13v-.2h.46s.04-.09.08-.15h-.54v-.2h.62s.02-.05.03-.07.01-.04.02-.06v-.03s-.66,0-.66,0v-.2h.72s0-.04,0-.05,0-.04.01-.07v-.03h-.74v-.2h.78v-.02c0-.06.01-.11.01-.13h-.79v-.2h.8v-.15h-.8v-.2h.8v-.05s0-.04,0-.07v-.04h-.78v-.2h.75v-.03s0-.04-.02-.1v-.03h-.74v-.2h.68s0-.03,0-.03l-.04-.11s0,0,0-.03h-.64v-.2h.55s-.05-.1-.08-.15h-.47v-.2h.33c-.05-.07-.1-.12-.15-.16h-.18v-.14c-.14-.1-.32-.18-.51-.23s-.4-.08-.6-.08c-.15,0-.31.02-.48.05v4.41c-.41-.07-.79-.27-1.13-.62h0Z" />
  <path
    d="M65.98,76.29h1.12c-.18.17-.37.32-.58.43-.21.12-.43.2-.67.26s-.49.09-.75.09c-.37,0-.72-.06-1.05-.18-.33-.12-.62-.3-.88-.53-.27-.25-.49-.55-.64-.89s-.23-.69-.23-1.05c0-.31.05-.61.16-.9s.27-.57.48-.82h.49c-.25.22-.45.49-.58.79-.13.3-.2.62-.2.95,0,.21.03.42.09.62.06.21.15.41.27.59.12.18.26.35.42.5.44.4.99.6,1.63.6.19,0,.4-.02.61-.06v-4.34c.11.03.21.08.31.14v3.81h0ZM63.41,75.93h.26v-.15h-.39l-.02-.02c-.05-.06-.08-.12-.11-.16l-.02-.02h.54v-.16h-.62c-.04-.07-.06-.14-.09-.2h.71v-.15h-.76c-.02-.05-.04-.11-.05-.18v-.02h.82v-.16h-.85c0-.06-.02-.13-.02-.2h.87v-.15h-.87c0-.07,0-.13.02-.19v-.02h.85v-.16h-.82c.02-.07.03-.13.05-.18v-.03h.77v-.15h-.71s.04-.09.08-.18v-.02h.63v-.16h-.53c.04-.07.09-.13.14-.2h.38v-.15h-.25c.06-.06.14-.13.25-.21v-.15h-.57c.57-.51,1.23-.77,1.98-.77.4,0,.76.07,1.11.2.34.13.65.32.9.57s.46.53.6.85.21.67.21,1.04c0,.64-.21,1.21-.65,1.72h-1.13v-.2h.46s.04-.09.08-.15h-.54v-.2h.62s.02-.05.03-.07.01-.04.02-.06v-.03s-.66,0-.66,0v-.2h.72s0-.04,0-.05,0-.04.01-.07v-.03h-.74v-.2h.78v-.02c0-.06.01-.11.01-.13h-.79v-.2h.8v-.15h-.8v-.2h.8v-.05s0-.04,0-.07v-.04h-.78v-.2h.75v-.03s0-.04-.02-.1v-.03h-.74v-.2h.68s0-.03,0-.03l-.04-.11s0,0,0-.03h-.64v-.2h.55s-.05-.1-.08-.15h-.47v-.2h.33c-.05-.07-.1-.12-.15-.16h-.18v-.14c-.14-.1-.32-.18-.51-.23s-.4-.08-.6-.08c-.15,0-.31.02-.48.05v4.41c-.41-.07-.79-.27-1.13-.62h0Z" />
  <path
    d="M69.39,71.87h2.51c.42,0,.74.02.93.07.26.06.49.17.71.32.22.15.41.34.57.56s.28.47.37.74.13.55.13.85c0,.33-.05.63-.14.9-.1.27-.25.55-.45.83h-1.19v-.2h.54s.02-.04.03-.05.02-.03.02-.05v-.03s.02-.01.03-.02h-.61v-.2h.68c.02-.06.04-.12.04-.16h-.73v-.2h.77s0-.03,0-.05,0-.04.01-.07v-.03h-.8v-.2h.82v-.03s0-.05,0-.08,0-.04,0-.05h-.83v-.2h.84v-.15h-.84v-.2h.83v-.03c0-.07-.01-.11-.02-.13h-.82v-.2h.8v-.03c-.01-.07-.02-.11-.02-.13h-.77v-.2h.73s-.02-.07-.04-.13c0,0,0-.01,0-.03h-.69v-.2h.61c-.03-.06-.05-.11-.07-.15h-.54v-.2h.4c-.06-.07-.12-.12-.15-.16h-.25v-.17c-.14-.08-.29-.13-.43-.15s-.37-.04-.69-.04h-.27v4.32h-1.52v-.2h.66v-.16h-.66v-.2h.66v-.15h-.66v-.2h.66v-.16h-.66v-.2h.66v-.15h-.66v-.2h.66v-.16h-.66v-.2h.66v-.15h-.66v-.2h.66v-.16h-.66v-.2h.66v-.15h-.66v-.2h.66v-.16h-.66v-.2h.66v-.15h-.66v-.2h.66v-.16h-.66v-.2h.66v-.15h-1.17s0-.11-.01-.21c0-.03,0-.06,0-.1h0ZM69.39,76.96v-.08c.04-.29.06-.66.08-1.12s.03-.92.03-1.41c0-.61-.02-1.24-.06-1.91v-.11s.34,0,.34,0v4.32h2.23c.18,0,.3,0,.37-.03v-4.26c.11.01.21.04.31.1v3.83h1.2c-.19.18-.37.32-.53.42s-.35.16-.55.2c-.2.04-.45.05-.76.05h-2.64Z" />
  <path
    d="M80.62,76.29h.89c-.08-.05-.15-.1-.2-.16h-.85c-.05-.05-.1-.12-.14-.2h.8s-.07-.09-.11-.15h-.75c-.02-.06-.04-.13-.05-.2h.69s-.03-.08-.06-.16h-.64c0-.06,0-.13.02-.2h.56s-.03-.1-.04-.15h-.49c.02-.07.05-.14.09-.2h.38s0-.03,0-.04c0-.02,0-.06.01-.12h-.28c.07-.08.17-.15.31-.21,0-.02,0-.03.01-.04l.02-.06.02-.05h-.64c.13-.13.31-.23.51-.32s.44-.15.69-.19c-.05-.17-.08-.33-.08-.5,0-.25.05-.46.15-.64h.35c-.12.19-.18.4-.18.63,0,.18.05.39.15.63.1.24.24.5.43.76s.39.52.63.76c.18.19.37.37.57.53.19.16.41.31.63.45s.48.29.78.44l-.26.2c-.37-.16-.73-.36-1.06-.61-.49.4-1.06.6-1.72.6-.53,0-.97-.11-1.3-.33-.22-.15-.4-.34-.52-.58s-.19-.48-.19-.75c0-.37.11-.69.32-.95h.41c-.27.23-.4.54-.4.94,0,.2.04.38.12.55s.19.31.34.43c.15.12.33.21.53.28s.43.1.67.1c.54,0,1.04-.16,1.5-.48-.37-.29-.71-.64-1.03-1.04s-.55-.78-.7-1.14c-.11.06-.18.13-.22.19s-.06.16-.06.27c0,.18.04.37.14.57s.21.38.37.55.33.31.52.42.38.18.58.2c-.14.08-.31.15-.52.2-.21.05-.41.08-.59.08-.44,0-.79-.1-1.05-.31h0ZM84.8,75.2l.02.02c.42.25.87.45,1.33.59l-1.23.97s-.14-.07-.28-.14h-.02s.54-.44.54-.44c-.06-.03-.11-.05-.15-.08l-.54.42-.04-.02s-.04-.02-.06-.04c-.03-.02-.05-.03-.07-.04l-.02-.02.53-.42s-.02-.01-.04-.03-.04-.02-.07-.04l-.04-.02-.53.42-.02-.02s-.02-.01-.04-.03c-.02-.01-.03-.02-.05-.03l-.05-.04-.02-.02.52-.42s-.02-.01-.03-.02-.02,0-.02-.01l-.06-.04s-.01,0-.03-.02l-.52.41-.02-.02c-.05-.04-.1-.08-.15-.11l.51-.41s-.02,0-.02-.01c0,0,0,0-.01,0s0,0-.01,0c-.04-.03-.07-.05-.09-.06l-.5.4-.02-.02s-.07-.06-.12-.1l-.02-.02.51-.4s-.08-.06-.13-.1l-.5.4s0-.01-.02-.02l-.12-.11-.02-.02.5-.39s-.05-.05-.09-.08c0,0,0-.01-.03-.03l-.5.39-.02-.02-.11-.11-.02-.02.49-.38s-.05-.05-.09-.09l-.03-.03-.48.38-.02-.02-.1-.12-.02-.02.47-.37-.03-.03s-.06-.07-.07-.09l-.46.36s0,0,0-.01,0,0,0,0l-.09-.12-.02-.02.46-.36s-.04-.05-.09-.12l-.45.36-.02-.02s-.03-.04-.04-.06-.03-.04-.04-.06l-.02-.02.45-.35-.02-.03s-.05-.07-.07-.1l-.44.35v-.03c-.06-.1-.1-.15-.1-.16l.44-.35-.02-.03s-.04-.08-.06-.11l-.44.34c-.03-.05-.05-.12-.08-.19l.42-.34-.02-.04-.03-.06s0,0,0-.02,0-.02-.02-.03l-.41.33c-.02-.08-.03-.15-.04-.23l.38-.3s-.01-.06-.02-.11c0,0,0-.01,0-.02s0-.02-.01-.04l-.34.27c.02-.11.04-.22.09-.32s.12-.21.2-.32h-.56c.14-.23.35-.42.61-.56.27-.14.55-.2.85-.2.17,0,.32.02.46.06.14.04.26.1.36.18s.17.17.23.28c.05.11.08.23.08.37,0,.25-.09.47-.27.65s-.43.32-.74.39c.16.22.35.43.58.63.27.25.54.47.82.65l.02.02v-.02c.12-.18.19-.36.24-.53s.08-.34.08-.5c0-.05,0-.09,0-.13h.74c-.05.21-.15.45-.28.71-.14.26-.28.48-.44.66h-.01s.02.02.02.02ZM82.89,73.44c.15-.06.27-.11.33-.16.09-.06.16-.14.21-.24s.08-.21.08-.32c0-.17-.05-.31-.15-.43-.1-.12-.22-.17-.36-.17-.12,0-.21.04-.29.13s-.12.2-.12.34c0,.28.1.56.31.84h0Z" />
  <path
    d="M91.29,71.87h2.89c.36,0,.62.01.77.03.15.02.29.07.42.15.11.06.2.14.28.23s.14.2.18.31.06.23.06.35c0,.17-.04.32-.12.45s-.19.24-.33.33-.3.14-.47.15c.19,0,.38.05.55.13s.32.18.44.31c.12.13.22.28.28.45s.1.36.1.57c0,.29-.07.55-.2.8h-1.49v-.2h.65c.03-.09.05-.14.05-.15h-.71v-.2h.74s0-.08.02-.16h-.76v-.2h.76s0-.08-.02-.13v-.03h-.74v-.2h.7v-.03s-.04-.09-.05-.13h-.64v-.2h.53c-.04-.06-.09-.11-.13-.15h-.4v-.23c-.17-.04-.38-.06-.64-.06h-.68v2.45h-1.53v-.2h.66v-.16h-.66v-.2h.66v-.15h-.66v-.2h.66v-.16h-.66v-.2h.66v-.15h-.66v-.2h.66v-.16h-.66v-.2h.66v-.15h-.66v-.2h.66v-.16h-.66v-.2h.66v-.15h-.66v-.2h.66v-.16h-.66v-.2h.66v-.15h-.66v-.2h.66v-.16h-.66v-.2h.66v-.15h-1.17s0-.11-.01-.21c0-.03,0-.06,0-.1h0ZM91.29,76.96v-.08c.04-.29.06-.66.08-1.12s.03-.92.03-1.41c0-.61-.02-1.24-.06-1.91v-.11s.34,0,.34,0v4.32h2.54v-2.45c.13,0,.24.02.31.04v2.05h1.53c-.19.25-.4.42-.63.52s-.53.15-.91.15h-3.22ZM95,72.54h-.34v-.25c-.11-.04-.23-.07-.36-.09-.13-.01-.35-.02-.67-.02h-.29v1.54h.86v-1.35h.03c.1,0,.19.02.28.04v1h.45c.04-.05.07-.11.1-.16h-.4v-.2h.45c0-.05,0-.08,0-.09v-.06h-.46v-.2h.42c-.02-.05-.05-.11-.08-.16h0Z" />
  <path
    d="M99.98,76.19h-1.76s-.03.08-.04.11c-.03.08-.07.19-.13.35-.06.16-.1.27-.11.31h-.68c.13-.22.25-.45.36-.69.29-.58.62-1.29.98-2.11.28-.62.5-1.17.68-1.64l.03-.09.55,1.2h-.69l1.32,3.03h1.93s.01.02.02.03.01.02.02.04l.12.2.03.04h-2.33l-.04-.1c-.14-.37-.22-.59-.25-.65v-.02s0,0,0,0ZM99.78,75.73s-.04-.08-.06-.15c-.04-.1-.1-.24-.19-.43-.08-.19-.16-.36-.24-.52-.07-.16-.14-.29-.19-.39l-.05-.11c-.1.2-.22.48-.37.84-.04.11-.07.18-.09.22s-.04.1-.07.17c-.07.18-.11.28-.12.31l-.02.05h1.4ZM101.18,76.13h-.74l-.09-.2h.74l-.07-.15h-.74l-.09-.2h.73l-.07-.16h-.73l-.09-.2h.72l-.07-.15h-.72l-.09-.2h.71l-.07-.16h-.71l-.09-.2h.71l-.07-.15h-.7l-.09-.2h.7l-.07-.16h-.69l-.09-.2h.69l-.71-1.56.03-.07c.06-.15.1-.26.11-.31h.71c.03.11.08.25.15.41l.34.84c.05.13.14.33.27.62.3.67.55,1.21.74,1.61.19.4.37.76.55,1.08l.06.11h-1.75l-.09-.2h.74l-.07-.16h0Z" />
  <path
    d="M104.3,76.96h-.66c.03-.28.06-.64.08-1.08,0-.2.02-.48.03-.86,0-.38.01-.65.01-.81,0-.4,0-.78-.02-1.13v-.11l.6.42-.36.52,4.11,2.96s0,.03,0,.04v.1s.01.02.02.06l-.22.1c-.26-.22-.58-.47-.94-.75-.28-.21-.5-.37-.65-.49s-.3-.22-.44-.32c-.14-.1-.39-.27-.75-.53-.35-.25-.65-.45-.89-.59,0,.06,0,.12,0,.2v.19c0,.31,0,.58.02.8.02.37.04.75.07,1.15v.13s0,0,0,0ZM106.46,74.74l-.36.51-.17-.12.36-.51-.12-.09-.37.51-.17-.12.37-.51-.13-.09-.36.51-.17-.12.36-.51-.12-.09-.37.51-.16-.12.36-.51-.13-.09-.36.51-.17-.12.36-.51-.12-.09-.36.51-.17-.12.36-.51-.12-.09-.36.51-.17-.12.36-.51-.82-.58c-.02-.34-.04-.65-.06-.91h.33c.2.19.47.41.81.67.32.24.6.46.86.65s.55.4.87.63c.35.25.68.47.99.66v-.12c0-.11,0-.28,0-.53s-.01-.48-.02-.67c0-.2-.02-.42-.03-.65-.01-.24-.03-.41-.04-.51v-.13s.65,0,.65,0v.12c-.06.75-.09,1.53-.09,2.34,0,.09,0,.19,0,.3,0,.12,0,.23.01.34,0,.11,0,.23.01.35,0,.12,0,.24,0,.33,0,.05,0,.1,0,.15,0,.05,0,.1,0,.16,0,.06,0,.13.01.23s.01.21.02.35v.11s-.68-.47-.68-.47l.37-.51-.13-.09-.37.51-.17-.12.37-.51-.13-.09-.36.51-.17-.12.36-.51-.12-.09-.37.51-.17-.12.37-.51-.13-.09-.36.51-.17-.12.37-.51-.13-.09h.01Z" />
  <path
    d="M111.71,74.53v.03c0,.56.02,1.16.06,1.81v.13s-1.54,0-1.54,0v-.2h.66v-.16h-.66v-.2h.66v-.15h-.66v-.2h.66v-.16h-.66v-.2h.66v-.15h-.66v-.2h.66v-.16h-.66v-.2h.66v-.15h-.66v-.2h.66v-.16h-.66v-.2h.66v-.15h-.66v-.2h.66v-.16h-.66v-.2h.66v-.15h-.66v-.2h.66v-.16h-.66v-.2h.66v-.15h-1.17s0-.11-.01-.21c0-.03,0-.06,0-.1h2.11v.1c-.05.47-.08,1.14-.1,2.01v.03l1.52,2.65h1.83l.04.06.12.17s.01.01.03.03.02.03.03.05h-2.34c-.13-.34-.27-.64-.4-.9-.04-.1-.13-.26-.26-.5-.26-.49-.45-.83-.56-1.02l-.02-.02h0ZM109.7,76.96v-.08c.04-.29.06-.66.08-1.12s.03-.92.03-1.41c0-.61-.02-1.24-.06-1.91v-.11s.34,0,.34,0v4.32h1.72c0,.11,0,.21.02.31h-2.11,0ZM113.79,76.13h-.68l-.12-.2h.67l-.09-.15h-.67l-.12-.2h.66l-.09-.16h-.66l-.12-.2h.65l-.09-.15h-.65l-.12-.2h.64l-.09-.16h-.64l-.12-.2h.63l-.09-.15h-.63l-.14-.25.1-.09c.34-.32.62-.59.82-.8.23-.23.45-.45.65-.67.27-.28.47-.5.59-.65h.98c-.29.22-.67.54-1.14.95-.38.33-.64.57-.78.71.08.17.2.4.38.69.13.21.22.37.29.49.07.11.13.22.2.33s.12.2.18.28c.05.08.1.15.13.21.04.06.09.14.15.24l.41.62.07.1h-1.64l-.12-.2h.68l-.09-.16h0Z" />
  <path
    d="M118.39,72.23v.03c-.04.73-.06,1.26-.06,1.6v.03h1.65v.44h-1.65v.69c0,.39.03.85.05,1.36v.13s-1.54,0-1.54,0v-.2h.66v-.16h-.66v-.2h.66v-.15h-.66v-.2h.66v-.16h-.66v-.2h.66v-.15h-.66v-.2h.66v-.16h-.66v-.2h.66v-.15h-.66v-.2h.66v-.16h-.66v-.2h.66v-.15h-.66v-.2h.66v-.16h-.66v-.2h.66v-.15h-.66v-.2h.66v-.16h-.66v-.2h.66v-.15h-1.17s0-.11-.01-.21c0-.03,0-.06,0-.1h3.72l.15.64c-.24-.06-.55-.12-.92-.18-.37-.06-.66-.09-.85-.1h-.03v-.02ZM116.32,76.96v-.08c.04-.29.06-.66.08-1.12s.03-.92.03-1.41c0-.61-.02-1.24-.06-1.91v-.11s.34,0,.34,0v4.32h.8c.41,0,.77,0,1.09-.03s.62-.05.91-.11c.28-.05.56-.12.84-.19l-.17.64h-3.84Z" />
  <path
    d="M124.79,72.25v.03c-.04.74-.07,1.46-.07,2.17s.02,1.35.06,1.92v.13s-1.54,0-1.54,0v-.2h.66v-.16h-.66v-.2h.66v-.15h-.66v-.2h.66v-.16h-.66v-.2h.66v-.15h-.66v-.2h.66v-.16h-.66v-.2h.66v-.15h-.66v-.2h.66v-.16h-.66v-.2h.66v-.15h-.66v-.2h.66v-.16h-.66v-.2h.66v-.15h-.66v-.2h.66v-.16h-.66v-.18h.07c.22-.02.4-.03.52-.03h.07v-.15c-.42,0-.85.03-1.27.08-.43.05-.85.13-1.29.23l-.1.02.14-.64h4.77l.14.64c-.41-.11-.89-.19-1.46-.26h-.04ZM122.74,72.39c.09-.01.21-.02.34-.03v4.29h1.72c0,.05,0,.16.02.31h-2.11v-.08c.03-.27.05-.65.07-1.13,0-.12,0-.23.01-.34,0-.12,0-.23,0-.34,0-.16,0-.32,0-.46l-.02-1.19c0-.5-.03-.84-.06-1.02h0Z" />
  <path
    d="M22.56,86.56v.04c0,.72.03,1.49.08,2.32v.17s-1.98,0-1.98,0v-.26h.85v-.2h-.85v-.26h.85v-.2h-.85v-.26h.85v-.2h-.85v-.27h.85v-.19h-.85v-.26h.85v-.2h-.85v-.26h.85v-.19h-.85v-.26h.85v-.2h-.85v-.26h.85v-.2h-.85v-.26h.85v-.2h-.85v-.27h.85v-.19h-.85v-.26h.85v-.2h-.85v-.26h.85v-.19h-1.51c0-.05,0-.15-.01-.27,0-.04,0-.08,0-.12h2.71v.12c-.07.6-.11,1.46-.12,2.59v.04l1.95,3.4h2.35l.06.08.16.22s.02.02.03.03c.01.02.03.04.04.06h-3c-.17-.43-.34-.82-.51-1.15-.06-.12-.17-.33-.33-.64-.33-.63-.57-1.07-.72-1.3l-.02-.03v-.02ZM19.98,89.69v-.11c.05-.38.08-.85.1-1.43.02-.58.03-1.18.03-1.81,0-.78-.03-1.6-.08-2.45v-.14s.43,0,.43,0v5.55h2.2c0,.13.01.27.03.4h-2.71ZM25.23,88.63h-.87l-.15-.26h.86l-.12-.2h-.86l-.15-.26h.85l-.12-.2h-.85l-.15-.27h.84l-.12-.19h-.83l-.15-.26h.82l-.12-.2h-.82l-.15-.26h.81l-.12-.19h-.81l-.18-.32.12-.12c.44-.42.79-.76,1.06-1.03.29-.29.57-.58.84-.87.35-.37.6-.65.76-.84h1.27c-.37.28-.86.69-1.47,1.22-.49.43-.82.73-1.01.91.1.21.26.51.48.89.16.27.28.48.37.63.09.14.17.28.26.43s.16.26.23.36c.07.1.12.19.17.27s.11.18.19.31l.53.79.09.13h-2.11l-.15-.26h.88l-.12-.2h.01Z" />
  <path
    d="M31.98,88.83h1.43c-.23.22-.47.41-.74.56-.27.15-.55.26-.86.33s-.63.11-.97.11c-.48,0-.92-.08-1.34-.23-.42-.16-.8-.38-1.13-.68-.35-.32-.63-.71-.82-1.15-.19-.44-.29-.89-.29-1.34,0-.4.07-.78.21-1.15s.35-.73.62-1.06h.62c-.33.29-.58.63-.75,1.01-.17.39-.26.8-.26,1.22,0,.27.04.53.12.8.08.27.19.52.35.75s.33.45.54.65c.57.51,1.27.77,2.1.77.25,0,.51-.03.78-.07v-5.58c.14.04.27.1.39.18v4.89h0ZM28.69,88.36h.33v-.2h-.5l-.03-.03c-.06-.08-.11-.15-.14-.2l-.02-.03h.69v-.2h-.8c-.04-.09-.08-.18-.12-.27h.91v-.19h-.98c-.02-.07-.04-.14-.07-.23v-.03s1.04,0,1.04,0v-.2h-1.09c-.01-.08-.02-.16-.03-.26h1.11v-.19h-1.11c0-.09.01-.17.02-.24v-.02h1.09v-.2h-1.05c.02-.09.04-.16.06-.23v-.03h.99v-.2h-.9s.05-.12.11-.23v-.03h.8v-.2h-.67c.05-.09.12-.17.18-.27h.49v-.19h-.32c.08-.08.18-.17.32-.27v-.19h-.73c.74-.66,1.58-.99,2.54-.99.51,0,.98.08,1.42.25s.83.41,1.16.73c.33.31.59.68.77,1.09s.27.86.27,1.34c0,.82-.27,1.56-.83,2.21h-1.45v-.26h.59s.06-.11.1-.2h-.69v-.26h.8s.02-.06.03-.09c0-.03.02-.05.02-.08v-.03s-.85,0-.85,0v-.27h.93s0-.04.01-.07c0-.03,0-.05.02-.09v-.03s-.96,0-.96,0v-.26h1v-.03c0-.08.01-.13.01-.17h-1.02v-.26h1.03v-.19h-1.03v-.26h1.02v-.06s0-.05-.01-.09v-.05h-1.01v-.26h.97v-.04s-.01-.05-.03-.12v-.04h-.94v-.26h.88s0-.04,0-.03l-.04-.13s0,0,0-.03h-.82v-.27h.71c-.03-.06-.06-.12-.11-.19h-.6v-.26h.42c-.07-.09-.13-.15-.19-.2h-.24v-.18c-.19-.13-.41-.23-.66-.29s-.51-.1-.77-.1c-.19,0-.4.03-.62.07v5.66c-.52-.09-1.01-.35-1.45-.8v-.02Z" />
  <path
    d="M37.98,83.6v.03c-.02.34-.04.69-.05,1.06s-.03.76-.03,1.16v.03h2.17v.56h-2.17v.04c0,.83.03,1.64.08,2.44v.17s-1.98,0-1.98,0v-.26h.85v-.2h-.85v-.26h.85v-.2h-.85v-.26h.85v-.2h-.85v-.27h.85v-.19h-.85v-.26h.85v-.2h-.85v-.26h.85v-.19h-.85v-.26h.85v-.2h-.85v-.26h.85v-.2h-.85v-.26h.85v-.2h-.85v-.27h.85v-.19h-.85v-.26h.85v-.2h-.85v-.26h.85v-.19h-1.51c0-.05,0-.15-.01-.27,0-.04,0-.08,0-.12h4.75l.17.82c-.47-.14-1.21-.26-2.22-.37h-.04v-.02ZM35.31,89.69v-.11c.05-.38.08-.85.1-1.43.02-.58.03-1.18.03-1.81,0-.78-.03-1.6-.08-2.45v-.14s.43,0,.43,0v5.55h2.2c0,.13.01.27.03.4h-2.71Z" />
  <path
    d="M43.67,83.6v.03c-.02.34-.04.69-.05,1.06s-.03.76-.03,1.16v.03h2.17v.56h-2.17v.04c0,.83.03,1.64.08,2.44v.17s-1.98,0-1.98,0v-.26h.85v-.2h-.85v-.26h.85v-.2h-.85v-.26h.85v-.2h-.85v-.27h.85v-.19h-.85v-.26h.85v-.2h-.85v-.26h.85v-.19h-.85v-.26h.85v-.2h-.85v-.26h.85v-.2h-.85v-.26h.85v-.2h-.85v-.27h.85v-.19h-.85v-.26h.85v-.2h-.85v-.26h.85v-.19h-1.51c0-.05,0-.15-.01-.27,0-.04,0-.08,0-.12h4.75l.17.82c-.47-.14-1.21-.26-2.22-.37h-.04v-.02ZM41,89.69v-.11c.05-.38.08-.85.1-1.43.02-.58.03-1.18.03-1.81,0-.78-.03-1.6-.08-2.45v-.14s.43,0,.43,0v5.55h2.2c0,.13.01.27.03.4h-2.71Z" />
  <path
    d="M48.22,83.74v-.19h-1.51c0-.05,0-.15-.01-.27,0-.04,0-.08,0-.12h2.71v.12c-.09.88-.13,1.95-.13,3.21,0,.83.03,1.64.08,2.44v.17s-1.98,0-1.98,0v-.26h.85v-.2h-.85v-.26h.85v-.2h-.85v-.26h.85v-.2h-.85v-.27h.85v-.19h-.85v-.26h.85v-.2h-.85v-.26h.85v-.19h-.85v-.26h.85v-.2h-.85v-.26h.85v-.2h-.85v-.26h.85v-.2h-.85v-.27h.85v-.19h-.85v-.26h.85v-.2h-.85v-.26h.85ZM46.69,89.69v-.11c.05-.38.08-.85.1-1.43.02-.58.03-1.18.03-1.81,0-.78-.03-1.6-.08-2.45v-.14s.43,0,.43,0v5.55h2.2c0,.13.01.27.03.4h-2.71Z" />
  <path
    d="M53.08,83.61v.04c-.05.93-.08,1.62-.08,2.05v.03h2.12v.56h-2.12v.89c0,.5.04,1.09.07,1.75v.17s-1.98,0-1.98,0v-.26h.85v-.2h-.85v-.26h.85v-.2h-.85v-.26h.85v-.2h-.85v-.27h.85v-.19h-.85v-.26h.85v-.2h-.85v-.26h.85v-.19h-.85v-.26h.85v-.2h-.85v-.26h.85v-.2h-.85v-.26h.85v-.2h-.85v-.27h.85v-.19h-.85v-.26h.85v-.2h-.85v-.26h.85v-.19h-1.51c0-.05,0-.15-.01-.27,0-.04,0-.08,0-.12h4.78l.19.82c-.31-.08-.7-.15-1.18-.23-.48-.08-.84-.12-1.09-.13h-.03s0-.02,0-.02ZM50.41,89.69v-.11c.05-.38.08-.85.1-1.43.02-.58.03-1.18.03-1.81,0-.78-.03-1.6-.08-2.45v-.14s.43,0,.43,0v5.55h1.03c.52,0,.99-.01,1.4-.04s.8-.07,1.16-.13c.36-.06.72-.15,1.08-.25l-.22.82h-4.93Z" />
  <path d="M58.54,87.64h-2.31v-.66h2.31v.66Z" />
  <path
    d="M64.35,88.83h1.14c-.1-.06-.19-.13-.26-.2h-1.09c-.06-.07-.12-.16-.18-.26h1.03s-.09-.11-.14-.2h-.97c-.03-.08-.05-.17-.06-.26h.88s-.04-.11-.07-.2h-.82c0-.08,0-.17.02-.27h.72c-.02-.06-.03-.12-.05-.19h-.62c.03-.09.07-.18.12-.26h.48s0-.04,0-.05c0-.03,0-.08.02-.15h-.36c.09-.1.22-.19.39-.27,0-.03.01-.04.01-.04l.02-.08.02-.07h-.82c.17-.16.39-.3.66-.41s.56-.19.89-.25c-.07-.21-.11-.43-.11-.64,0-.32.06-.59.19-.82h.45c-.15.25-.23.52-.23.81,0,.23.06.5.19.81.12.31.31.64.54.98.24.35.5.67.8.98.23.25.48.47.73.68.25.21.52.4.81.58.28.18.62.37,1,.57l-.34.27c-.48-.21-.93-.47-1.36-.78-.62.51-1.36.77-2.21.77-.69,0-1.24-.14-1.67-.43-.28-.19-.51-.44-.67-.74s-.24-.62-.24-.96c0-.48.14-.89.41-1.22h.53c-.35.3-.52.7-.52,1.2,0,.26.05.49.15.7.1.21.24.39.43.55s.42.27.67.36.54.12.86.12c.7,0,1.34-.2,1.92-.61-.47-.37-.91-.82-1.32-1.33s-.71-1.01-.89-1.46c-.14.08-.23.16-.29.25s-.08.2-.08.35c0,.23.06.48.18.73.12.25.28.49.48.71.2.22.43.4.67.54.24.14.49.23.74.26-.18.1-.4.19-.67.25-.27.07-.52.1-.76.1-.56,0-1.01-.13-1.35-.4v-.02ZM69.72,87.43l.03.02c.54.32,1.11.58,1.71.76l-1.58,1.25c-.06-.03-.18-.09-.36-.18h-.03s.69-.56.69-.56c-.08-.04-.14-.07-.19-.1l-.69.54-.04-.03s-.05-.03-.08-.05c-.04-.02-.07-.04-.09-.05l-.03-.02.68-.54s-.03-.02-.05-.03-.05-.03-.09-.04l-.05-.03-.67.53-.03-.02s-.03-.02-.04-.03c-.02-.01-.04-.03-.06-.04l-.07-.05-.03-.02.67-.53s-.02-.02-.04-.03c-.01,0-.02,0-.02-.01l-.08-.05s-.02,0-.04-.03l-.67.53-.03-.02c-.07-.05-.13-.1-.19-.14l.66-.52s-.02-.01-.03-.02c0,0-.01,0-.01-.01s0,0-.01,0c-.06-.04-.1-.06-.12-.08l-.65.51-.03-.02s-.09-.08-.16-.13l-.02-.02.65-.52s-.1-.07-.16-.12l-.64.51s-.01-.02-.02-.02l-.15-.13-.03-.03.64-.5s-.07-.06-.11-.11c0,0-.01-.02-.03-.04l-.64.5-.02-.03-.14-.14-.03-.03.63-.49s-.07-.06-.11-.11l-.03-.03-.61.49-.03-.03-.13-.15-.02-.02.6-.48-.04-.04s-.07-.08-.1-.11l-.59.47s0-.01,0-.02c0,0,0,0,0,0l-.12-.16-.02-.03.59-.46s-.05-.06-.12-.16l-.58.46-.02-.03s-.04-.06-.05-.08-.03-.05-.05-.08l-.02-.03.58-.45-.03-.04c-.04-.05-.07-.09-.09-.12l-.57.45v-.04c-.08-.12-.12-.19-.13-.2l.57-.44-.02-.04c-.03-.06-.06-.11-.07-.14l-.56.44c-.04-.07-.07-.15-.11-.25l.54-.43-.02-.05-.04-.08s0-.01,0-.03,0-.03-.02-.04l-.53.42c-.02-.1-.04-.2-.05-.3l.48-.38s-.02-.08-.03-.14c0,0,0-.02,0-.03s0-.03-.01-.05l-.43.34c.02-.14.06-.28.12-.41.06-.13.15-.27.26-.41h-.72c.19-.3.45-.54.79-.71.34-.18.7-.26,1.09-.26.21,0,.41.03.59.08s.33.13.46.23.22.22.29.36c.07.14.1.3.1.47,0,.32-.12.6-.35.84s-.55.41-.95.5c.2.28.45.55.74.81.35.33.69.6,1.05.84l.03.02v-.03c.15-.23.25-.46.31-.67.06-.22.1-.43.1-.65,0-.06,0-.12,0-.16h.94c-.07.27-.19.58-.37.91-.18.33-.37.62-.57.85h-.01s0,0,0,0ZM67.27,85.17c.2-.07.34-.14.43-.2.11-.08.2-.18.27-.31.07-.13.1-.27.1-.41,0-.22-.06-.4-.19-.55-.13-.15-.28-.22-.47-.22-.15,0-.27.06-.37.17s-.15.26-.15.44c0,.36.13.72.39,1.08h0Z" />
  <path
    d="M78.61,83.61v.04c-.05.93-.08,1.62-.08,2.05v.03h2.12v.56h-2.12v.89c0,.5.04,1.09.07,1.75v.17s-1.98,0-1.98,0v-.26h.85v-.2h-.85v-.26h.85v-.2h-.85v-.26h.85v-.2h-.85v-.27h.85v-.19h-.85v-.26h.85v-.2h-.85v-.26h.85v-.19h-.85v-.26h.85v-.2h-.85v-.26h.85v-.2h-.85v-.26h.85v-.2h-.85v-.27h.85v-.19h-.85v-.26h.85v-.2h-.85v-.26h.85v-.19h-1.51c0-.05,0-.15-.01-.27,0-.04,0-.08,0-.12h4.78l.19.82c-.31-.08-.7-.15-1.18-.23-.48-.08-.84-.12-1.09-.13h-.03s0-.02,0-.02ZM75.95,89.69v-.11c.05-.38.08-.85.1-1.43.02-.58.03-1.18.03-1.81,0-.78-.03-1.6-.08-2.45v-.14s.43,0,.43,0v5.55h1.03c.52,0,.99-.01,1.4-.04s.8-.07,1.16-.13c.36-.06.72-.15,1.08-.25l-.22.82h-4.93Z" />
  <path
    d="M84.39,83.61v.04c-.05.93-.08,1.62-.08,2.05v.03h2.12v.56h-2.12v.89c0,.5.04,1.09.07,1.75v.17s-1.98,0-1.98,0v-.26h.85v-.2h-.85v-.26h.85v-.2h-.85v-.26h.85v-.2h-.85v-.27h.85v-.19h-.85v-.26h.85v-.2h-.85v-.26h.85v-.19h-.85v-.26h.85v-.2h-.85v-.26h.85v-.2h-.85v-.26h.85v-.2h-.85v-.27h.85v-.19h-.85v-.26h.85v-.2h-.85v-.26h.85v-.19h-1.51c0-.05,0-.15-.01-.27,0-.04,0-.08,0-.12h4.78l.19.82c-.31-.08-.7-.15-1.18-.23-.48-.08-.84-.12-1.09-.13h-.03s0-.02,0-.02ZM81.73,89.69v-.11c.05-.38.08-.85.1-1.43.02-.58.03-1.18.03-1.81,0-.78-.03-1.6-.08-2.45v-.14s.43,0,.43,0v5.55h1.03c.52,0,.99-.01,1.4-.04s.8-.07,1.16-.13c.36-.06.72-.15,1.08-.25l-.22.82h-4.93Z" />
  <path
    d="M91.55,83.64v.04c-.06.95-.09,1.88-.09,2.79s.03,1.74.08,2.46v.17s-1.98,0-1.98,0v-.26h.85v-.2h-.85v-.26h.85v-.2h-.85v-.26h.85v-.2h-.85v-.27h.85v-.19h-.85v-.26h.85v-.2h-.85v-.26h.85v-.19h-.85v-.26h.85v-.2h-.85v-.26h.85v-.2h-.85v-.26h.85v-.2h-.85v-.27h.85v-.19h-.85v-.26h.85v-.2h-.84v-.23h.09c.29-.02.51-.03.67-.03h.09v-.19c-.54,0-1.09.04-1.63.11-.55.07-1.1.16-1.65.29l-.12.03.18-.82h6.12l.18.82c-.52-.14-1.15-.25-1.88-.33h-.05s0-.02,0-.02ZM88.93,83.82c.12-.02.27-.03.44-.04v5.5h2.21c0,.07,0,.2.02.4h-2.71v-.11c.04-.35.07-.84.1-1.46,0-.15.01-.29.02-.44,0-.15,0-.29.01-.43,0-.21,0-.41,0-.59l-.03-1.53c0-.64-.03-1.08-.07-1.31h0Z" />
  <path
    d="M98.05,85.72v-.03c0-.12,0-.29-.02-.5,0-.22-.02-.46-.03-.71s-.02-.45-.03-.59v-.14s.43,0,.43,0v5.55h2.2v.11c0,.08.02.13.02.18s0,.08,0,.12h-2.71v-.11c.09-.9.13-1.96.13-3.17v-.1h-1.49v.11c0,.85.03,1.68.08,2.49v.17s-1.98,0-1.98,0v-.26h.85v-.2h-.85v-.26h.85v-.2h-.85v-.26h.85v-.2h-.85v-.27h.85v-.19h-.85v-.26h.85v-.2h-.85v-.26h.85v-.19h-.85v-.26h.85v-.2h-.85v-.26h.85v-.2h-.85v-.26h.85v-.2h-.85v-.27h.85v-.19h-.85v-.26h.85v-.2h-.85v-.26h.85v-.19h-1.51c0-.05,0-.15-.01-.27,0-.04,0-.08,0-.12h2.71v.12c-.04.34-.07.75-.09,1.23-.02.48-.04.88-.04,1.19v.03h1.48ZM93.99,89.69v-.11c.05-.38.08-.85.1-1.43.02-.58.03-1.18.03-1.81,0-.78-.03-1.6-.08-2.45v-.14s.43,0,.43,0v5.55h2.2c0,.13.01.27.03.4h-2.71ZM99.44,83.74v-.19h-1.5s0-.06,0-.1,0-.09-.01-.18c0-.01,0-.05,0-.12h2.71v.12c-.09.77-.13,1.84-.13,3.23,0,.82.03,1.62.08,2.41v.17s-1.98,0-1.98,0v-.26h.85v-.2h-.85v-.26h.85v-.2h-.85v-.26h.85v-.2h-.85v-.27h.85v-.19h-.85v-.26h.85v-.2h-.85v-.26h.85v-.19h-.85v-.26h.85v-.2h-.85v-.26h.85v-.2h-.85v-.26h.85v-.2h-.85v-.27h.85v-.19h-.85v-.26h.85v-.2h-.85v-.26h.85Z" />
  <path
    d="M102.9,88.83h.26v-.2h-.49c-.07-.08-.13-.16-.19-.26h.68v-.2h-.77c-.03-.09-.04-.18-.06-.26h.82v-.2h-.84c0-.05,0-.13,0-.23v-.04h.85v-.19h-.85v-.26h.85v-.2h-.85v-.26h.85v-.19h-.85v-.26h.85v-.2h-.85v-.26h.85v-.2h-.85v-.26h.85v-.2h-.85v-.27h.85v-.19h-.85v-.26h.85v-.2h-.85v-.26h.85v-.19h-1.51c0-.05,0-.15-.01-.27,0-.04,0-.08,0-.12h2.71v.12c-.05.4-.08.9-.1,1.51-.02.61-.03,1.17-.03,1.67,0,.22,0,.44,0,.66s0,.44.01.66c0,.22.02.43.03.64.01.21.02.43.04.65v.16c-.19,0-.38-.03-.55-.06-.17-.03-.32-.07-.46-.13s-.27-.12-.39-.2h0ZM101.68,83.74h.44v3.55c0,.4.04.71.1.93s.19.41.37.58c.43.41,1.05.61,1.89.61.47,0,.88-.07,1.22-.22s.58-.35.73-.62c.09-.15.15-.35.18-.59s.04-.66.04-1.27v-.35c0-.11,0-.21,0-.33,0-.75-.02-1.29-.03-1.63s-.03-.71-.05-1.11v-.16s.8,0,.8,0v.16c-.03.4-.05.91-.07,1.54s-.02,1.18-.02,1.64v.75c0,.31-.01.57-.04.8s-.07.41-.13.56c-.06.15-.15.29-.27.43-.47.56-1.23.83-2.28.83-.54,0-1.02-.07-1.43-.22s-.73-.36-.97-.64c-.14-.17-.25-.36-.31-.57s-.09-.46-.09-.77v-.58c.02-.3.02-.52.02-.64v-.75c0-.19,0-.38-.01-.56,0-.18-.01-.38-.02-.59,0-.21-.03-.42-.04-.64v-.14s0,0,0,0Z" />
  <path
    d="M109.78,83.74v-.19h-1.51c0-.05,0-.15-.01-.27,0-.04,0-.08,0-.12h2.71v.12c-.09.88-.13,1.95-.13,3.21,0,.83.03,1.64.08,2.44v.17s-1.98,0-1.98,0v-.26h.85v-.2h-.85v-.26h.85v-.2h-.85v-.26h.85v-.2h-.85v-.27h.85v-.19h-.85v-.26h.85v-.2h-.85v-.26h.85v-.19h-.85v-.26h.85v-.2h-.85v-.26h.85v-.2h-.85v-.26h.85v-.2h-.85v-.27h.85v-.19h-.85v-.26h.85v-.2h-.85v-.26h.85,0ZM108.25,89.69v-.11c.05-.38.08-.85.1-1.43.02-.58.03-1.18.03-1.81,0-.78-.03-1.6-.08-2.45v-.14s.43,0,.43,0v5.55h2.2c0,.13.01.27.03.4h-2.71Z" />
  <path
    d="M115.54,87.54l.46-.69-.19-.08-.46.69-.25-.11.46-.69-.19-.08-.46.68-.24-.1.45-.68-.19-.08-.45.68-.25-.1.45-.68-.18-.08-.46.68-.24-.11.45-.68-.19-.08-.45.68s-.05-.02-.06-.03-.03-.01-.06-.02c-.04-.02-.07-.03-.09-.04-.02,0-.03-.01-.04-.01l.45-.68-.19-.08-.45.67c-.05-.03-.12-.07-.19-.12l-.03-.02.43-.64-.19-.08-.39.59c-.07-.06-.13-.13-.18-.2l.32-.48-.19-.08-.24.36c-.07-.17-.1-.35-.1-.53s.03-.36.09-.52.15-.32.28-.49l2.75,1.15.42.17c.31.13.55.27.74.43s.32.35.41.56c.09.21.13.46.13.75,0,.67-.26,1.24-.79,1.73-.52.48-1.21.72-2.06.72-.49,0-.97-.08-1.46-.23-.49-.16-.91-.37-1.28-.65l.36-.78c.2.23.45.44.74.63s.6.33.92.43c.32.1.64.15.95.15.74,0,1.34-.28,1.79-.84.28-.35.42-.74.42-1.18,0-.02,0-.07,0-.17l-.19-.08c.01.07.02.14.02.21,0,.2-.04.41-.11.63l-.57-.23.46-.69-.19-.08-.46.69-.25-.11h0ZM117.03,83.72l-.35.73c-.64-.65-1.39-.98-2.25-.98-.42,0-.8.08-1.13.24-.34.16-.6.38-.79.67s-.28.61-.28.97.1.66.29.89c.19.23.52.45.97.65l2.96,1.24c-.06.13-.14.24-.23.34l-2.69-1.12c-.34-.14-.59-.26-.76-.36s-.32-.21-.44-.33c-.12-.12-.21-.24-.29-.37-.07-.13-.13-.27-.17-.43s-.06-.32-.06-.49c0-.45.12-.86.36-1.22.24-.36.58-.65,1-.85.43-.2.91-.3,1.44-.3.21,0,.42.02.62.05.2.03.4.08.61.14.2.06.41.14.62.24s.4.2.56.3h0Z" />
  <path
    d="M118.23,83.74h.44v5.09h1.67c-.25.23-.63.47-1.13.71-.5.25-1.06.46-1.68.65l-.29-.41c.18-.11.34-.21.46-.32s.22-.22.3-.33c.07-.12.13-.25.18-.41.05-.19.09-.48.11-.86.02-.35.04-.88.04-1.59,0-.75-.03-1.55-.08-2.38v-.14s-.01,0-.01,0ZM120.89,83.15v.12c-.04.31-.06.63-.08.95-.02.32-.03.71-.04,1.15s-.01.9-.01,1.36c0,.2,0,.4,0,.59v.35s.01.12.01.12c0,.18-.02.33-.06.45s-.12.25-.22.38h-1.63v-.26h.85v-.2h-.85v-.26h.85v-.2h-.85v-.27h.85v-.19h-.85v-.26h.85v-.2h-.85v-.26h.85v-.19h-.85v-.26h.85v-.2h-.85v-.26h.85v-.2h-.85v-.26h.85v-.2h-.85v-.27h.85v-.19h-.85v-.26h.85v-.2h-.85v-.26h.85v-.19h-1.5s0-.04,0-.04v-.05s0-.08-.01-.18v-.06s0-.04,0-.06h2.71,0Z" />
  <path
    d="M124.58,83.61v.04c-.05.93-.08,1.62-.08,2.05v.03h2.12v.56h-2.12v.89c0,.5.04,1.09.07,1.75v.17s-1.98,0-1.98,0v-.26h.85v-.2h-.85v-.26h.85v-.2h-.85v-.26h.85v-.2h-.85v-.27h.85v-.19h-.85v-.26h.85v-.2h-.85v-.26h.85v-.19h-.85v-.26h.85v-.2h-.85v-.26h.85v-.2h-.85v-.26h.85v-.2h-.85v-.27h.85v-.19h-.85v-.26h.85v-.2h-.85v-.26h.85v-.19h-1.51c0-.05,0-.15-.01-.27,0-.04,0-.08,0-.12h4.78l.19.82c-.31-.08-.7-.15-1.18-.23-.48-.08-.84-.12-1.09-.13h-.03s0-.02,0-.02ZM121.91,89.69v-.11c.05-.38.08-.85.1-1.43.02-.58.03-1.18.03-1.81,0-.78-.03-1.6-.08-2.45v-.14s.43,0,.43,0v5.55h1.03c.52,0,.99-.01,1.4-.04s.8-.07,1.16-.13c.36-.06.72-.15,1.08-.25l-.22.82h-4.93Z" />
</svg>
