<?xml version="1.0" encoding="UTF-8"?><svg xmlns="http://www.w3.org/2000/svg" viewBox="0 0 128 128">
  <path
    d="M18.41,36.23H0v.15c.49.64.85,2.33,1.07,5.08.22,2.75.33,5.92.33,9.5v26.51c0,3.59-.11,6.75-.33,9.5-.22,2.75-.58,4.44-1.07,5.08v.15h17.6c4.66,0,8.59-1.29,11.78-3.87,3.19-2.58,5.56-6.08,7.11-10.49s2.32-9.4,2.32-14.95c0-8.49-1.68-15.06-5.05-19.7-3.36-4.64-8.48-6.96-15.36-6.96ZM27.73,83.81c-2.38,4.86-6.22,7.29-11.53,7.29h-7.29v-53.69h7.29c10.06,0,15.1,8.5,15.1,25.48,0,9.08-1.19,16.06-3.57,20.92Z" />
  <path
    d="M52.58,77.48v-25.26h-8.91v.15c.49.64.85,2.33,1.07,5.08.22,2.75.33,5.92.33,9.5v10.53c0,3.59-.11,6.75-.33,9.5-.22,2.75-.58,4.44-1.07,5.08v.15h10.31v-.15c-.49-.64-.85-2.33-1.07-5.08-.22-2.75-.33-5.92-.33-9.5Z" />
  <path
    d="M48.83,41.76c1.37,0,2.45-.36,3.24-1.07.78-.71,1.18-1.56,1.18-2.54,0-.93-.39-1.75-1.18-2.47-.79-.71-1.87-1.07-3.24-1.07s-2.53.36-3.31,1.07c-.79.71-1.18,1.54-1.18,2.47,0,.98.39,1.83,1.18,2.54.78.71,1.89,1.07,3.31,1.07Z" />
  <path
    d="M84.25,72.03l-4.93,14.95-7.51-20.92-.81-2.28c-1.03-3.04-1.78-5.31-2.25-6.81-.47-1.5-.7-2.69-.7-3.57,0-.49.07-.83.22-1.03v-.15h-9.21l9.35,26.14.81,2.28c1.03,3.05,1.78,5.32,2.25,6.81.47,1.5.7,2.69.7,3.57,0,.44-.07.79-.22,1.03v.15h6.92l13.33-39.99h-5.89c0,9.08-.69,15.69-2.06,19.81Z" />
  <path
    d="M126.93,86.98c-.22-2.75-.33-5.92-.33-9.5v-7c0-5.7-1.22-10.29-3.65-13.77-2.43-3.49-6.37-5.23-11.82-5.23-3.14,0-6.78.64-10.9,1.92l1.33,3.68c4.12-3.09,7.51-4.64,10.16-4.64,1.09,0,2.1.61,2.88,1.08,2.34,1.41,3.32,4.05,4.39,11.34-1.84-.16-3.72-.13-5.57.15-6.46.9-11.41,4.4-14.29,7.58-.97,1.07-2.05,2.55-2.61,3.88-1.41,3.34-2.68,7.08-1.75,10.73.36,1.42,1.23,2.79,2.33,3.71,2.23,1.86,5.04,2.48,8.28,2.48,2.65,0,5.22-.65,7.7-1.95,2.48-1.3,4.46-3.18,5.93-5.63l.07-.11v6.52h8.91v-.15c-.49-.64-.85-2.33-1.07-5.08ZM118.87,70.15v11.24c-.65,4.43-4.33,7.86-8.16,9.02-2.17.66-7.53,1.95-10.32-.24-.66-.52-1.14-1.21-1.45-2.08-.07-.33-.11-.68-.11-1.04,0-2.68.65-5.45,1.74-7.89.13-.3.28-.59.44-.87.45-.79,1.02-1.5,1.61-2.18.88-1,1.77-1.95,2.84-2.74.95-.7,1.96-1.32,3.02-1.84,2.13-1.03,4.45-1.64,6.82-1.75.62-.03,1.25-.02,1.87.02.17.01,1.28.21,1.69.35Z" />
</svg>
