<?xml version="1.0" encoding="UTF-8"?><svg xmlns="http://www.w3.org/2000/svg" viewBox="0 0 128 128">
  <path
    d="M0,19.29c0-6.11,3.25-9.36,9.36-9.36h8.58c6.05,0,9.36,3.25,9.36,9.36v6.76c0,.65-.39,1.04-1.04,1.04h-6.5c-.71,0-1.04-.39-1.04-1.04v-4.94c0-1.69-.91-2.6-2.6-2.6h-4.68c-1.75,0-2.6.91-2.6,2.6v29.64c0,1.75.91,2.6,2.6,2.6h4.68c1.69,0,2.6-.84,2.6-2.6v-8.71h-3.38c-.71,0-1.04-.39-1.04-1.04v-6.5c0-.71.33-1.04,1.04-1.04h10.92c.65,0,1.04.33,1.04,1.04v18.07c0,6.11-3.31,9.36-9.36,9.36h-8.58c-6.11,0-9.36-3.25-9.36-9.36V19.29Z" />
  <path
    d="M33.41,19.29c0-6.11,3.25-9.36,9.36-9.36h7.28c6.11,0,9.36,3.25,9.36,9.36v33.28c0,6.11-3.25,9.36-9.36,9.36h-7.28c-6.11,0-9.36-3.25-9.36-9.36V19.29ZM48.42,53.55c1.69,0,2.6-.85,2.6-2.6v-30.03c0-1.69-.91-2.6-2.6-2.6h-3.77c-1.69,0-2.6.91-2.6,2.6v30.03c0,1.75.91,2.6,2.6,2.6h3.77Z" />
  <path
    d="M.94,67.17c0-.65.33-1.04,1.04-1.04h15.6c6.11,0,9.36,3.32,9.36,9.43v33.22c0,6.11-3.25,9.36-9.36,9.36H1.98c-.71,0-1.04-.33-1.04-1.04v-49.92ZM15.76,109.55c1.69,0,2.6-.84,2.6-2.6v-29.58c0-1.76-.91-2.67-2.6-2.67h-5.98v34.84h5.98Z" />
  <path
    d="M55.48,118.13c-.58,0-.91-.33-1.04-.91l-1.82-9.49h-11.57l-1.75,9.49c-.13.58-.46.91-1.04.91h-6.96c-.71,0-1.04-.39-.84-1.1l10.79-49.99c.13-.65.52-.91,1.11-.91h9.04c.58,0,.98.26,1.11.91l10.79,49.99c.13.71-.13,1.1-.91,1.1h-6.89ZM46.83,77.51l-4.16,22.69h8.32l-4.16-22.69Z" />
  <path
    d="M95.38,91.35c0,4.35-1.62,7.21-4.75,8.58l4.49,17.03c.2.78-.2,1.17-.91,1.17h-6.76c-.65,0-.98-.33-1.11-.91l-4.36-16.51h-4.48v16.38c0,.65-.39,1.04-1.04,1.04h-6.76c-.65,0-1.04-.39-1.04-1.04v-49.92c0-.65.39-1.04,1.04-1.04h16.32c6.11,0,9.36,3.25,9.36,9.36v15.86ZM83.94,92.13c1.69,0,2.6-.91,2.6-2.6v-12.22c0-1.69-.91-2.6-2.6-2.6h-6.43v17.42h6.43Z" />
  <path
    d="M101.43,73.67c0,.65.26,1.1,1.04,1.1h16.25v13h-12.42c-.65,0-1.04.39-1.04,1.1v6.44c0,.71.39,1.1,1.04,1.1h12.42v13.13h-16.25c-.78,0-1.04.33-1.04,1.04v6.5c0,.65.26,1.04,1.04,1.04h23.92c.58,0,.98-.39.98-1.04v-49.92c0-.65-.39-1.04-.98-1.04h-23.92c-.78,0-1.04.39-1.04,1.04v6.5Z" />
  <path
    d="M123.93,62.56h-52.35c-2.17,0-3.94-1.77-3.94-3.94v-8.67c0-2.17,1.77-3.94,3.94-3.94h13.62v-5.9c0-2.17,1.77-3.94,3.94-3.94h17.24c2.17,0,3.94,1.77,3.94,3.94v5.9h13.62c2.17,0,3.94,1.77,3.94,3.94v8.67c0,2.17-1.77,3.94-3.94,3.94ZM73.65,56.56h48.22v-4.54h-13.62c-2.17,0-3.94-1.77-3.94-3.94v-5.9h-13.11v5.91c0,2.17-1.76,3.93-3.93,3.93h-13.62v4.54Z" />
  <path
    d="M93.42,28.03c-.3,0-.61-.09-.86-.28-.52-.38-.73-1.04-.54-1.64l1.33-4.09-3.48-2.52c-.52-.38-.73-1.04-.53-1.65.2-.61.76-1.02,1.4-1.02h4.3l1.33-4.08c.2-.61.76-1.02,1.4-1.02s1.2.41,1.4,1.02l1.33,4.08h4.3c.64,0,1.2.41,1.4,1.02.2.61-.02,1.27-.53,1.64l-3.48,2.53,1.33,4.08c.2.61-.02,1.27-.54,1.65-.52.38-1.21.37-1.73,0l-3.47-2.52-3.47,2.52c-.26.19-.56.28-.87.28ZM94.52,19.54l.95.69c.62.46.89,1.26.65,1.99l-.37,1.12.95-.69c.63-.46,1.47-.46,2.1,0l.95.69-.36-1.12c-.24-.74.02-1.54.65-2l.95-.69h-1.18c-.77,0-1.46-.49-1.7-1.23l-.36-1.12-.36,1.12c-.24.74-.92,1.23-1.7,1.23h-1.18ZM101.96,21.39h0s0,0,0,0ZM96.59,13.58s0,0,0,0h0Z" />
</svg>
