<?xml version="1.0" encoding="UTF-8"?><svg xmlns="http://www.w3.org/2000/svg" viewBox="0 0 128 128">
  <path
    d="M32.9,23.05c-1.05,0-2.1-.41-2.89-1.23-1.53-1.6-1.47-4.13.12-5.66C39.29,7.39,51.32,2.57,64,2.57s24.71,4.83,33.87,13.59c1.6,1.53,1.65,4.06.12,5.66-1.53,1.6-4.06,1.65-5.66.12-7.66-7.33-17.73-11.37-28.34-11.37s-20.67,4.04-28.34,11.37c-.77.74-1.77,1.11-2.76,1.11Z" />
  <path
    class="m"
    d="M47.93,64.65c-7.81,0-14.16-6.35-14.16-14.16s6.35-14.16,14.16-14.16,14.16,6.35,14.16,14.16-6.35,14.16-14.16,14.16ZM47.93,44.33c-3.4,0-6.16,2.76-6.16,6.16s2.76,6.16,6.16,6.16,6.16-2.76,6.16-6.16-2.76-6.16-6.16-6.16Z" />
  <path
    class="m"
    d="M88.44,125.5c-6.24,0-12.2-2.14-17.04-6.16-3.22-2.68-5.75-6.08-7.41-9.86-1.66,3.79-4.18,7.19-7.41,9.86-5.62,4.67-12.75,6.8-20.08,5.99-12.13-1.34-22-11.1-23.47-23.2-1.63-13.4,6.96-25.97,19.99-29.24,2.14-.54,4.32.76,4.85,2.91s-.76,4.32-2.91,4.85c-9.12,2.29-15.14,11.1-13.99,20.51,1.03,8.46,7.93,15.28,16.41,16.21,5.15.57,10.15-.92,14.09-4.19,3.95-3.28,6.33-7.89,6.71-12.98.17-2.25,1.79-4.87,5.81-4.87s5.65,2.62,5.81,4.87c.38,5.09,2.76,9.71,6.71,12.98,3.94,3.27,8.94,4.76,14.09,4.19,8.57-.95,15.49-7.86,16.44-16.43,1.08-9.72-5.29-18.53-14.81-20.47-2.16-.44-3.56-2.56-3.12-4.72.44-2.16,2.56-3.56,4.72-3.12,13.6,2.78,22.69,15.33,21.16,29.19-1.36,12.26-11.25,22.15-23.51,23.5-1.02.11-2.04.17-3.04.17Z" />
  <path
    class="m"
    d="M80.05,64.65c-7.81,0-14.16-6.35-14.16-14.16s6.35-14.16,14.16-14.16,14.16,6.35,14.16,14.16-6.35,14.16-14.16,14.16ZM80.05,44.33c-3.4,0-6.16,2.76-6.16,6.16s2.76,6.16,6.16,6.16,6.16-2.76,6.16-6.16-2.76-6.16-6.16-6.16Z" />
  <path
    d="M68.75,89.48l15.55-10.14c5.01-3.27,2.69-11.04-3.28-11.04h-34.07c-5.97,0-8.28,7.77-3.28,11.03l15.58,10.16c2.89,1.88,6.62,1.88,9.51,0Z" />
</svg>
