<?xml version="1.0" encoding="UTF-8"?><svg xmlns="http://www.w3.org/2000/svg" viewBox="0 0 128 128">
  <path
    d="M14.31,54.94c0,1.64-.05,3.29-.14,4.95-.09,1.66-.19,3.31-.32,4.95-.02.3-.04.7-.07,1.21s-.07,1.05-.13,1.63c-.06.58-.15,1.18-.24,1.77-.1.6-.26,1.13-.47,1.62s-.48.88-.81,1.19c-.33.3-.73.46-1.21.46-.41,0-.79-.09-1.11-.27-.33-.18-.6-.41-.82-.7-.22-.29-.38-.62-.5-.99-.12-.37-.18-.75-.17-1.14,0-.65.02-1.32.07-1.98s.1-1.32.19-1.98l-2.95.29c-.06.52-.13,1.13-.2,1.86-.07.72-.21,1.42-.43,2.08-.21.66-.52,1.23-.94,1.7s-.99.71-1.73.71c-.46,0-.83-.11-1.13-.32s-.54-.48-.71-.8c-.18-.33-.3-.69-.38-1.09-.07-.4-.11-.77-.11-1.13,0-1.19.06-2.37.16-3.55.1-1.18.18-2.36.23-3.55.04-1.25.07-2.5.06-3.76,0-1.26.02-2.52.06-3.79.02-.41.04-.9.05-1.46.01-.55.09-1.08.21-1.56.13-.49.35-.9.66-1.23.31-.33.77-.5,1.38-.5.85,0,1.5.23,1.93.68.43.45.74,1,.91,1.67.18.66.26,1.37.26,2.11,0,.74,0,1.41-.01,2.01,0,.79-.02,1.57-.07,2.33-.04.76-.09,1.53-.13,2.3l3.18-.46c.02-.97.05-1.93.07-2.89.02-.95.07-1.9.13-2.86.02-.46.04-.94.07-1.46s.1-.99.24-1.42.38-.8.71-1.08.82-.43,1.47-.43c.55,0,1,.16,1.35.48s.62.71.83,1.16.35.94.43,1.46c.08.52.12.98.11,1.4v.38h.01Z" />
  <path
    d="M22.07,72.85c-1.01,0-1.89-.27-2.64-.82-.75-.54-1.38-1.22-1.89-2.06-.51-.83-.9-1.77-1.14-2.78-.26-1.02-.38-2.03-.37-3.02,0-1.05.14-2.14.4-3.25.26-1.12.66-2.14,1.21-3.06s1.22-1.67,2.06-2.25c.83-.58,1.83-.87,2.98-.86,1.11,0,2.05.31,2.84.92.78.61,1.41,1.36,1.88,2.27.47.9.8,1.89,1,2.97s.26,2.08.19,3.03c-.07,1.05-.23,2.11-.51,3.18-.27,1.07-.67,2.03-1.19,2.88-.52.85-1.18,1.54-1.97,2.07-.8.53-1.74.8-2.83.79h-.01ZM22.43,59.41c-.3,0-.56.16-.79.47s-.42.7-.57,1.16-.27.94-.35,1.44c-.08.51-.12.94-.13,1.32,0,.47.04.99.13,1.55s.21,1.07.37,1.53.35.85.57,1.16.49.46.79.46c.32,0,.59-.15.82-.44s.41-.67.55-1.13c.14-.46.24-.96.3-1.5.06-.54.09-1.05.1-1.53,0-.44-.04-.91-.11-1.44-.08-.52-.19-1.02-.33-1.47-.15-.46-.33-.83-.56-1.13s-.49-.45-.79-.45h0Z" />
  <path
    d="M44.68,63.22c0,.87-.1,1.83-.3,2.87-.19,1.04-.52,2-.96,2.89-.45.89-1.04,1.63-1.77,2.22s-1.63.88-2.72.88c-.28,0-.57-.02-.86-.06-.3-.04-.58-.11-.85-.21-.27-.1-.51-.24-.72-.4-.22-.17-.38-.4-.51-.67l-.29,4.28c-.02.46-.04,1-.05,1.64-.01.63-.1,1.24-.24,1.81-.15.57-.4,1.07-.75,1.47-.35.41-.85.61-1.5.6-.38,0-.69-.19-.95-.58-.26-.39-.46-.88-.6-1.47-.15-.6-.26-1.26-.33-1.99-.07-.74-.12-1.44-.14-2.11s-.02-1.29-.02-1.85v-1.22c0-1.33,0-2.65-.01-3.97-.01-1.32-.02-2.64-.01-3.97v-1.11c0-.51.02-1.05.07-1.65.04-.6.11-1.21.2-1.85.09-.63.23-1.21.41-1.74s.41-.95.69-1.27c.28-.33.62-.49,1.01-.49.26,0,.49.08.7.23.21.15.38.34.53.57.15.23.27.47.37.73s.18.49.24.71c.62-.69,1.33-1.21,2.13-1.56s1.66-.53,2.58-.52c.95,0,1.73.27,2.33.82.6.54,1.07,1.21,1.42,2,.34.79.58,1.64.72,2.55s.2,1.72.19,2.45h.02ZM40.43,62.96c0-.3-.02-.6-.07-.91-.05-.3-.13-.6-.26-.86s-.31-.49-.55-.66-.54-.26-.89-.26c-.47,0-.97.15-1.5.46-.52.3-.92.66-1.18,1.05-.1.16-.16.41-.18.77s-.03.63-.04.8c0,.14,0,.32.01.55,0,.23.02.46.04.7s.04.47.07.68c.03.22.07.38.13.51.06.18.19.34.38.49s.41.29.65.4c.24.12.48.21.72.27.25.06.46.09.64.09.41,0,.76-.15,1.01-.47.26-.32.46-.69.62-1.13s.25-.88.3-1.35c.05-.46.08-.85.08-1.14h0Z" />
  <path
    d="M52.8,64.57c0,.18-.08.32-.23.43s-.35.2-.59.28-.51.14-.8.19c-.29.05-.57.08-.83.1s-.5.03-.71.04-.36.01-.44.01c-.1,0-.32,0-.65-.02-.33-.01-.66-.05-1.02-.12-.35-.06-.66-.17-.94-.32s-.41-.37-.41-.65c0-.33.15-.6.45-.8s.65-.33,1.04-.42c.4-.09.79-.13,1.17-.15s.66-.02.85-.02c.1,0,.26.01.45.04.19.02.4.06.63.11.23.05.46.12.7.2s.46.17.65.27.35.22.48.36.19.3.19.47h0Z" />
  <path
    d="M62.83,55.84c0,.57-.19,1-.58,1.28-.39.27-.82.54-1.3.78s-.91.54-1.3.87c-.39.33-.58.84-.58,1.52,0,.36.08.66.25.93.16.26.37.49.62.7.25.21.52.43.82.65.3.22.57.47.82.75.24.28.45.62.62,1.02.16.4.25.88.24,1.46,0,.83-.22,1.65-.65,2.45-.43.8-.98,1.51-1.64,2.13-.67.62-1.42,1.12-2.25,1.49-.83.37-1.66.56-2.47.55-.33,0-.68-.03-1.01-.08s-.64-.15-.91-.29c-.27-.14-.49-.33-.66-.58-.18-.25-.27-.57-.26-.97,0-.55.12-.99.33-1.29s.5-.55.83-.72c.33-.18.7-.31,1.09-.41s.75-.22,1.09-.37c.33-.15.62-.34.83-.58s.33-.57.33-1.01c0-.41-.16-.85-.49-1.3-.32-.44-.68-.93-1.08-1.43-.4-.51-.76-1.05-1.08-1.63s-.49-1.21-.48-1.91c0-.85.18-1.64.53-2.36s.82-1.35,1.41-1.88c.58-.53,1.26-.95,2.02-1.25s1.55-.46,2.38-.45c.32,0,.63.03.94.09.3.06.58.16.82.32s.43.35.58.6.22.56.22.94h-.01Z" />
  <path
    d="M76.6,68.07c0,.36-.02.82-.05,1.39-.03.57-.12,1.13-.26,1.68-.14.54-.36,1.02-.66,1.41-.3.4-.72.59-1.25.59-.74,0-1.3-.24-1.69-.72-.4-.47-.58-1.07-.55-1.78-.64.55-1.36.99-2.16,1.3-.8.31-1.63.47-2.45.46-.57,0-1.12-.15-1.63-.43-.51-.28-.97-.64-1.36-1.08s-.71-.93-.94-1.47c-.24-.55-.35-1.09-.35-1.62,0-.95.3-1.78.89-2.49.59-.71,1.31-1.32,2.16-1.82.85-.5,1.77-.9,2.73-1.19.96-.29,1.82-.49,2.58-.58,0-.1,0-.19.02-.27.01-.08.02-.17.02-.27,0-.62-.16-1.11-.5-1.49-.33-.38-.81-.57-1.42-.57-.49,0-.92.08-1.28.25-.36.16-.69.35-1.01.56-.32.21-.64.4-.96.56s-.68.25-1.07.25c-.44,0-.81-.14-1.11-.42-.3-.28-.46-.63-.46-1.07,0-.65.2-1.25.59-1.78.39-.54.88-.98,1.46-1.35s1.22-.65,1.91-.85c.68-.21,1.32-.3,1.89-.3.54,0,1.07.07,1.61.2s1.04.33,1.52.6c.47.27.91.6,1.29.99s.69.84.93,1.36c.35.74.64,1.52.85,2.34s.38,1.67.49,2.53.19,1.72.23,2.59c.04.86.05,1.7.05,2.51h-.02ZM71.85,67.09l-.08-2.02s-.08,0-.12-.02c-.04-.01-.08-.02-.12-.02-.26,0-.58.06-.97.19s-.76.3-1.11.53c-.36.23-.66.47-.91.76-.25.27-.37.56-.38.86,0,.28.1.47.29.57.19.1.43.15.68.15.44,0,.9-.11,1.4-.33.49-.23.93-.44,1.31-.66h.01Z" />
  <path
    d="M85.16,64.74c0,.18-.08.32-.23.43-.15.11-.35.2-.59.28s-.51.14-.8.19-.57.08-.83.1c-.26.02-.5.03-.71.04-.21,0-.36.01-.44.01-.1,0-.32,0-.65-.02-.33-.01-.66-.05-1.02-.12s-.66-.17-.94-.32-.41-.37-.41-.65c0-.33.15-.6.45-.8s.65-.33,1.04-.42c.4-.09.79-.13,1.17-.15s.66-.02.85-.02c.1,0,.26.01.45.03.19.02.4.06.63.11.23.05.46.12.7.2s.46.17.65.27.35.22.48.36c.13.14.19.3.19.47h0Z" />
  <path
    d="M101.06,56.39c0,.55-.15,1.12-.44,1.69-.29.57-.64,1.14-1.05,1.7s-.84,1.1-1.28,1.6c-.45.51-.84.96-1.18,1.38.27.44.62,1.02,1.04,1.74s.8,1.5,1.18,2.31c.37.82.69,1.61.96,2.38s.4,1.42.39,1.94c0,.41-.13.8-.39,1.14s-.61.52-1.07.52c-.33,0-.68-.15-1.02-.44-.35-.29-.69-.67-1.04-1.13s-.68-.99-.99-1.56c-.32-.58-.6-1.14-.87-1.7-.27-.55-.5-1.08-.71-1.56s-.37-.88-.49-1.18c-.26.26-.54.47-.82.63s-.57.36-.85.58c0,.41-.02,1-.05,1.75-.03.76-.13,1.5-.28,2.23s-.4,1.37-.74,1.91c-.34.54-.83.82-1.49.81-.52,0-.91-.24-1.19-.71s-.47-1.01-.6-1.64-.19-1.26-.21-1.91-.02-1.13-.02-1.47c0-1.47.05-2.93.14-4.4s.14-2.93.17-4.4c0-.33,0-.78.02-1.32.01-.54.05-1.13.11-1.77.06-.63.15-1.28.28-1.93.12-.65.29-1.24.51-1.77s.51-.95.85-1.27c.35-.32.77-.49,1.27-.49.36,0,.66.13.91.41.24.27.44.61.59,1.03s.26.88.32,1.4c.07.52.12,1.03.14,1.53s.04.97.04,1.41v1.04c0,.18,0,.44-.02.79s-.02.71-.04,1.08-.02.72-.02,1.04.02.55.05.68c.14,0,.35-.13.63-.4.28-.27.6-.61.97-1.02.37-.41.77-.85,1.19-1.32s.86-.9,1.32-1.32.89-.76,1.33-1.02c.44-.27.85-.4,1.22-.4.4,0,.7.14.92.42.21.28.32.6.32.95h0Z" />
  <path
    d="M114.35,67.16c0,.68-.22,1.33-.65,1.97-.43.64-.97,1.21-1.61,1.72-.65.51-1.34.91-2.07,1.21-.74.3-1.41.46-2.02.45-1.05,0-1.99-.27-2.81-.8s-1.5-1.2-2.06-2.02-.97-1.72-1.25-2.7c-.29-.98-.42-1.94-.42-2.87,0-.99.15-2.05.43-3.18.28-1.13.71-2.17,1.28-3.12s1.28-1.74,2.15-2.37,1.89-.94,3.08-.94c.68,0,1.32.12,1.93.35s1.14.55,1.6.97c.46.42.82.91,1.09,1.49s.41,1.22.41,1.94c0,.93-.21,1.8-.61,2.61-.4.81-.93,1.51-1.58,2.11-.66.59-1.41,1.07-2.27,1.43s-1.73.56-2.62.6c.08.57.31.99.69,1.25s.85.39,1.38.4c.4,0,.79-.1,1.16-.29.38-.19.74-.42,1.1-.66.36-.24.71-.47,1.06-.66s.7-.29,1.06-.29c.4,0,.76.13,1.07.39.32.26.47.6.47,1.01ZM109.57,59.85c0-.26-.07-.52-.21-.8s-.35-.42-.65-.42c-.44,0-.8.11-1.1.33-.3.23-.55.51-.75.86s-.35.72-.47,1.11c-.11.4-.18.76-.2,1.1.28-.06.61-.13,1-.23s.76-.23,1.1-.4c.35-.16.65-.38.9-.63.25-.26.38-.57.38-.92h0Z" />
  <path
    d="M128,67.23c0,.68-.22,1.33-.65,1.97-.43.65-.97,1.22-1.61,1.72-.65.51-1.34.91-2.07,1.21s-1.41.46-2.02.45c-1.05,0-1.99-.27-2.81-.8s-1.5-1.2-2.06-2.02-.97-1.72-1.25-2.7c-.29-.98-.42-1.94-.42-2.87,0-.99.15-2.05.43-3.18.28-1.13.71-2.17,1.28-3.12.57-.95,1.28-1.74,2.15-2.37s1.89-.94,3.08-.94c.68,0,1.32.12,1.93.35s1.14.55,1.6.97c.46.42.82.91,1.09,1.49s.41,1.22.41,1.94c0,.93-.21,1.8-.61,2.61-.4.81-.93,1.51-1.58,2.11-.66.59-1.41,1.07-2.27,1.43-.85.37-1.73.56-2.62.6.08.58.31.99.69,1.25s.85.39,1.38.4c.4,0,.79-.1,1.16-.29.38-.19.74-.42,1.1-.66s.71-.47,1.06-.66.7-.29,1.06-.29c.4,0,.76.13,1.07.39.32.26.47.6.47,1.01h0ZM123.22,59.92c0-.26-.07-.52-.21-.8s-.35-.42-.65-.42c-.44,0-.8.11-1.1.33-.3.23-.55.51-.75.86s-.35.72-.47,1.11c-.11.4-.18.76-.2,1.1.28-.06.61-.13,1-.23s.76-.23,1.1-.4c.35-.16.65-.38.9-.63.25-.26.38-.56.38-.92h0Z" />
  <path
    d="M28.47,48.92c.1.07.13.18.1.34s-.1.35-.2.57c-.1.22-.23.45-.38.69-.15.24-.29.47-.44.68-.15.21-.28.4-.4.57s-.21.28-.26.35c-.06.08-.19.25-.4.49-.2.25-.43.5-.68.75-.24.25-.49.45-.74.61s-.44.18-.6.07c-.19-.13-.24-.35-.17-.66s.2-.63.39-.97c.19-.34.4-.66.62-.97.22-.3.38-.52.49-.66.06-.08.16-.19.29-.33.13-.15.27-.29.44-.45.16-.16.34-.31.53-.47s.37-.29.54-.41.33-.19.49-.24.28-.03.38.04h.02Z" />
  <path
    d="M22.48,47.46c.12,0,.22.08.29.23s.13.34.18.57c.05.23.09.49.12.77.03.28.05.54.05.8s.01.48.02.68v.43c0,.1,0,.31-.02.62-.01.31-.04.64-.09.98s-.12.64-.23.9-.26.39-.44.39c-.23,0-.41-.15-.54-.44s-.23-.63-.27-1c-.05-.38-.09-.76-.09-1.13,0-.37,0-.64,0-.81,0-.1.01-.24.03-.43s.04-.39.09-.6c.04-.22.09-.44.15-.68s.12-.44.19-.63c.07-.19.16-.34.26-.46.1-.12.21-.18.33-.18h0Z" />
  <path
    d="M16.58,49.02c.15.04.31.12.49.23.17.11.35.24.54.39s.37.3.53.45.31.29.44.43.23.25.29.32c.11.13.27.35.5.65.23.3.43.61.63.94.19.33.33.65.41.95s.02.52-.15.65c-.15.11-.35.09-.59-.06s-.49-.34-.74-.58-.47-.48-.68-.72c-.21-.24-.34-.4-.4-.48-.05-.06-.14-.18-.26-.33-.12-.16-.26-.35-.41-.55-.15-.21-.3-.43-.45-.66-.15-.24-.28-.46-.38-.67-.1-.21-.18-.4-.21-.55s0-.27.09-.34.22-.09.37-.04h0Z" />
</svg>
