<?xml version="1.0" encoding="UTF-8"?><svg xmlns="http://www.w3.org/2000/svg" viewBox="0 0 128 128">
  <path
    d="M91.03,51.72c-1.13-.15-2.59-.68-3.44-1.44-.36-.34-1.12-1.26-.74-1.23.21.1.79.39,1.09.53,2.69.99,5.63.61,8.45.67.16.02.28-.07.3-.22.44-2.07.79-4.26,1.99-6.05,1.4-1.77,2.31.21,2.44,1.64.2,1.44.06,2.95.1,4.4,0,.26.23.1.58.14,1.48-.01,2.97.07,3.76-.07.75-.1,1.64.04,2.42-.05.53-.14,1.08-.03,1.62-.09.33-.05.91-.18.94.3.04.75-.64,1.04-1.3,1.16-.08.03-.08.09-.04.17.72,1.22.18,3.68-1.48,3.41-1.53-.28-1.49-2.31-.88-3.4-.46-.18-5.43.09-5.78.03-.4,3.27-1.17,6.62-2.35,9.71-.44,1.11-.91,2.19-.88,3.41.12,3.15,1.06,7.61,5.33,5.51,1.15-.66,2.92-2.19,3.14-3.73.16-2.18,0-4.45.08-6.63-.03-.97.99-1.77,1.75-2.18.1-.04.22-.06.3.03.03,6.05-.54,12.51.07,18.51,1.66-2.12,3.24-4.68,4.49-7.08.83-2.4,1.68-3.46,4-4.49-.3-.34-.96-.25-1.35-.56-1.56-.71-2.1-2.41-1.42-3.91,1.03-2.45,4.58-3.06,6.96-2.62,1.11.21,2.04.42,1.17,1.68-.3.45-.6.25-1.05.04-1.81-.59-5.9-.94-6.37,1.47-.04,2.04,3.34,2.47,4.89,2.59.38-.02.76.25.34.58-6.62,1.58-7.03,8.65.56,7.74,3.13-.48,5.22-2.79,6.96-5.26.07-.1.21-.28.33-.15.08.28-.28.63-.4.88-2.12,3.6-6.06,6.75-10.45,5.97-1.68-.25-3.21-1.2-3.71-2.91-.05-.08-.1-.34-.17-.32-1.22,2.68-2.99,5.07-4.63,7.49-.41,7.34,1.3,18.5-4.42,24.14-2.61,1.69-5.01-1.25-5.12-3.86-.84-7.71,2.84-13.22,7.33-18.7.17-3.46-.15-7.51-.22-10.87-.61.92-1.08,1.95-1.96,2.66-1.33,1.25-3.31,1.87-5.04,1.17-4.85-2.27-3.1-15.41-2.75-20.03,0-.07.07-.25-.03-.22-.53,0-5.04,0-5.37,0h0ZM98.03,50.25s0,.02.02.03c.18,0,1.62,0,1.83,0,.29,0,.18-1.14.18-1.45-.07-1.21,0-2.84-.46-3.95-.11-.26-.33-.5-.57-.2-.85,1.33-.78,3.96-1.01,5.56h0ZM99.86,51.66s-.02-.03-.05-.03c-.27.02-1.57.07-1.86.1-.04.02-.05.13-.05.19-.09.84-.08,1.69-.08,2.53,0,.22-.07.51-.1.7,0,.25,0,.65,0,1.01,0,1.8,0,5.44,0,5.74,0,.02,0,.03.04-.08.09-.25.25-.58.32-.85.87-3.03,1.61-6.14,1.77-9.3h0ZM106.53,80.18s-.07.03-.11.08c-.14.15-.28.32-.42.49-2.32,3.08-4.38,6.39-4.97,10.29-.4,2.74-.76,6.59.98,8.89.93,1.11,2.25,1.03,2.92-.27,1.17-2.31,1.28-5.37,1.48-7.93.27-3.84.36-7.72.13-11.54h0Z" />
  <path
    d="M5.6,66.55c5.43,1.43,8.64,7.94,14.63,7.59,1.65-.15,2.8-1.57,3.42-3.01.21-.34.18-1.11.74-.75-.68,2.96-3.01,6.02-6.37,5.59-5.35-.22-8.51-6.15-12.78-7.97-.09.86.14,1.71.09,2.56.05,1.16,1.13,4.79-1.13,3.47-.14-.13-.21-.3-.23-.49-.16-1.42-.29-2.89-.44-4.29-.04-.05-.12-.03-.19.03-.29.24-.53.55-.89.7-3.39,1.02-3.19-3.08.07-3.67.25-.06.81.04.76-.37-.8-11.82-1.04-24.32.41-35.94.5.01,1.78.23,2,.79-.56,10.88-1.46,21.86-.67,32.79.05.58,0,1.56.08,2.05,6.1-9.04,11.37-18.37,18.31-26.87,4.31-5.06,9.53-11.2,16.34-12.66,2.71-.57,6.12.29,6.86,3.32.76,3.05-1.25,6.74-3.49,8.7-.18-.01-.36-.22-.2-.37.78-.88,1.39-1.85,1.71-2.99.97-3.55-.07-6.74-3.92-6.69-12.93.97-27.72,28.29-35.12,38.46h0ZM3.39,67.25c-2.77-.35-2.52,2.29-.64,1.21.18-.13.53-.35.69-.53,0-.02.01-.04.01-.07,0-.14-.02-.51-.06-.6h0Z" />
  <path
    d="M39.27,68.26c-2.4,3.13-5.58,5.54-9.75,4.9-1.47-.21-2.95-1.02-3.56-2.41-1.12-2.65.75-5.03,3.24-5.95.27-.1.11-.23-.07-.28-1.56-.32-2.78-1.23-2.84-2.9.06-3.86,5.09-4.69,8.08-3.81.5.14.85.41.57,1.02-.13.27-.31.67-.61.74-.2.03-.51-.2-.77-.27-1.66-.5-5.11-.79-6.08.87-.4.65-.26,1.45.37,1.93.74.62,2,.96,2.93,1.14.5.13,1.03.11,1.55.16.27.02.51.29.27.51-.22.17-.53.18-.78.29-1.23.49-2.67,1.17-3.55,2.21-1.31,1.49-1.12,3.48.42,4.57.66.49,1.53.78,2.36.83,3.49.27,6.72-1.77,8.39-4.74.26-1.21.39-2.64.46-3.87,0-.63.06-1.05-.28-1.5-.21-.25-.64-.04-.97-.16-.16-.07-.07-.26.02-.36.49-.54,1.43-.54,2.02-.2,2.41,1.61-.51,7.06.82,9.36.24.43.84.62,1.31.53,1.27-.27,2.13-1.58,2.79-2.59,1.49-2.28,1.66-5.03,2.27-7.63.03-.12.06-.21.15-.27.24-.17,1.56-.51,1.65-.15.31,3.11-.41,6.55.39,9.57.21.82.81,1.68,1.75,1.59.27,0,.84-.33.8.16-.21.63-1.55.79-2.09.71-3.12-.3-2.45-5.32-2.55-7.58,0-.14-.05-.27-.16-.09-1.15,2.89-2.51,7.75-6.46,7.45-1.17-.13-1.85-1.06-2.03-2.16,0-.28,0-1.28,0-1.58,0-.02,0-.07-.03-.05h0Z" />
  <path
    d="M84.13,59.41s.05.09.08.18c.07.29.14.61.15.91.33.69-1.18,11.2.73,7.8,1.2-1.89,2.43-6.82,4.59-7.38.99-.11,1.53.98,1.67,1.82.4,2.01.16,4.39.63,6.42.35,1.61,1.48,2.5,3.22,2.13.08-.01.16-.03.23,0,.12.02.18.13.15.23-.18.38-.67.52-1.02.62-5.68,1.05-4.02-5.19-4.94-8.67-.75-2.27-2.15,1.23-2.54,2-.84,1.79-1.52,3.68-2.52,5.39-.17.29-.39.64-.64.86-1.13.95-1.36-1.89-1.38-2.55-.02-.44-.03-.88-.07-1.31,0-.03,0-.13-.04-.1-.26.3-1.22,1.57-1.69,2.09-2.58,2.86-7.13,4.63-10.66,2.44-1.28-.85-1.94-2.44-1.5-4.16.42-1.59,1.92-2.76,3.44-3.34.39-.19-.29-.33-.44-.35-1.31-.34-2.53-1.38-2.5-2.79-.04-3.67,4.84-4.7,7.74-3.93.75.19,1.32.36.85,1.24-.42.81-.57.66-1.31.33-1.76-.54-6.15-.88-6.29,1.62.04,1.74,2.85,2.24,4.2,2.43.26.05,1.62-.06,1.14.55-.52.29-1.37.53-1.94.78-1.71.78-3.6,2.5-3.28,4.35.88,3.65,6.06,3.18,8.65,1.55,1.04-.69,1.99-1.64,2.9-2.66.33-.4.61-.73.75-1.15.16-.86-.03-1.81.01-2.72,0-.28.05-.56.11-.83.17-.88-.3-1.99-.04-2.87.22-.42,1.17-1.12,1.57-.95h0Z" />
  <path
    d="M66.69,61.51c.03-.85-.64-1.38-1.44-1.43-3.55-.12-6.6,4.61-8.47,7.06h0s-.2.25-.49.67c.14-.67.32-1.4.43-2.01.2-1.11.48-3.45.84-5.17.33-1.61.63-3.26,1-4.84.22-.95.52-1.83.7-2.81.08-.43.15-.87.22-1.3.05-.51.12-1-.2-1.46,0,0,0,0,0,0l.05-.07c1.48-2.19,2.51-3.64,3.34-4.8,1.34-1.89,2.02-2.84,2.89-4.54,1.18-2.31,1.41-4.23.63-5.84-.62-1.29-1.89-2.35-3.56-2.73-.06-.01-.12-.03-.18-.04-1.78-.35-3.26.01-4.38,1-1.34,1.18-1.99,3.15-1.79,5.75.18,2.33.42,3.37.96,5.64.29,1.22.69,2.9,1.21,5.37l.02.08c-.47.3-.73.69-.88,1.17-.11.43-.2.86-.3,1.29-.22,1.02-.34,2.1-.51,3.13-.4,2.45-.78,4.85-1.38,7.26-.46,1.93-.98,3.84-1.34,5.79-.15.79-.35,2.15-.09,2.93.13.38.81.83,1.24.4.35-.27.64-.81.75-1.14.23-.64.33-1.35.68-1.97,1.05-1.82,5.21-8.79,7.73-6.99,1.13,1.77-2.48,4.04-3.68,4.96-.63.46-1.59.81-1.87,1.38-.41,1.13,1.19,2.11,2.24,2.8.76.42,1.35.82,2.12.82.41-.07,1.19-.7,1.15-1.27-.03-.15-.23-.24-.41-.33-.18-.1-.35-.19-.53-.28-.48-.3-3.4-1.58-3.05-2.18,2.19-1.49,6.35-3.11,6.36-6.32ZM64.79,34.5c.19.22.36.47.49.74.64,1.32.59,2.83-.45,4.86-.84,1.64-1.66,2.97-2.97,4.82-.3.42-.64.75-1.01,1.27.58-1.28,1.04-2.26,1.44-3.1.69-1.47,1.14-2.43,1.7-3.86.77-1.97,1.04-3.55.8-4.74ZM62.71,33.29c.41.16.72.42.92.79.51.94.33,2.6-.54,4.8-.55,1.39-1,2.35-1.68,3.8-.28.6-.61,1.3-1,2.15l2.3-11.54ZM60.6,33.5c.32-.26.7-.39,1.14-.39,0,0,0,0,.01,0l-2.31,11.6c-.03-.77-.06-1.42-.08-2-.07-1.63-.12-2.7-.1-4.59.03-2.33.49-3.93,1.34-4.62ZM58.16,44.38c-.54-2.29-.8-3.33-.97-5.58-.17-2.28.35-3.91,1.45-4.89.22-.2.46-.36.73-.49-.69,1-1.06,2.57-1.08,4.68-.02,1.91.03,2.99.1,4.64.04.85.08,1.82.12,3.11-.13-.56-.24-1.05-.35-1.48Z" />
</svg>
