<?xml version="1.0" encoding="UTF-8"?><svg xmlns="http://www.w3.org/2000/svg" viewBox="0 0 128 128">
  <path
    d="M21.05,80.08c-3.05-1.98-5.81-4.38-8.18-7.14-.87-.93-1.75-1.83-2.62-2.76-.34-.5-1.02-.63-1.52-.28-.07.05-.13.1-.19.17-1.37,1.12-2.96,1.93-4.67,2.38-1.19.3-2.62.59-3.45-.67s-.28-2.45.48-3.57c1.75-2.39,4.85-3.36,7.64-2.38,1.75.53,1.81.57,2.83-.84,1.43-1.96,2.84-3.92,4.25-5.89,1.09-1.46,2.11-2.98,3.05-4.54-2.16,1.11-4.5,1.86-6.9,2.22-.49.05-.98.05-1.46,0-1.96-.37-2.89-1.34-2.7-3.31.38-3.34,2.27-6.32,5.12-8.11.84-.59,1.85-.24,1,.67-1.54,1.48-2.8,3.25-3.69,5.2-.59,1.1-.19,2.47.91,3.06.38.2.8.3,1.23.27,1.71.05,3.4-.23,5-.84,1.93-.65,3.55-1.98,4.58-3.73,3.57-5.91,8.18-11.13,13.6-15.4,1.47-1.17,3.16-2.03,4.98-2.52,2.1-.22,2.97.9,1.96,2.78-.81,1.44-1.79,2.78-2.93,4-3.28,3.57-6.95,6.76-10.94,9.52-2.91,1.98-5.41,4.48-7.4,7.37-2.55,3.81-5.53,7.25-8.46,10.83-.75.95-.78.9.08,1.87,1.9,2.14,3.78,4.31,5.71,6.42,1.7,2.04,3.93,3.59,6.44,4.45,2.3.86,4.89-.05,6.15-2.15.43-.68,1.01-1.43.36-2.29-.71-.68-1.84-.66-2.52.05,0,0-.01.01-.02.03-.73.73-1.4,1.53-2,2.38-.18.22-.48.59-.71.51s-.3-.64-.24-.87c.2-.78.61-1.47,1.19-2.02.74-.77,1.71-1.29,2.76-1.48,2.24-.31,3.41.98,2.76,3.11-1.04,2.63-3.44,4.46-6.26,4.76-1.81.06-3.61-.38-5.18-1.26h0ZM25.81,48.86c2.26-1.19,9.4-7.14,13.18-11.39.71-.84,1.34-1.73,1.9-2.68,1.11-1.71-1.35-1.74-3.9.26-4.11,3.21-8.99,10.78-11.2,13.8h.03ZM2.91,71.33c1.85-.52,3.55-1.45,5-2.71.18-.16.19-.43.03-.61,0,0-.01-.02-.03-.03-1-.9-2.4-1.2-3.69-.81-1.42.32-2.53,1.41-2.91,2.82-.24,1.07.39,1.54,1.6,1.31v.03s0,0,0,0ZM37.89,64.93c-2,1.54-6.19,5.64-10.13,6.19-1.43.19-2.14-.36-2.12-1.79.05-1.26.29-2.5.71-3.69,1.19-3.31,3.33-7.23,5.43-8.96,1.19-1,1.52.26,1.19.93-.86,1.46-3.71,6.3-4.7,10.13-.33,1.34.06,1.74,1.43,1.38.64-.16,1.25-.41,1.81-.76,2.97-1.82,5.65-4.06,7.97-6.66.36-.4.68-.84.95-1.31,3.24-6.07,6.94-11.9,11.06-17.41,2.04-2.58,6.49-8.06,8.88-9.24,1.35-.69,2.38-.12,2.31,1.39-.11,1.42-.51,2.79-1.19,4.04-2.09,3.71-4.64,7.14-7.61,10.19-2.89,3.09-5.95,6.07-9.04,8.95-1.49,1.48-2.66,3.24-3.41,5.2-.7,1.54-1.28,3.13-1.74,4.76-.36,1.39.19,1.9,1.59,1.5,1.19-.3,2.31-.79,3.33-1.46,2.72-1.85,5.35-3.84,7.87-5.95,1.17-1.27,2.24-2.64,3.21-4.06.64-.76,1.38-1.42,2.2-1.98,1.19-.81,1.54.2.98,1.11-1.27,2.02-2.69,3.92-3.86,5.95-.73,1.38-1.29,2.86-1.64,4.39-.48,1.85.48,2.62,2.31,2.02.42-.12.84-.32,1.19-.48,1.69-.68,1.02.53.36.88-.76.42-1.55.76-2.38,1-2.94.78-4.48-.67-3.96-3.69.09-.64.68-2.45.71-2.7-.24.17-.55.36-.76.51-2.53,2.21-5.33,4.11-8.33,5.64-.94.44-1.94.73-2.97.87-1.28.29-2.55-.51-2.85-1.79-.09-.42-.07-.85.05-1.25.28-1.29.78-2.53,1.19-3.81l.08-.05h-.13s.01.01.01.01ZM45.74,55.87l1.71-1.54c5.15-4.52,9.57-9.82,13.08-15.7.44-.74.78-1.54.98-2.38.18-.68-.12-2.26-1.54-.95-.65.59-1.25,1.23-1.79,1.93-2.3,3.02-4.52,6.01-6.58,9.13-2.06,3.13-3.92,6.35-5.95,9.52h.07ZM112.11,42.91c-1.4-.02-2.8-.16-4.19-.4-1.23-.18-2.47.31-3.26,1.27-1.62,1.87-3.01,3.94-4.13,6.15-1.58,3.03-3.05,6.9-4.6,9.96-2.3,4.56-7.23,14.39-15.06,15.58-2.8.44-5.06-.59-4.56-4.4.14-1,.42-1.97.84-2.89,1.45-3.45,3.89-6.39,7.02-8.45,1.04-.72,2.3-1.1,3.57-1.07,1.19.14,1.79,1.19.59,1.19-3.36.12-5.54,2.26-7.5,4.64-1.72,1.93-2.84,4.3-3.26,6.85-.3,2.14.87,3.39,3.01,3.09.84-.13,1.65-.44,2.38-.88,2.64-1.75,4.79-4.15,6.24-6.97,1.84-3.21,3.45-6.58,5.06-9.92s3.36-7.64,5.83-10.63c.98-1.19,2.14-2.26,3.26-3.39.36-.38.48-.68-.17-.78-3.15-.51-6.24-1.48-9.52-1.31-2.47.18-4.6,1.79-5.43,4.11-.45,1.04-.1,2.26.84,2.91.59.42.5,1.7-.87.95-1.11-.63-1.52-2.62-.88-4.17,1.27-3.03,3.93-5.24,7.14-5.95,1.72-.34,3.49-.28,5.18.19,3.36.69,6.69,1.57,10.08,2.07,2.23.29,4.49.33,6.73.12,2.38-.18,3.19-1.49,2.71-2.43-.26-.5-.59-1.07.14-1.45s1.75.5,1.79,1.19.65,5-8.99,4.82h.03,0ZM118.82,66c-3.45,3.97-5.83,4.42-6.88,3.69-1.64-1.19-.18-4.52,0-5.21-2.37,2.21-5.18,3.9-8.26,4.92-3.3.98-5.52-1.02-4.58-4.31,1.42-4.71,4.34-8.83,8.33-11.72.65-.49,1.4-.84,2.18-1.07.55-.22,1.17.05,1.4.59.07.19.09.4.06.59-.11,1.1-.53,2.14-1.19,3.02-1.25,1.71-2.99,3.01-5,3.71-.39.16-.93.31-.93.31-1.07,1.65-1.69,3.55-1.79,5.52-.12,1.38.92,1.9,2.26,1.52.75-.18,1.47-.47,2.14-.84,3.28-1.82,6.22-4.22,8.65-7.08,1.33-1.62,2.85-3.07,4.52-4.33,1.35-1.04,2.97-2.02,4.84-.78.12.09.45-.12.65-.24.57-.4,1.18-.76,1.81-1.07.78-.28,1.19.17.84.95-.36.68-.76,1.34-1.19,1.98-1.63,2.74-3.3,5.47-4.87,8.24-.39.74-.65,1.55-.75,2.38-.28,1.63.67,2.5,2.29,2.18.86-.2,1.71-.46,2.53-.76,1.19-.45,1.02.48.53.76-1.52,1.02-3.31,1.56-5.14,1.54-1.67-.06-2.38-1.01-2.46-2.69v-1.82h.01s-.01,0-.01,0ZM115.49,67.28c3.09-2.38,4.95-5.57,7.87-10.23.38-.53-.16-2.38-2.14-1.19-2.72,1.8-4.84,4.37-6.1,7.37-1.67,3.72-.56,4.76.36,4.04h.01ZM107.16,55.67c-.75.84-1.43,1.67-2.19,2.5s-.12.84.48.5c.92-.51,1.78-1.13,2.55-1.85,1.81-1.79,2.02-4.4-.87-1.14h.03,0ZM68.54,60.34c-.31-2.8,1.07-5.02,3.57-5.55.59-.08,1.2,0,1.76.2,1.52.87.92,2.6-.98,1.63-.81-.42-1.98.18-1.95,1.64,0,1.9.28,3.84.32,5.76.12,2.47-1.33,8-7.61,6.35-1.43-.38-2.1-2.62.08-2.8.57-.05,1.11.21,1.43.68,1.19,1.38,2.38,1.27,3.09-.44.38-1.31.57-2.68.57-4.04,0-1.14-.09-2.29-.26-3.41h-.02ZM72.73,44.21c.12.28-.09.84-.2,1.19-.71,2.31-1.85,4.48-3.36,6.36-1.19,1.46-1.54.2-1.48,0,.6-2.11,1.22-4.21,1.84-6.3.22-1.07,1.17-1.83,2.26-1.81.38.03.73.24.95.56h-.01,0ZM36.48,50.3c0,.95-.78,2.02-1.54,2.02-.57,0-1.07-.65-1.11-1.43-.08-.92.51-1.75,1.39-2,.71-.08,1.25.51,1.27,1.4,0,0-.01,0-.01,0ZM63.11,50.58c0,.95-.95,1.96-1.71,1.9-.67-.2-1.09-.86-.98-1.54.01-.91.65-1.69,1.54-1.87.71-.03,1.19.59,1.14,1.5h.01Z" />
  <path
    d="M5.94,93.65l-1.9-.45v-.09h.37c.19,0,.24-.14.24-1.04v-2.74c0-1.04,0-1.13-.32-1.19h-.19c-.07-.01-.14-.01-.22,0-.38,0-.69.31-.92.95l-.09.26h-.06v-1.73c1.73.45,2.58.65,4.33,1.02v1.63h-.08l-.08-.28c-.4-1.31-.95-1.43-1.19-1.48h-.32c-.17,0-.18.22-.18,1.04v2.69c0,1.07.07,1.13.4,1.19h.22v.19h0ZM14.27,95.12l-1.27-.18c-.07-.16-.17-.36-.32-.68l-.24-.45c-.09-.24-.2-.48-.28-.62-.48-.87-.59-1.01-1.11-1.09l-.45-.07v1.31c0,1.07.08,1.13.4,1.19h.2v.12h-.09c-.76-.12-1.19-.2-1.9-.36v-.08h.31c.2,0,.26-.12.26-1.04v-2.8c0-1.07-.08-1.11-.4-1.19h-.22v-.12c1.02.2,1.52.28,2.53.44s1.73.78,1.73,1.59c0,.55-.41,1-.95,1.07-.12.01-.24.01-.36,0-.21.01-.42.01-.63,0,.56.29,1.04.69,1.43,1.19l.28.53.12.22c.24.48.48.86.75.9h.18v.12h.03,0ZM10.58,91.88l1.19.19h.12c.22.01.44-.11.53-.31.1-.25.14-.52.12-.78,0-.8-.3-1.29-.84-1.37l-.88-.14h-.05c-.18,0-.2.14-.2,1.07v1.34h0ZM20.93,95.74l-1.84-.14v-.12h.3c.12,0,.18,0,.2-.06s0-.48-.26-1.04l-.36-.95-1.73-.17-.14.36c-.13.34-.2.7-.22,1.07,0,.33.07.55.39.59h.2v.12l-1.54-.16v-.07h.09c.26,0,.4,0,1.01-1.59l1.34-3.38h.14l1.57,3.95v.12c.44,1.13.51,1.19.81,1.31h.09v.08l-.07.07h0ZM17.24,93.16c.63.07.98.12,1.63.16l-.84-2.2-.8,2.04ZM25.1,95.92c-1,0-1.49,0-2.5-.09v-.09h.16c.32,0,.39,0,.39-1.09v-2.8c0-1.07-.06-1.11-.39-1.19h-.22v-.12h.06l2.5.12c1.39-.07,2.58,1,2.64,2.39v.26c.07,1.35-.97,2.51-2.33,2.59h-.21s-.11.03-.11.03ZM24.21,90.77c-.24,0-.28,0-.28,1.09v2.8c0,1.07,0,1.12.31,1.13h.89c.55.03,1.05-.27,1.31-.75.28-.53.42-1.12.39-1.71,0-1.19-.55-2.5-1.76-2.55h-.87s0-.01,0-.01ZM29.91,95.92h.17c.31,0,.39,0,.39-1.12v-2.85c0-1.07-.08-1.11-.4-1.11h-.22v-.12h1.9v.12h-.2c-.32,0-.39.07-.39,1.12v2.8c0,1.04.07,1.07.39,1.09h.22v.09h-1.9s.05-.03.05-.03ZM35.04,95.78h.2c.33,0,.4-.07.4-1.19v-2.8c0-1,0-1.11-.26-1.11h-.24c-.19,0-.73,0-1.13,1.26l-.09.3h-.12v-1.62c1.73-.07,2.57-.12,4.37-.22v1.62h-.11v-.28c-.26-.76-.62-1.19-1.07-1.19h-.24c-.28,0-.32,0-.32,1.13v2.8c0,1.04.08,1.07.38,1.07h.24v.12l-1.9.08-.11.03h0ZM40.18,95.47h.26c.33,0,.4-.07.4-1.19v-2.83c0-1.02-.08-1.07-.36-1.07h-.26v-.12l1.9-.14v.12h-.2c-.33,0-.4.07-.4,1.19v2.77c0,1.04.08,1.07.36,1.07h.26v.12l-1.9.12-.06-.03h0ZM46.48,95.12c-1.27-.02-2.29-1.07-2.27-2.35,0-.05,0-.1,0-.15-.07-1.51,1.04-2.81,2.55-2.97h.31c1.25,0,2.27,1,2.27,2.25,0,.07,0,.15-.01.22.05,1.5-1.05,2.8-2.55,3h-.31ZM46.96,89.76h-.18c-1.48.16-1.69,1.81-1.69,2.77s.2,2.45,1.51,2.45h.19c1.48-.16,1.69-1.82,1.69-2.8s-.19-2.5-1.5-2.5l-.03.07h0ZM51.38,94.41h.08c.38-.08.55-.64.55-1.83v-2.21c0-.98-.14-1.04-.38-1.04h-.24v-.14l1.26-.16.76.84,2.7,2.97v-2.38c0-.69-.24-1.67-.71-1.67h-.24v-.12l1.37-.17h.36v.12h-.12c-.39.08-.56.64-.56,1.83v3.49h-.18l-3.7-4.04-.12-.14v2.74c0,.68.24,1.67.71,1.67h.22v.12h-.3l-1.35.14h-.11ZM58.68,93.51h.12c.28,0,.42-.16,1.04-1.84l1.35-3.69h.14l1.63,3.78c.45,1.04.53,1.12.8,1.12h.12v.08l-1.9.24v-.12h.22c.14,0,.24-.05.26-.12s0-.45-.26-.95l-.36-.89-1.73.24-.14.36c-.14.38-.21.78-.2,1.19,0,.38.08.53.33.53h.26v.08l-1.46.19h-.16l-.06-.19h0ZM60.14,91.13l1.63-.22-.84-2.02-.8,2.24ZM65.58,92.6h.17c.33,0,.4-.12.4-1.19v-2.85c0-.98-.07-1.07-.28-1.07h-.32v-.12l2.02-.24v.09h-.22c-.32.06-.4.12-.4,1.19v2.78c0,.95,0,1.07.22,1.07h.09l.62-.08c.71-.09,1.07-.28,1.52-1.73l.09-.3h.09v1.93l-3.4.44-.59.08h-.01ZM75.2,91.32h.2c.33-.06.4-.12.4-1.19v-2.78c0-.95-.06-1.07-.3-1.07h-.32v-.12c1.52-.17,2.3-.26,3.89-.43v1.63-.24c-.3-.9-.64-1.09-1.11-1.09h-.4l-.57.06c-.3,0-.32.12-.32,1.19v1.43h.53c.46,0,.85-.33.92-.78v-.2h.12v1.99h-.09v-.17c-.18-.63-.45-.71-.71-.71h-.73v1.26c0,.95.07,1.04.44,1.04h.39v.09l-2.14.26-.19-.16h0ZM81.41,90.65h.2c.33,0,.4-.09.4-1.19v-2.78c0-.98,0-1.07-.32-1.07h-.3v-.12l1.9-.18v.12h-.2c-.33,0-.4.08-.4,1.19v2.8c0,.95,0,1.07.24,1.07h.07l.71-.12c.71,0,1.07-.24,1.51-1.67v-.26h.09v1.93c-1.57.12-2.38.19-3.95.36l.03-.07h0ZM87.3,90.12h.14c.28,0,.42-.12,1.04-1.79l.26-.73c.36-.98.62-1.67,1.07-2.82h.12c.65,1.54.98,2.32,1.63,3.86.44,1.09.51,1.19.78,1.19h.12v.12l-1.84.08v-.12h.26c.09,0,.18-.05.24-.12.09-.12,0-.45-.24-1l-.36-.89-1.81.08-.14.36c-.13.36-.2.74-.22,1.13,0,.36,0,.53.38.53h.22v.12l-1.54.08-.11-.09h-.01ZM88.77,87.86l1.62-.09c-.2-.51-.36-.88-.51-1.29l-.32-.8-.78,2.18ZM95.47,89.89l-1.11-2.66-.51-1.19c-.45-1.11-.51-1.19-.8-1.19h-.09v-.12l1.83-.05v.12h-.24c-.14,0-.24,0-.26.08s0,.44.26.98l.45,1.13.78,1.96.39-1.02.59-1.54c.13-.35.21-.72.22-1.09,0-.36-.07-.55-.39-.57h-.2v-.12h1.67v.12h-.06c-.28,0-.43.12-1.04,1.71-.4,1.04-.65,1.71-.98,2.57l-.36.95h-.14l-.03-.06h0ZM102.07,89.91c-1.44-.02-2.6-1.2-2.59-2.65v-.12c-.12-1.39.91-2.61,2.3-2.72.07,0,.13,0,.2,0h.08c1.46.03,2.63,1.24,2.6,2.7,0,.05,0,.11,0,.16.09,1.36-.94,2.54-2.3,2.64h-.29ZM102.07,84.58c-1.43,0-1.64,1.62-1.64,2.58s.22,2.62,1.69,2.64c.54.02,1.04-.28,1.29-.76.26-.56.38-1.17.36-1.79,0-.98-.22-2.62-1.69-2.66h0s0-.01,0-.01ZM109.78,90.36h-.36c-1.35-.12-2.2-.89-2.2-2.02v-2.26c0-1.04-.07-1.09-.39-1.19h-.22v-.09l1.9.12v.12h-.28c-.24,0-.32,0-.32,1.07v2.26c-.07.92.63,1.71,1.54,1.78h.36c.41.02.81-.13,1.09-.43.26-.28.4-.66.38-1.04v-1.64c0-.68-.24-1.75-.75-1.82h-.22v-.12l1.67.19v.12h-.12c-.39,0-.56.53-.56,1.69v1.6c.03.88-.66,1.62-1.54,1.67h.02ZM119.25,91.55l-1.26-.24-.32-.71c-.06-.09-.12-.24-.2-.39s-.24-.5-.32-.65c-.48-.89-.62-1.02-1.12-1.11l-.43-.08v1.31c0,1.07.07,1.13.4,1.19h.19v.12c-.78-.12-1.19-.18-1.9-.28v-.12h.32c.24,0,.28-.12.28-1.04v-2.75c0-1.07-.06-1.11-.39-1.19h-.32v-.12c1,.14,1.5.22,2.52.39.9.04,1.63.73,1.73,1.63,0,.55-.41,1-.95,1.04h-.96c.55.29,1.04.69,1.43,1.19.06.12.19.36.3.57l.09.19c.26.48.5.88.78.95h.17v.09h-.03,0ZM115.56,88.22l1.19.19h.2c.22.01.43-.11.53-.31.1-.24.14-.5.12-.76,0-.8-.3-1.31-.84-1.39h-.08l-.81-.14h-.09c-.18,0-.2.14-.2,1.07v1.34s-.01,0-.01,0ZM123.7,92.62c-.2,0-.4-.04-.59-.09-.39-.09-.76-.28-1.04-.55-.07-.08-.16-.13-.26-.17-.12,0-.24.09-.44.3h-.03v-1.83h.08l.09.31c.21.85.86,1.52,1.7,1.76.14.03.28.05.43.06.35.04.67-.21.71-.56v-.16c0-.75-.65-1.19-1.34-1.7s-1.48-1.04-1.48-1.95c-.04-.58.4-1.08.98-1.11.07,0,.14,0,.22,0,.14-.02.28-.02.43,0,.34.07.64.24.89.48.07.07.15.13.24.17.09,0,.22-.07.38-.24v1.58h-.09l-.08-.28c-.18-.73-.73-1.3-1.45-1.51-.11-.01-.22-.01-.33,0-.3-.03-.56.18-.59.47v.13c0,.73.64,1.19,1.34,1.71s1.52,1.11,1.52,2.07c0,.59-.47,1.08-1.05,1.09-.07,0-.14,0-.21-.02v.05h-.01Z" />
</svg>
