<?xml version="1.0" encoding="UTF-8"?>
<svg xmlns="http://www.w3.org/2000/svg" viewBox="0 0 128 128">
  <path
    d="M25.3,76.52c-2.34-1.26-4.18-3.02-5.51-5.26-1.33-2.24-2-4.75-2-7.53s.67-5.28,2-7.53c1.33-2.24,3.17-4,5.51-5.26,2.34-1.26,4.96-1.9,7.87-1.9s5.53.63,7.87,1.9c2.34,1.26,4.17,3.01,5.51,5.24,1.33,2.23,2,4.75,2,7.55s-.67,5.32-2,7.55c-1.33,2.23-3.17,3.98-5.51,5.24-2.34,1.26-4.96,1.9-7.87,1.9s-5.54-.63-7.87-1.9ZM38.32,72.48c1.52-.86,2.72-2.05,3.59-3.59.87-1.54,1.31-3.26,1.31-5.16s-.44-3.62-1.31-5.16c-.87-1.54-2.07-2.73-3.59-3.59-1.52-.86-3.24-1.29-5.14-1.29s-3.62.43-5.14,1.29c-1.52.86-2.72,2.05-3.59,3.59-.87,1.54-1.31,3.26-1.31,5.16s.43,3.62,1.31,5.16c.87,1.54,2.07,2.73,3.59,3.59,1.52.86,3.24,1.29,5.14,1.29s3.62-.43,5.14-1.29Z" />
  <path
    d="M59.59,76.52c-2.33-1.26-4.15-3.01-5.47-5.24-1.32-2.23-1.98-4.75-1.98-7.55s.67-5.32,2-7.55c1.33-2.23,3.16-3.98,5.49-5.24,2.33-1.26,4.93-1.9,7.81-1.9,2.34,0,4.47.41,6.41,1.22,1.93.82,3.56,2,4.9,3.55l-3.43,3.22c-2.07-2.23-4.61-3.35-7.63-3.35-1.96,0-3.71.43-5.26,1.29-1.55.86-2.76,2.05-3.63,3.57-.87,1.52-1.31,3.25-1.31,5.18s.43,3.66,1.31,5.18c.87,1.52,2.08,2.71,3.63,3.57,1.55.86,3.31,1.29,5.26,1.29,3.02,0,5.56-1.13,7.63-3.39l3.43,3.26c-1.33,1.55-2.97,2.73-4.92,3.55-1.95.82-4.09,1.22-6.43,1.22-2.88,0-5.49-.63-7.81-1.9Z" />
  <path
    d="M101.6,78.01l-5.51-7.96h-6.08v7.96h-6.61v-28.56h12.36c2.53,0,4.73.42,6.59,1.26,1.86.84,3.3,2.04,4.3,3.59,1.01,1.55,1.51,3.39,1.51,5.51s-.51,3.95-1.53,5.49c-1.02,1.54-2.47,2.71-4.35,3.53l6.41,9.18h-7.1ZM99.92,56.12c-1.03-.86-2.54-1.29-4.53-1.29h-5.39v9.96h5.39c1.98,0,3.49-.43,4.53-1.31,1.03-.87,1.55-2.09,1.55-3.67s-.52-2.84-1.55-3.69Z" />
</svg>
