<?xml version="1.0" encoding="UTF-8"?>
<svg xmlns="http://www.w3.org/2000/svg" viewBox="0 0 128 128">
<path d="M62.79,84.92c-.09.08-.3-.15-.11-1.11,5.88-29.94-17.46-35.84-7.09-64.77,23.08,17.58,17.54,44,7.2,65.88Z"/>
<path d="M60.47,82.62c-3.29-22.23-32.78-26.41-34.67-48.98,23.67,7.13,34.67,26.55,34.77,48.97,0,.06-.09.07-.1,0Z"/>
<path d="M89.42,31.68c4.7,21.06-6.86,41.67-23.84,53.61-.03.02-.06-.01-.05-.04,4.11-6.91,8.64-15.7,10.36-23.84,2.61-11.85,3.16-21.42,13.53-29.73Z"/>
<path d="M24.41,60.08c12.54,1.51,28.64,12.4,33.36,22.46.03.06-.05.1-.1.05-11.33-13.13-35.92-8.31-45.47-22.88,3.92.29,8.36-.09,12.2.37Z"/>
<path d="M107.61,56.53c-5,17.32-22.13,26.79-38.84,30.13-.04,0-.07-.05-.03-.08l8.22-5.46c10.88-7.44,16.2-23.16,30.65-24.59Z"/>
<path d="M57.47,85.82c.78.51-.22.53-.82.62-14.44,1.67-30.43.92-44.28-5.67-.17-.08-.11-.35.08-.38,15-2.05,31.56-2.26,45.03,5.42Z"/>
<path d="M121.68,97.48c1.16.6,2.3,1.27,2.66,1.53.42.3-.15.11-2.14-.43-26-7.13-49.33,12.87-79.59,10.12,31.54-2.46,57.36-22.39,79.07-11.22Z"/>
<path d="M0,77.5s.03-.03.04-.01c32.96,54.43,102.47-21.84,127.94,20.68.08.13-.08.27-.2.17-27.31-24.55-67.15,15.02-101.28,5.57C13.41,100.26,2.5,91.43,0,77.5Z"/></svg>