<?xml version="1.0" encoding="UTF-8"?>
<svg xmlns="http://www.w3.org/2000/svg" viewBox="0 0 128 128">
<path d="M98.99,30.65c-1-.11-1.82-.87-2-1.86-2.81-15.22-16.17-26.79-32.2-26.79s-28.07,10.46-31.71,24.57c-.26,1.02-1.18,1.72-2.23,1.78,0,0-.01,0-.02,0-8.73.51-16.74,4.4-22.55,10.94C2.46,45.83-.46,54.24.06,62.97c.08,1.32.24,2.65.47,3.95.53,2.94,3.1,5.01,5.99,5.01.95,0,1.93-.22,2.89-.73,2.39-1.27,3.51-4.05,3.06-6.72-.12-.73-.21-1.47-.25-2.22-.67-11.32,8-21.07,19.32-21.74,7.51-.44,14.64,3.24,18.65,9.62,1.63,2.61,4.89,3.86,7.72,2.64,3.48-1.51,4.72-5.66,2.81-8.78-3.82-6.25-9.5-10.89-16.06-13.45,2.07-9.92,11.3-17.24,22.02-16.28,9.46.85,17.25,8.29,18.49,17.71,1.15,8.71-3.21,16.95-10.78,20.95-2.6,1.38-4.03,4.39-3.17,7.2.84,2.75,3.3,4.37,5.85,4.37.95,0,1.91-.22,2.81-.69,8.48-4.41,14.44-12.14,16.67-21.14,10.73.68,19.26,9.6,19.26,20.5,0,1.14-.09,2.28-.28,3.39-.53,3.23,1.64,6.4,4.85,7.01.39.07.78.11,1.16.11,2.92,0,5.5-2.11,6-5.09.3-1.78.45-3.61.45-5.42,0-16.79-12.71-30.67-29.01-32.53Z"/></svg>